<svg width="327" height="201" viewBox="0 0 327 281" fill="none" xmlns="http://www.w3.org/2000/svg">
<path d="M74.9379 205.762C74.0146 206.071 173.603 193.737 174.789 219.844C175.644 238.59 237.261 243.567 237.261 243.567C239.222 243.574 256.026 244.828 256.026 244.828L296.488 218.573C303.764 210.629 316.851 206.633 324.833 213.741C331.081 219.292 319.173 223.764 311.891 231.708L266.83 265.427C265.96 266.382 262.224 268.022 256.36 268.871C230.451 272.662 209.488 273.79 166.238 279.568C152.927 281.344 142.215 279.407 137.867 277.288C121.213 269.153 74.9275 268.842 74.9275 268.842L74.9379 205.762Z" fill="#FCBC81"/>
<path d="M193.747 226.944C204.097 233.096 209.942 232.709 210.578 232.96L225.847 219.605C230.673 214.32 248.137 212.112 252.961 217.385C257.797 222.653 254.254 223.477 249.414 228.748L219.842 253.664C217.125 256.627 213.467 257.861 209.925 257.49C209.547 257.521 209.196 257.617 208.814 257.61L129.137 261.482C125.528 261.489 122.196 260.254 119.433 258.169C105.37 252.674 95.6099 244.709 95.6099 230.953C95.6099 211.963 114.188 204.309 137.1 204.309C168.378 204.311 176.185 216.505 193.747 226.944Z" fill="#F7AE72"/>
<path d="M68.3618 203.119H79.805V271.154H68.3618V203.119Z" fill="white"/>
<path d="M-3.8147e-05 199.057L73.8805 199.064L73.877 275.066H30.9582C16.2553 252.241 5.57027 226.583 -3.8147e-05 199.057Z" fill="#002F66"/>
<path d="M251.649 74.5034C252.572 74.1957 152.984 86.5294 151.798 60.4212C150.943 41.6765 89.3261 36.6993 89.3261 36.6993C87.3644 36.6924 70.5607 35.4374 70.5607 35.4374L30.0986 61.6935C22.8228 69.638 9.73607 73.6352 1.75368 66.5262C-4.49399 60.9748 7.41336 56.5014 14.696 48.5568L59.757 14.8376C60.627 13.8834 64.3629 12.2432 70.2272 11.3939C96.136 7.60131 117.099 6.47522 160.349 0.696882C173.659 -1.0808 184.372 0.858497 188.72 2.97659C205.374 11.112 251.659 11.4249 251.659 11.4249L251.649 74.5034Z" fill="#FCBC81"/>
<path d="M132.841 53.3208C122.492 47.1694 116.646 47.558 116.01 47.3053L100.742 60.6603C95.9159 65.9452 78.452 68.1526 73.6278 62.8797C68.7916 57.612 72.3349 56.7885 77.1745 51.5174L106.747 26.6006C109.463 23.6383 113.122 22.4039 116.664 22.7753C117.042 22.7443 117.392 22.6481 117.774 22.6549L197.452 18.7832C201.061 18.7764 204.392 20.0107 207.155 22.0962C221.219 27.5908 230.979 35.5578 230.979 49.3133C230.979 68.3022 212.401 75.958 189.488 75.958C158.21 75.9562 150.402 63.76 132.841 53.3208Z" fill="#F7AE72"/>
<path d="M246.783 9.11072H258.227V77.1475H246.783V9.11072Z" fill="white"/>
<path d="M326.587 81.2101L252.706 81.2033L252.71 5.20123H295.629C310.331 28.0275 321.018 53.6818 326.587 81.2101Z" fill="#002046"/>
<path d="M167.134 87.2368C166.958 86.8049 166.397 86.6882 166.065 87.0177C163.893 89.1773 156.999 94.6807 156.22 95.3931C152.436 98.8515 148.844 102.518 145.462 106.367C140.235 112.317 135.197 118.839 131.131 125.877C129.098 129.396 127.308 133.045 125.858 136.814C121.736 147.272 120.326 159.165 124.588 169.894C127.631 177.516 133.007 183.644 140.313 187.862C152.947 195.192 167.769 194.915 180.615 189.355C190.43 185.093 198.665 177.259 202.162 167.158C203.459 163.546 204.197 159.731 204.341 155.821C204.483 151.91 204.032 147.905 202.946 143.913C200.66 135.501 195.335 127.781 189.903 121.074C182.625 112.116 175.163 104.241 170.356 94.1782C169.191 91.9429 168.116 89.64 167.134 87.2368Z" fill="#F2D633"/>
<path d="M202.966 143.731C202.221 140.719 201.115 137.906 199.642 135.191C198.806 133.643 197.908 132.15 196.961 130.698C196.013 129.245 195.015 127.834 193.98 126.447C192.1 124.001 190.139 121.602 188.158 119.213C186.178 116.824 184.179 114.446 182.224 112.039C176.342 104.91 170.91 97.3489 167.583 88.6061C167.896 95.5087 169.833 102.158 172.636 108.326C174.035 111.444 175.645 114.474 177.383 117.414C179.041 120.308 180.775 123.17 182.46 126.059C184.146 128.949 185.784 131.866 187.253 134.871C187.904 136.173 188.655 137.369 189.105 138.631C189.857 140.302 190.537 141.995 191.118 143.713C195.302 154.652 193.364 168.026 184.703 176.356C183.312 177.757 181.788 179.026 180.161 180.155C175.282 183.544 169.478 185.676 163.576 186.363C161.981 186.563 160.372 186.674 158.761 186.701C155.54 186.753 152.313 186.467 149.174 185.873C147.398 185.543 145.644 185.105 143.926 184.561C140.492 183.47 137.205 181.947 134.186 179.998C132.6 178.973 131.098 177.826 129.692 176.548C128.287 175.27 126.979 173.86 125.786 172.315C127.515 175.85 129.822 178.998 132.551 181.718C133.915 183.077 135.386 184.33 136.944 185.473C142.413 189.547 148.894 192.117 155.614 193.106C157.294 193.354 158.989 193.502 160.688 193.551C165.358 193.662 170.049 193.017 174.54 191.694C176.037 191.252 177.512 190.736 178.957 190.146C180.388 189.579 181.79 188.933 183.156 188.213C184.52 187.493 185.848 186.699 187.13 185.836C198.979 178.224 206.293 163.874 204.177 149.766C203.928 147.755 203.525 145.738 202.966 143.731Z" fill="#EAC926"/>
<path d="M141.567 159.389C141.438 157.278 142.864 155.279 144.883 154.73C146.436 154.315 147.978 154.839 149.071 156.029C150.126 157.26 150.529 158.918 150.068 160.481C149.573 162.206 148.166 163.554 146.411 163.77C144.539 163.989 142.706 162.903 141.963 161.153C141.727 160.616 141.587 160.02 141.567 159.389Z" fill="#300000"/>
<path d="M143.717 158.753C143.693 158.083 144.146 157.523 144.725 157.271C145.731 156.89 146.814 157.754 146.69 158.812C146.629 159.359 146.291 159.837 145.789 160.048C145.248 160.298 144.58 160.202 144.171 159.789C143.897 159.53 143.724 159.164 143.717 158.753Z" fill="white"/>
<path d="M172.831 158.455C172.723 156.452 173.995 154.5 175.855 153.872C178.102 153.153 180.531 154.505 181.267 156.804C181.829 158.54 181.417 160.468 180.125 161.729C178.908 162.866 177.197 163.244 175.691 162.637C174.422 162.105 173.411 161.036 173.024 159.673C172.911 159.288 172.844 158.879 172.831 158.455Z" fill="#300000"/>
<path d="M174.901 157.856C174.861 157.255 175.275 156.697 175.777 156.447C176.471 156.115 177.303 156.44 177.673 157.053C178.045 157.705 177.876 158.568 177.225 159.017C176.648 159.386 175.828 159.41 175.363 158.883C175.088 158.625 174.912 158.263 174.901 157.856Z" fill="white"/>
<path d="M145.657 164.722C144.455 164.92 143.283 165.523 142.66 166.449C142.262 167.041 142.212 167.806 142.685 168.399C143.601 169.546 145.242 169.846 146.642 169.632C147.76 169.461 149.353 168.829 149.839 167.719C150.41 166.414 149.012 165.275 147.91 164.878C147.242 164.637 146.443 164.594 145.657 164.722Z" fill="#FF5C5C"/>
<path d="M145.603 164.547C144.28 164.778 142.558 165.567 142.213 167.007C141.859 168.481 143.4 169.478 144.645 169.756C145.946 170.048 147.353 169.819 148.53 169.208C149.61 168.647 150.593 167.513 149.932 166.264C149.138 164.765 147.206 164.303 145.652 164.538C145.419 164.574 145.428 164.943 145.663 164.907C146.944 164.713 148.269 164.961 149.206 165.907C149.617 166.322 149.904 166.885 149.731 167.476C149.568 168.036 149.083 168.454 148.599 168.746C147.661 169.313 146.515 169.576 145.423 169.499C144.332 169.423 142.62 168.829 142.534 167.525C142.484 166.762 143.067 166.125 143.652 165.713C144.265 165.281 144.977 165.027 145.712 164.898C145.946 164.858 145.835 164.505 145.603 164.547Z" fill="#FF5C5C"/>
<path d="M177.758 163.75C178.971 163.874 180.177 164.405 180.855 165.291C181.288 165.859 181.385 166.619 180.95 167.24C180.104 168.441 178.486 168.838 177.075 168.71C175.948 168.607 174.32 168.072 173.768 166.994C173.118 165.727 174.442 164.504 175.519 164.042C176.171 163.761 176.966 163.669 177.758 163.75Z" fill="#FF5C5C"/>
<path d="M177.714 163.929C178.892 164.062 180.486 164.606 180.948 165.828C181.462 167.19 179.872 168.148 178.76 168.414C177.665 168.677 176.47 168.55 175.434 168.116C174.414 167.688 173.328 166.736 173.998 165.551C174.738 164.243 176.36 163.807 177.764 163.934C178 163.955 177.987 163.586 177.752 163.565C176.284 163.433 174.724 163.89 173.832 165.13C173.472 165.629 173.291 166.255 173.506 166.853C173.713 167.433 174.194 167.866 174.715 168.171C175.845 168.834 177.27 169.057 178.556 168.831C179.773 168.618 181.418 167.775 181.416 166.347C181.414 164.614 179.234 163.733 177.802 163.571C177.568 163.544 177.478 163.902 177.714 163.929Z" fill="#FF5C5C"/>
<path d="M152.998 107.165C149.613 107.982 146.179 111.748 145.629 115.441C145.519 116.178 145.525 116.914 145.669 117.623C145.887 118.346 146.175 119.122 146.89 119.429C151.453 121.719 155.928 115.881 157.269 112.191C157.96 110.288 157.667 107.638 155.304 107.225C154.573 107.011 153.767 106.98 152.998 107.165Z" fill="white"/>
<path d="M142.769 122.318C141.338 122.804 140.22 123.963 139.709 125.409C139.114 127.28 139.235 130.287 141.495 130.625C144.087 130.973 146.153 128.399 146.748 125.975C147.024 124.87 146.82 123.67 146.035 122.794C145.196 121.918 143.925 121.902 142.769 122.318Z" fill="white"/>
<path d="M162.133 164.751C160.898 163.438 159.199 164.422 158.435 165.693C159.474 166.568 160.793 167.102 162.169 166.957C163.579 166.808 164.829 166.052 165.707 164.98C164.626 164.017 163.211 163.418 162.133 164.751Z" fill="#FF5C5C"/>
<path d="M166.903 161.647C166.757 161.194 166.355 160.896 165.779 160.919C164.992 160.949 164.312 161.448 163.573 161.659C162.292 162.023 160.927 162.096 159.616 161.857C158.903 161.728 158.023 161.367 157.314 161.683C156.356 162.11 156.669 163.429 157.102 164.138C157.455 164.715 157.909 165.247 158.435 165.693C159.199 164.422 160.898 163.438 162.133 164.751C163.211 163.418 164.626 164.017 165.707 164.98C166.329 164.222 166.765 163.307 166.939 162.337C166.984 162.086 166.97 161.85 166.903 161.647Z" fill="#300000"/>
</svg>
