<svg width="325" height="201" viewBox="0 0 325 297" fill="none" xmlns="http://www.w3.org/2000/svg">
<path d="M325 106.747L318.879 73.2054L293.245 73.5188C290.843 68.2107 287.855 63.0907 284.304 58.2006L297.048 36.1323L270.819 14.3779L251.588 30.9184C246.136 28.3061 240.453 26.2791 234.614 24.8476L230.259 0L196.175 0.208865L192.122 25.0357C186.283 26.5404 180.558 28.6405 175.033 31.3677L155.886 15.2765L155.144 15.9136L129.908 37.3447L142.725 58.9216C139.152 63.9371 136.154 69.2768 133.741 74.8147L108.714 74.8042L103 108.408L126.837 116.757C127.317 122.754 128.435 128.711 130.169 134.541L110.834 150.737L128.049 180.14L151.917 171.133C156.179 175.417 160.795 179.189 165.684 182.418L161.234 207.517L193.323 219L205.941 196.524C211.78 197.047 217.682 197.005 223.521 196.347L236.369 218.614L268.312 206.764L265.868 193.797L263.496 181.332C265.805 179.712 268.082 177.988 270.265 176.138C272.574 174.174 274.746 172.116 276.794 169.984L301.027 178.834L317.887 149.211L297.883 132.827C299.45 127.185 300.401 121.375 300.818 115.566L325 106.747ZM248.946 151.029C246.815 152.837 244.548 154.373 242.229 155.815C219.782 169.681 189.98 165.501 172.369 144.76C152.972 121.898 155.75 87.6043 178.626 68.1483C180.621 66.4555 182.731 64.9926 184.893 63.6342C207.404 49.4445 237.476 53.4988 255.203 74.4072C274.621 97.2905 271.821 131.573 248.946 151.029Z" fill="#002046"/>
<path d="M206 200.728L203.156 169.105L179.355 167.232C177.577 162.105 175.245 157.092 172.359 152.258L186.047 132.857L163.553 110.453L144.322 124.172C139.481 121.294 134.388 118.929 129.096 117.098L127.151 93.6997L95.5387 91L89.6825 113.687C84.1401 114.586 78.65 116.062 73.3063 118.124L56.9091 101.58L56.1666 102.103L30.9434 119.85L41.0034 140.957C37.2701 145.31 34.0283 150.008 31.3408 154.937L8.13584 152.813L0 183.504L21.4063 193.268C21.354 198.876 21.8769 204.485 22.9958 210.052L3.70192 223.436L17.192 252.171L40.0832 245.84C43.67 250.172 47.6334 254.065 51.8896 257.466L45.6465 280.372L74.4357 293.725L88.0303 273.947C93.3949 274.92 98.8746 275.381 104.344 275.266L114.372 297L144.992 288.712L143.82 276.48L142.681 264.707C144.96 263.399 147.219 261.986 149.394 260.459C151.705 258.837 153.891 257.121 155.972 255.31L177.692 265.565L195.825 239.509L178.654 222.62C180.589 217.524 181.959 212.218 182.837 206.84L206 200.728ZM131.742 235.376C129.609 236.872 127.371 238.117 125.112 239.247C103.12 250.214 75.8474 243.821 61.2489 223.091C45.1864 200.237 50.6661 168.666 73.5154 152.551C75.5128 151.149 77.5938 149.977 79.7062 148.889C101.782 137.629 129.327 143.939 143.998 164.825C160.082 187.7 154.592 219.261 131.742 235.376Z" fill="#002F66"/>
<path d="M97.7305 140.219C97.8821 140.446 98.0665 140.65 98.2827 140.817C98.8377 141.246 99.5562 141.39 100.115 141.813C100.207 142.115 100.306 142.414 100.412 142.71C101.151 144.784 102.217 146.725 103.584 148.46C105.104 150.388 106.988 152.057 109.109 153.296C110.33 154.009 111.621 154.596 112.971 155.017C113.329 155.128 113.771 154.983 113.897 154.599C114.012 154.248 113.862 153.793 113.479 153.674C112.91 153.497 112.351 153.292 111.803 153.058C111.535 152.944 111.269 152.823 111.006 152.695C110.879 152.633 110.753 152.57 110.628 152.506C110.569 152.475 110.511 152.444 110.452 152.414C110.414 152.393 110.377 152.373 110.339 152.352C109.308 151.783 108.332 151.114 107.425 150.362C107.2 150.176 106.979 149.984 106.762 149.787C106.741 149.768 106.68 149.711 106.664 149.697C106.623 149.659 106.583 149.62 106.542 149.582C106.433 149.477 106.325 149.371 106.218 149.264C105.796 148.843 105.394 148.402 105.013 147.943C104.632 147.485 104.271 147.009 103.933 146.517C103.853 146.4 103.774 146.283 103.696 146.164C103.662 146.114 103.63 146.063 103.597 146.012C103.592 146.005 103.589 145.999 103.585 145.994C103.562 145.958 103.539 145.921 103.517 145.884C103.362 145.635 103.213 145.382 103.07 145.126C102.743 144.542 102.447 143.941 102.183 143.327C102.055 143.029 101.935 142.727 101.822 142.423C101.763 142.261 101.705 142.098 101.65 141.935C101.624 141.858 101.599 141.781 101.573 141.704C101.572 141.701 101.572 141.7 101.571 141.698C101.557 141.653 101.543 141.607 101.529 141.561C101.515 141.515 101.497 141.47 101.476 141.425C101.667 141.295 101.853 141.156 102.027 141.009C102.907 140.443 103.328 139.323 103.179 138.349C102.982 137.185 102.237 135.858 100.891 135.663C100.684 135.626 100.474 135.61 100.267 135.614C99.4352 135.633 98.6237 135.976 97.9616 136.55C97.1735 137.234 97.0664 138.569 97.3829 139.508C97.467 139.758 97.5833 139.999 97.7305 140.219Z" fill="#300000"/>
<path d="M101.336 136.862C101.252 135.166 100.996 133.508 101.326 131.829C101.41 131.433 101.987 131.118 102.39 131.397C102.593 131.586 102.705 131.974 102.716 132.268C102.577 133.843 102.54 135.512 102.257 137.12C102.097 137.277 101.828 137.258 101.336 136.862Z" fill="#300000"/>
<path d="M101.58 136.876C101.528 135.88 101.42 134.887 101.408 133.889C101.402 133.393 101.419 132.895 101.481 132.402C101.516 132.125 101.514 131.758 101.794 131.606C102.116 131.431 102.347 131.694 102.425 131.982C102.538 132.405 102.417 132.924 102.387 133.357C102.352 133.856 102.321 134.356 102.281 134.855C102.241 135.358 102.193 135.86 102.127 136.359C102.113 136.464 102.111 136.907 102.02 136.966C101.912 137.037 101.549 136.716 101.472 136.658C101.22 136.466 100.95 136.875 101.2 137.066C101.488 137.286 101.94 137.61 102.317 137.38C102.495 137.271 102.501 137.144 102.533 136.949C102.595 136.576 102.643 136.201 102.684 135.825C102.771 135.014 102.82 134.2 102.876 133.386C102.918 132.779 103.067 132.125 102.789 131.553C102.588 131.14 102.19 130.953 101.744 131.097C101.263 131.252 101.106 131.635 101.033 132.094C100.78 133.67 101.008 135.267 101.091 136.847C101.108 137.159 101.597 137.191 101.58 136.876Z" fill="#300000"/>
<path d="M181.947 168.129C182.697 168.847 183.394 169.592 184.031 170.397L184.001 170.367C184.851 171.5 185.643 172.694 186.134 174.011L186.134 173.951C187.024 176.194 187.286 178.654 186.877 181.047C186.83 181.351 186.776 181.655 186.713 181.957C186.68 182.118 186.645 182.278 186.607 182.438C186.589 182.513 186.57 182.588 186.553 182.663C186.535 182.739 186.559 182.641 186.561 182.632C186.547 182.688 186.532 182.744 186.517 182.8C186.425 183.143 186.52 183.555 186.897 183.687C187.211 183.797 187.686 183.677 187.784 183.307C188.093 182.149 188.295 180.968 188.385 179.783C188.875 175.037 186.344 170.526 182.924 167.404C182.622 167.167 182.17 167.02 181.873 167.383C181.695 167.625 181.728 167.955 181.947 168.129Z" fill="#300000"/>
<path d="M186.648 183.59C186.822 183.645 186.982 183.719 187.13 183.81C187.277 183.9 187.412 184.007 187.534 184.127C188.181 184.836 188.601 185.824 188.283 186.831C188.233 186.985 188.171 187.133 188.097 187.273C187.686 188.203 186.571 188.656 185.687 188.276C184.303 187.662 184.449 185.758 185.335 184.655C185.473 184.465 185.629 184.292 185.8 184.142C185.961 184.001 186.139 183.876 186.333 183.772C186.425 183.719 186.53 183.659 186.648 183.59Z" fill="#300000"/>
<path d="M186.42 184.158C186.547 184.201 186.672 184.248 186.789 184.314C186.69 184.258 186.868 184.369 186.867 184.368C186.92 184.405 186.971 184.444 187.021 184.485C187.034 184.496 187.175 184.642 187.08 184.535C187.112 184.571 187.144 184.609 187.175 184.646C187.238 184.722 187.298 184.801 187.354 184.882C187.382 184.922 187.41 184.963 187.436 185.005C187.449 185.025 187.531 185.169 187.458 185.037C187.506 185.123 187.551 185.211 187.591 185.302C187.624 185.377 187.654 185.453 187.681 185.531C187.697 185.578 187.712 185.625 187.725 185.672C187.683 185.528 187.736 185.732 187.742 185.76C187.76 185.857 187.773 185.956 187.779 186.054C187.781 186.087 187.783 186.121 187.784 186.154C187.78 186.009 187.78 186.176 187.779 186.198C187.772 186.3 187.76 186.401 187.74 186.502C187.736 186.522 187.688 186.684 187.729 186.552C187.706 186.627 187.681 186.701 187.652 186.774C187.616 186.867 187.572 186.955 187.528 187.045C187.506 187.091 187.485 187.136 187.461 187.181C187.535 187.043 187.454 187.185 187.438 187.208C187.382 187.289 187.319 187.364 187.252 187.436C187.36 187.319 187.251 187.434 187.228 187.454C187.191 187.485 187.153 187.515 187.114 187.544C187.075 187.573 187.035 187.598 186.995 187.625C186.866 187.713 187.109 187.579 186.966 187.64C186.878 187.678 186.791 187.714 186.702 187.749C186.558 187.806 186.821 187.732 186.67 187.759C186.631 187.766 186.593 187.775 186.554 187.781C186.515 187.787 186.476 187.792 186.437 187.796C186.406 187.799 186.374 187.801 186.343 187.802C186.421 187.803 186.426 187.803 186.359 187.801C186.264 187.794 186.172 187.783 186.078 187.768C185.928 187.743 186.19 187.816 186.049 187.758C186.012 187.743 185.974 187.732 185.937 187.716C185.9 187.701 185.865 187.683 185.828 187.666C185.687 187.603 185.933 187.745 185.811 187.656C185.757 187.616 185.588 187.533 185.569 187.465C185.588 187.484 185.606 187.502 185.625 187.52C185.606 187.5 185.587 187.479 185.569 187.457C185.541 187.425 185.515 187.392 185.491 187.358C185.475 187.335 185.46 187.311 185.444 187.288C185.36 187.173 185.498 187.41 185.439 187.281C185.404 187.204 185.368 187.129 185.341 187.049C185.327 187.011 185.265 186.901 185.333 187.038C185.31 186.991 185.306 186.921 185.297 186.87C185.285 186.799 185.277 186.726 185.271 186.654C185.268 186.61 185.267 186.566 185.265 186.522C185.27 186.681 185.268 186.53 185.269 186.501C185.278 186.318 185.308 186.14 185.346 185.962C185.313 186.117 185.346 185.966 185.355 185.938C185.373 185.879 185.392 185.82 185.413 185.762C185.45 185.661 185.492 185.561 185.539 185.464C185.552 185.436 185.566 185.408 185.58 185.381C185.594 185.354 185.609 185.327 185.624 185.3C185.58 185.376 185.577 185.384 185.613 185.323C185.672 185.235 185.73 185.146 185.794 185.061C185.88 184.948 185.969 184.838 186.064 184.731C186.075 184.719 186.15 184.647 186.08 184.713C186.142 184.655 186.205 184.599 186.271 184.546C186.534 184.335 186.709 184.259 187.02 184.077C187.296 183.914 187.33 183.451 187.135 183.218C186.9 182.938 186.573 182.928 186.276 183.103C186.248 183.119 186.219 183.136 186.191 183.153C186.098 183.207 186.256 183.116 186.171 183.165C186.105 183.202 186.038 183.239 185.972 183.277C185.817 183.366 185.667 183.46 185.527 183.572C185.27 183.779 185.046 184.023 184.847 184.285C184.568 184.65 184.34 185.062 184.211 185.504C183.948 186.405 183.963 187.494 184.622 188.232C185.338 189.034 186.52 189.253 187.476 188.751C188.502 188.212 189.058 187.053 188.994 185.914C188.926 184.684 188.053 183.415 186.876 183.021C186.572 182.919 186.193 183.037 186.079 183.362C185.975 183.66 186.095 184.049 186.42 184.158Z" fill="#300000"/>
<path d="M184.724 184.429C184.652 184.497 184.583 184.57 184.506 184.633C184.485 184.652 184.462 184.669 184.438 184.685C184.453 184.676 184.468 184.667 184.483 184.658C184.517 184.662 184.704 184.645 184.709 184.677C184.691 184.672 184.672 184.665 184.654 184.657C184.624 184.643 184.63 184.647 184.672 184.67C184.714 184.695 184.72 184.699 184.691 184.68C184.674 184.669 184.657 184.657 184.641 184.644C184.555 184.587 184.679 184.665 184.669 184.675C184.66 184.665 184.651 184.655 184.642 184.644C184.612 184.6 184.611 184.601 184.638 184.647C184.659 184.688 184.663 184.694 184.649 184.665C184.64 184.648 184.633 184.63 184.627 184.612C184.655 184.615 184.65 184.759 184.649 184.777C184.657 184.671 184.636 184.884 184.644 184.811C184.648 184.77 184.6 184.864 184.645 184.814C184.675 184.78 184.701 184.738 184.729 184.701C184.762 184.656 184.772 184.649 184.727 184.694C184.792 184.628 184.868 184.574 184.943 184.519C184.982 184.491 185.003 184.477 184.949 184.51C184.989 184.486 185.032 184.466 185.075 184.446C185.152 184.41 185.231 184.378 185.312 184.35C185.348 184.338 185.384 184.327 185.42 184.315C185.321 184.347 185.442 184.311 185.462 184.306C185.545 184.288 185.629 184.276 185.712 184.261C186.093 184.195 186.475 184.15 186.862 184.144C186.807 183.739 186.752 183.335 186.696 182.93C186.184 182.939 185.667 183.197 185.322 183.571C185.163 183.743 185 183.917 184.856 184.102C184.796 184.178 184.735 184.255 184.681 184.336C184.574 184.495 184.526 184.655 184.487 184.842C184.422 185.157 184.71 185.5 185.021 185.524C185.375 185.552 185.634 185.326 185.703 184.99C185.734 184.842 185.66 185.08 185.657 185.077C185.654 185.074 185.718 184.992 185.723 184.985C185.776 184.913 185.831 184.843 185.886 184.774C186 184.632 186.127 184.493 186.254 184.363C186.209 184.409 186.244 184.373 186.272 184.351C186.304 184.327 186.336 184.304 186.367 184.28C186.404 184.253 186.433 184.235 186.376 184.269C186.407 184.251 186.44 184.235 186.473 184.22C186.506 184.205 186.539 184.193 186.573 184.179C186.712 184.124 186.524 184.176 186.607 184.169C186.693 184.161 186.775 184.145 186.862 184.144C187.184 184.138 187.44 183.754 187.386 183.454C187.321 183.095 187.04 182.924 186.696 182.93C186.193 182.938 185.674 182.995 185.186 183.119C184.621 183.263 184.078 183.527 183.718 184.003C183.533 184.248 183.399 184.526 183.435 184.84C183.469 185.13 183.631 185.368 183.839 185.564C184.041 185.756 184.355 185.901 184.638 185.87C184.985 185.832 185.225 185.633 185.467 185.403C185.699 185.183 185.81 184.817 185.582 184.544C185.389 184.312 184.972 184.193 184.724 184.429Z" fill="#300000"/>
<path d="M162.102 83.1074C161.967 82.6685 161.43 82.5057 161.077 82.7996C158.767 84.724 151.554 89.5107 150.731 90.1399C146.733 93.1961 142.904 96.4722 139.264 99.9467C133.639 105.316 128.148 111.263 123.561 117.801C121.267 121.07 119.199 124.486 117.452 128.051C112.51 137.933 110.088 149.458 113.305 160.341C115.606 168.073 120.314 174.546 127.076 179.317C138.763 187.604 153.256 188.631 166.284 184.31C176.239 180.995 184.967 174.044 189.268 164.457C190.851 161.032 191.908 157.36 192.391 153.542C192.875 149.725 192.785 145.762 192.077 141.758C190.585 133.318 186.066 125.289 181.353 118.245C175.036 108.833 168.445 100.466 164.637 90.1886C163.696 87.8975 162.849 85.5468 162.102 83.1074Z" fill="#F2D633"/>
<path d="M191.659 141.485C190.38 131.339 184.035 123.113 178.386 115.02C177.294 113.433 176.213 111.839 175.155 110.232C169.863 102.195 165.141 93.8208 162.429 84.5375C162.153 91.7133 163.534 98.4885 165.807 105.073C166.375 106.719 166.999 108.353 167.666 109.982C168.445 111.9 169.31 113.772 170.2 115.633C171.09 117.494 172.007 119.344 172.887 121.219C176.081 128.456 179.571 135.451 181.091 143.476C182.744 152.103 180.816 161.026 175.469 167.759C174.259 169.292 172.897 170.685 171.417 171.936C165.495 176.94 157.677 179.679 149.915 179.886C148.34 179.944 146.76 179.912 145.186 179.796C142.037 179.565 138.911 179.002 135.9 178.146C134.195 177.667 132.521 177.085 130.893 176.4C127.636 175.031 124.561 173.252 121.786 171.078C120.329 169.935 118.963 168.68 117.703 167.305C116.444 165.93 115.291 164.435 114.262 162.817C115.639 166.431 117.614 169.717 120.039 172.619C121.251 174.071 122.576 175.427 123.997 176.683C128.978 181.153 135.078 184.238 141.551 185.795C143.169 186.184 144.811 186.478 146.464 186.674C151.013 187.192 155.648 186.972 160.149 186.069C161.649 185.768 163.134 185.391 164.596 184.94C170.382 183.22 175.841 180.221 180.364 176.209C181.871 174.871 183.272 173.419 184.533 171.857C190.04 165.052 192.689 156.128 192.262 147.447C192.202 145.472 192.002 143.48 191.659 141.485Z" fill="#EAC926"/>
<path d="M130.802 151.539C130.862 149.46 132.43 147.627 134.448 147.265C136.001 146.996 137.46 147.644 138.423 148.905C139.344 150.203 139.592 151.863 139.004 153.352C138.369 155 136.877 156.196 135.146 156.254C133.299 156.305 131.605 155.081 131.034 153.301C130.851 152.754 130.766 152.159 130.802 151.539Z" fill="#300000"/>
<path d="M132.922 151.102C132.958 150.444 133.449 149.935 134.037 149.739C135.053 149.454 136.034 150.395 135.82 151.419C135.711 151.951 135.34 152.39 134.831 152.551C134.282 152.749 133.638 152.596 133.274 152.157C133.03 151.879 132.894 151.505 132.922 151.102Z" fill="white"/>
<path d="M161.402 153.363C161.473 151.392 162.886 149.59 164.756 149.139C167.014 148.63 169.266 150.168 169.781 152.485C170.177 154.234 169.607 156.086 168.235 157.208C166.946 158.215 165.243 158.436 163.826 157.71C162.635 157.078 161.742 155.942 161.484 154.573C161.407 154.185 161.378 153.779 161.402 153.363Z" fill="#300000"/>
<path d="M163.441 152.955C163.456 152.364 163.908 151.853 164.419 151.652C165.126 151.387 165.91 151.779 166.218 152.412C166.524 153.083 166.283 153.914 165.607 154.296C165.013 154.607 164.209 154.559 163.802 154.002C163.556 153.726 163.417 153.355 163.441 152.955Z" fill="white"/>
<path d="M134.326 157.121C133.135 157.209 131.938 157.697 131.248 158.549C130.808 159.094 130.692 159.84 131.102 160.461C131.895 161.666 133.47 162.103 134.856 162.016C135.962 161.947 137.572 161.466 138.144 160.422C138.817 159.194 137.553 157.956 136.512 157.471C135.881 157.177 135.105 157.064 134.326 157.121Z" fill="#FF5C5C"/>
<path d="M134.288 156.944C132.977 157.055 131.226 157.677 130.763 159.057C130.288 160.47 131.704 161.581 132.895 161.963C134.14 162.362 135.534 162.261 136.737 161.765C137.84 161.311 138.899 160.286 138.363 159.006C137.72 157.467 135.875 156.845 134.337 156.94C134.107 156.954 134.083 157.316 134.316 157.302C135.583 157.224 136.855 157.583 137.686 158.592C138.051 159.035 138.282 159.611 138.061 160.175C137.852 160.71 137.342 161.076 136.844 161.32C135.878 161.793 134.737 161.95 133.677 161.779C132.62 161.608 131 160.877 131.031 159.593C131.049 158.841 131.675 158.267 132.281 157.915C132.918 157.546 133.635 157.36 134.364 157.299C134.596 157.279 134.519 156.924 134.288 156.944Z" fill="#FF5C5C"/>
<path d="M165.746 158.98C166.919 159.208 168.05 159.834 168.634 160.762C169.007 161.355 169.035 162.109 168.554 162.678C167.624 163.78 166.009 164.028 164.643 163.779C163.553 163.58 162.01 162.912 161.566 161.808C161.043 160.509 162.444 159.429 163.535 159.07C164.196 158.852 164.98 158.831 165.746 158.98Z" fill="#FF5C5C"/>
<path d="M165.688 159.152C166.826 159.386 168.334 160.059 168.677 161.295C169.059 162.674 167.424 163.473 166.315 163.637C165.222 163.798 164.067 163.569 163.094 163.054C162.136 162.546 161.16 161.517 161.917 160.416C162.755 159.198 164.377 158.914 165.736 159.161C165.965 159.203 165.984 158.84 165.757 158.799C164.335 158.541 162.773 158.852 161.793 159.988C161.398 160.446 161.166 161.043 161.323 161.648C161.475 162.233 161.906 162.699 162.387 163.043C163.432 163.793 164.803 164.135 166.078 164.027C167.285 163.925 168.965 163.244 169.089 161.844C169.239 160.147 167.189 159.093 165.805 158.808C165.579 158.762 165.46 159.105 165.688 159.152Z" fill="#FF5C5C"/>
<path d="M146.551 101.388C143.175 101.892 139.492 105.279 138.631 108.848C138.458 109.562 138.399 110.283 138.478 110.989C138.627 111.717 138.84 112.502 139.511 112.866C143.763 115.508 148.645 110.182 150.279 106.685C151.121 104.882 151.067 102.261 148.797 101.649C148.102 101.375 147.318 101.274 146.551 101.388Z" fill="white"/>
<path d="M135.234 115.335C133.795 115.685 132.601 116.722 131.976 118.094C131.23 119.874 131.084 122.83 133.261 123.359C135.76 123.927 138.003 121.587 138.797 119.265C139.163 118.207 139.07 117.013 138.38 116.087C137.638 115.155 136.399 115.028 135.234 115.335Z" fill="white"/>
<path d="M101.747 120.274C99.8844 120.507 98.0385 120.192 97.4844 118.952C96.5942 116.96 97.957 114.215 96.1274 113.262C92.9907 111.629 89.4673 109.463 89.5275 105.774C89.6327 99.3172 96.1601 95.074 102.289 94.8294C102.971 94.808 103.655 94.8447 104.334 94.9437C108.147 95.533 111.402 97.9585 113.589 101.289C116.542 106.082 112.516 110.498 108.138 112.272C105.503 113.339 107.11 116.061 106.276 117.986C105.607 119.532 103.243 120.086 101.747 120.274Z" fill="#FF9A22"/>
<path d="M101.241 117.825C101.314 115.794 101.398 113.743 101.299 111.712C101.216 109.998 101.109 108.372 100.013 106.972C99.3515 106.127 97.8477 105.103 96.8248 106.007C95.6308 107.061 96.6963 109.033 97.4111 110.006C99.3953 112.707 103.457 112.894 105.985 110.858C106.927 110.1 107.573 108.95 107.267 107.713C106.992 106.603 105.843 105.516 104.701 106.24C103.941 106.721 103.513 107.653 103.227 108.471C102.888 109.437 102.785 110.427 102.687 111.438C102.584 112.492 102.494 113.516 102.522 114.577C102.554 115.752 102.65 116.925 102.64 118.101C102.636 118.496 103.252 118.582 103.255 118.183C103.279 115.335 102.948 112.523 103.529 109.701C103.715 108.798 104.682 105.689 106.067 106.883C106.92 107.619 106.874 108.88 106.241 109.739C105.413 110.863 103.855 111.44 102.519 111.617C101.289 111.78 99.8971 111.375 98.9068 110.639C97.8941 109.885 96.7154 108.341 96.9849 107.01C97.1387 106.25 97.8321 106.186 98.4546 106.458C99.0904 106.737 99.538 107.318 99.8958 107.891C100.697 109.174 100.671 110.863 100.706 112.33C100.749 114.132 100.69 115.942 100.625 117.743C100.611 118.139 101.226 118.224 101.241 117.825Z" fill="#300000"/>
<path d="M99.0997 121.242C98.3526 121.338 97.2363 120.656 97.396 119.818C97.5437 119.042 98.1948 118.697 98.912 118.609C100.195 118.451 101.457 118.39 102.751 118.472C103.43 118.516 104.112 118.562 104.787 118.641C105.588 118.734 106.02 119.187 105.899 120.026C105.68 121.554 103.767 121.302 102.664 121.282C102.637 121.487 102.61 121.692 102.583 121.897C103.654 121.915 106.705 121.728 105.797 123.672C105.196 124.961 103.644 125.244 102.372 125.355C101.123 125.464 99.8022 125.366 98.6577 124.818C98.0566 124.53 97.2843 124.072 97.2135 123.344C97.151 122.699 97.5484 122.06 98.114 121.775C98.4685 121.596 98.2317 121.021 97.8738 121.202C96.4578 121.917 96.1498 123.755 97.4061 124.763C98.8112 125.891 100.715 126.122 102.457 125.97C104.13 125.824 106.064 125.274 106.535 123.432C106.712 122.739 106.307 122.049 105.722 121.684C104.831 121.128 103.664 121.298 102.664 121.282C102.27 121.276 102.183 121.89 102.583 121.897C103.459 121.913 104.272 122.036 105.12 121.73C105.868 121.461 106.41 120.908 106.515 120.107C106.608 119.395 106.4 118.688 105.784 118.278C105.364 117.999 104.88 118.025 104.392 117.982C103.793 117.928 103.193 117.876 102.592 117.842C101.54 117.783 100.546 117.854 99.5036 117.938C98.7348 118 97.8762 118.046 97.3106 118.652C96.7884 119.211 96.5301 120.183 97.0009 120.847C97.4606 121.496 98.3933 121.959 99.1849 121.857C99.5806 121.807 99.4971 121.191 99.0997 121.242Z" fill="#300000"/>
<path d="M94.335 106.342C95.2789 105.973 96.0426 105.115 96.5751 104.275C97.1336 103.393 97.6545 102.355 97.7147 101.28C97.7813 100.09 97.1159 98.7207 95.758 98.8085C93.2615 98.9702 91.8645 101.575 91.5084 103.771C91.3283 104.881 91.7706 106.38 93.1022 106.516C93.5403 106.56 93.9524 106.491 94.335 106.342Z" fill="white"/>
<path d="M86.6205 111.287C86.9215 111.002 87.7262 110.318 87.6835 109.851C87.6025 108.967 86.2706 109.683 85.8614 109.955C85.4589 110.224 84.1114 110.909 84.0298 111.408C83.9393 111.96 84.6268 112.146 85.0657 112.1C85.5719 112.047 86.1441 111.714 86.519 111.381C86.5461 111.357 86.5805 111.325 86.6205 111.287Z" fill="#FFC82E"/>
<path d="M84.3576 105.997C84.7667 105.929 85.8165 105.813 86.0424 105.403C86.4705 104.625 84.9663 104.471 84.4745 104.468C83.9907 104.465 82.4908 104.278 82.1438 104.646C81.7593 105.053 82.225 105.592 82.6144 105.8C83.0634 106.039 83.7239 106.084 84.2212 106.018C84.2571 106.013 84.3033 106.006 84.3576 105.997Z" fill="#FFC82E"/>
<path d="M86.3051 99.8827C86.6919 100.033 87.6548 100.466 88.0581 100.228C88.8224 99.7752 87.6049 98.8786 87.1831 98.6258C86.7681 98.3772 85.5713 97.4537 85.0858 97.5937C84.5475 97.749 84.6747 98.4496 84.9044 98.8264C85.1693 99.261 85.7155 99.6351 86.1772 99.8312C86.2105 99.8454 86.2537 99.8629 86.3051 99.8827Z" fill="#FFC82E"/>
<path d="M117.257 99.721C116.956 100.006 116.151 100.69 116.194 101.157C116.275 102.041 117.607 101.326 118.016 101.053C118.419 100.785 119.766 100.1 119.848 99.6008C119.938 99.048 119.251 98.8625 118.812 98.9085C118.306 98.9614 117.734 99.2944 117.359 99.6275C117.332 99.6516 117.297 99.6831 117.257 99.721Z" fill="#FFC82E"/>
<path d="M119.52 105.011C119.111 105.079 118.061 105.195 117.835 105.606C117.407 106.384 118.911 106.537 119.403 106.54C119.887 106.543 121.387 106.73 121.734 106.362C122.118 105.955 121.653 105.417 121.263 105.209C120.814 104.969 120.154 104.925 119.656 104.991C119.621 104.996 119.574 105.002 119.52 105.011Z" fill="#FFC82E"/>
<path d="M117.573 111.126C117.186 110.976 116.223 110.542 115.82 110.781C115.055 111.233 116.273 112.13 116.695 112.383C117.11 112.631 118.306 113.555 118.792 113.415C119.33 113.26 119.203 112.559 118.973 112.182C118.708 111.748 118.162 111.373 117.701 111.177C117.667 111.163 117.624 111.146 117.573 111.126Z" fill="#FFC82E"/>
<path d="M150.334 159.821C149.243 158.427 147.498 159.242 146.642 160.419C147.578 161.368 148.819 162.006 150.175 161.985C151.564 161.963 152.85 161.331 153.802 160.358C152.832 159.32 151.503 158.61 150.334 159.821Z" fill="#FF5C5C"/>
<path d="M155.263 157.198C155.16 156.742 154.794 156.415 154.23 156.386C153.458 156.347 152.751 156.777 152.011 156.918C150.729 157.163 149.39 157.115 148.131 156.766C147.447 156.576 146.619 156.147 145.899 156.394C144.927 156.728 145.116 158.047 145.477 158.78C145.77 159.376 146.167 159.937 146.642 160.419C147.498 159.242 149.243 158.427 150.334 159.821C151.503 158.61 152.832 159.32 153.802 160.358C154.476 159.67 154.982 158.812 155.237 157.878C155.303 157.636 155.31 157.404 155.263 157.198Z" fill="#300000"/>
</svg>
