<svg width="376" height="401" viewBox="0 0 376 401" fill="none" xmlns="http://www.w3.org/2000/svg">
<path d="M146.809 400.916C142.297 400.916 137.79 400.566 133.311 399.661C129.583 398.906 119.891 397.958 120.649 391.87C120.783 390.791 121.304 389.765 122.279 389.02C124.874 387.044 128.987 386.981 132.045 386.533C135.754 385.989 139.485 385.631 143.221 385.397C145.465 385.252 147.714 385.178 149.964 385.178C155.057 385.178 160.15 385.57 165.17 386.497C166.438 386.728 167.703 386.991 168.968 387.26C172.763 388.06 176.555 388.912 180.388 389.228C182.315 389.386 184.239 389.454 186.161 389.454C193.187 389.454 200.193 388.525 207.204 387.597C214.214 386.67 221.231 385.739 228.28 385.739C229.505 385.739 230.733 385.768 231.961 385.828C240.446 386.249 249.285 386.26 257.415 390.262C259.095 391.091 260.295 392.959 259.137 395.406C257.99 397.832 254.846 398.1 253.036 398.356C244.772 399.521 236.456 399.945 228.151 399.945C225.003 399.945 221.856 399.882 218.715 399.779C207.966 399.419 197.373 396.861 186.675 396.861C183.685 396.861 180.686 397.061 177.674 397.566C176.175 397.816 174.678 398.111 173.183 398.421C164.453 399.579 155.618 400.916 146.809 400.916Z" fill="#F3F3F3"/>
<path d="M220.54 317.864C220.403 319.85 220.277 321.85 220.027 323.85V323.726C220.027 323.976 220.027 324.352 219.975 324.647C219.743 326.997 219.487 329.333 219.21 331.667C218.645 336.398 217.985 341.108 217.259 345.794C215.82 355.117 214.123 364.352 212.385 373.569C211.401 378.79 210.404 384.007 209.431 389.23C209.111 390.949 209.832 393.009 211.088 393.419C212.335 393.827 213.665 392.883 214.007 391.041C217.483 372.383 221.284 353.806 223.631 334.767C223.972 331.977 224.284 329.183 224.561 326.378C224.838 323.576 225.08 320.758 225.284 317.911C225.414 316.114 224.101 314.348 222.912 314.409C221.515 314.472 220.677 315.911 220.54 317.864Z" fill="#300000"/>
<path d="M211.589 391.628C212.125 391.935 212.685 392.22 213.264 392.48C213.842 392.735 214.439 392.967 215.052 393.169C217.263 393.64 220.168 394.311 222.821 394.211C223.487 394.188 224.133 394.114 224.751 393.98C225.203 393.89 225.698 393.764 226.189 393.59C226.68 393.422 227.165 393.212 227.586 392.948C228.986 392.222 228.986 390.599 228.407 389.325C227.596 387.933 226.666 386.77 225.277 386.094C224.908 385.907 224.529 385.749 224.143 385.62C220.673 384.463 216.61 385.623 213.935 388.444C213.699 388.675 213.47 388.917 213.248 389.167C212.98 389.823 212.284 390.17 212.01 390.822C211.854 391.083 211.717 391.349 211.589 391.628Z" fill="#300000"/>
<path d="M210.564 393.377C212.072 394.24 213.694 394.953 215.392 395.314C217.094 395.68 218.806 396.001 220.536 396.164C222.329 396.335 224.14 396.248 225.891 395.798C227.53 395.38 229.445 394.617 230.284 393.038C231.933 389.936 229.407 386.207 226.765 384.597C224.052 382.944 220.501 382.747 217.54 383.792C215.803 384.407 214.222 385.355 212.885 386.623C212.609 386.883 212.343 387.16 212.082 387.439C211.875 387.66 211.656 387.886 211.495 388.144C211.454 388.244 211.403 388.336 211.344 388.428C211.504 388.228 211.51 388.217 211.362 388.386C210.701 389.028 210.228 389.775 209.836 390.601C209.381 391.559 209.539 392.838 210.564 393.377C211.468 393.854 212.855 393.672 213.341 392.651C213.472 392.375 213.616 392.112 213.763 391.849C213.815 391.754 214.098 391.367 213.793 391.725C213.863 391.643 213.938 391.567 214.01 391.491C214.278 391.207 214.533 390.928 214.757 390.607C214.761 390.601 215.006 390.167 214.873 390.396C214.771 390.504 214.796 390.472 214.954 390.307C215.045 390.209 215.136 390.115 215.231 390.02C215.445 389.799 215.659 389.578 215.887 389.37C215.975 389.286 216.066 389.209 216.157 389.128C216.143 389.144 216.599 388.77 216.371 388.949C216.143 389.125 216.613 388.778 216.599 388.788C216.719 388.704 216.845 388.623 216.968 388.544C217.241 388.37 217.526 388.207 217.813 388.06C217.971 387.978 218.129 387.904 218.291 387.831C218.22 387.862 217.926 387.967 218.291 387.831C218.561 387.725 218.835 387.631 219.115 387.546C219.392 387.465 219.673 387.391 219.954 387.336C220.066 387.312 220.182 387.294 220.294 387.273C220.529 387.233 220.519 387.233 220.266 387.27C220.378 387.26 220.491 387.244 220.606 387.239C221.119 387.197 221.631 387.197 222.143 387.241C222.231 387.249 222.772 387.349 222.28 387.252C222.393 387.273 222.505 387.291 222.614 387.315C222.95 387.381 223.28 387.47 223.607 387.578C223.554 387.56 224.178 387.791 223.936 387.694C223.694 387.591 224.301 387.873 224.252 387.849C224.512 387.981 224.761 388.128 225.007 388.291C225.322 388.502 225.063 388.338 225.003 388.286C225.133 388.399 225.259 388.512 225.382 388.631C225.466 388.712 225.543 388.791 225.624 388.875C225.666 388.923 226.052 389.38 225.912 389.202C225.73 388.975 226.077 389.438 226.07 389.428C226.136 389.525 226.203 389.623 226.27 389.725C226.368 389.875 226.456 390.038 226.561 390.188C226.786 390.522 226.6 390.241 226.565 390.144C226.61 390.272 226.821 390.717 226.761 390.864C226.751 390.786 226.74 390.704 226.73 390.62C226.736 390.717 226.743 390.817 226.743 390.914C226.74 390.959 226.74 391.009 226.736 391.059C226.719 391.285 226.726 391.251 226.754 390.943C226.733 390.928 226.715 391.207 226.68 391.217C226.712 391.138 226.743 391.064 226.778 390.988C226.736 391.072 226.687 391.154 226.635 391.233C226.814 390.883 226.74 391.038 226.67 391.154C226.726 391.112 226.782 391.07 226.842 391.03C226.751 391.091 226.659 391.149 226.561 391.199C226.452 391.262 226.347 391.325 226.235 391.385C226.21 391.399 225.638 391.654 226.014 391.501C225.691 391.633 225.357 391.738 225.021 391.83C224.684 391.922 224.347 391.999 224.007 392.064C224.007 392.064 223.322 392.164 223.698 392.122C223.554 392.135 223.407 392.149 223.263 392.159C222.494 392.217 221.722 392.198 220.954 392.143C220.571 392.112 220.189 392.072 219.806 392.022C219.413 391.975 220.28 392.104 219.617 391.996C219.413 391.964 219.206 391.933 219.003 391.896C218.217 391.764 217.434 391.606 216.656 391.441C215.94 391.291 215.269 391.107 214.585 390.849C213.948 390.609 214.746 390.928 214.385 390.767C214.16 390.672 213.936 390.567 213.716 390.459C213.341 390.275 212.975 390.08 212.613 389.872C211.691 389.346 210.351 389.628 209.836 390.601C209.326 391.567 209.579 392.817 210.564 393.377Z" fill="#300000"/>
<path d="M151.724 317.953C151.811 319.127 151.902 320.305 152.001 321.481C152.048 322.037 152.096 322.594 152.146 323.147C152.168 323.397 152.191 323.642 152.214 323.892C152.171 323.436 152.276 324.526 152.288 324.652C152.518 326.997 152.774 329.333 153.053 331.667C153.618 336.398 154.278 341.108 155.002 345.794C156.442 355.117 158.139 364.352 159.877 373.569C160.861 378.79 161.858 384.007 162.831 389.23C163.151 390.949 162.43 393.009 161.174 393.419C159.927 393.827 158.597 392.883 158.254 391.041C154.78 372.383 150.979 353.806 148.632 334.767C148.289 331.977 147.977 329.183 147.701 326.378C147.425 323.576 147.183 320.766 146.978 317.948C146.848 316.174 148.153 314.461 149.342 314.538C150.737 314.627 151.582 316.043 151.724 317.953Z" fill="#300000"/>
<path d="M160.674 391.628C160.137 391.935 159.577 392.22 158.999 392.48C158.42 392.735 157.823 392.967 157.212 393.169C154.999 393.64 152.095 394.311 149.44 394.211C148.776 394.188 148.128 394.114 147.51 393.98C147.06 393.89 146.564 393.764 146.073 393.59C145.583 393.422 145.099 393.212 144.675 392.948C143.276 392.222 143.276 390.599 143.856 389.325C144.668 387.933 145.595 386.77 146.986 386.094C147.353 385.907 147.731 385.749 148.117 385.62C151.589 384.463 155.651 385.623 158.327 388.444C158.563 388.675 158.792 388.917 159.015 389.167C159.282 389.823 159.979 390.17 160.252 390.822C160.407 391.083 160.545 391.349 160.674 391.628Z" fill="#300000"/>
<path d="M161.698 393.377C160.19 394.24 158.568 394.953 156.868 395.314C155.168 395.68 153.457 396.001 151.725 396.164C149.931 396.335 148.121 396.248 146.37 395.798C144.732 395.38 142.818 394.617 141.979 393.038C140.33 389.936 142.854 386.207 145.498 384.597C148.211 382.944 151.76 382.747 154.724 383.792C156.46 384.407 158.04 385.355 159.377 386.623C159.653 386.883 159.919 387.16 160.179 387.439C160.387 387.66 160.606 387.886 160.767 388.144C160.808 388.244 160.858 388.336 160.918 388.428C160.757 388.228 160.752 388.217 160.9 388.386C161.56 389.028 162.034 389.775 162.426 390.601C162.881 391.559 162.723 392.838 161.698 393.377C160.794 393.854 159.407 393.672 158.921 392.651C158.79 392.375 158.646 392.112 158.499 391.849C158.447 391.754 158.164 391.367 158.469 391.725C158.399 391.643 158.324 391.567 158.251 391.491C157.984 391.207 157.73 390.928 157.505 390.607C157.502 390.601 157.258 390.167 157.388 390.396C157.491 390.504 157.464 390.472 157.309 390.307C157.218 390.209 157.126 390.115 157.033 390.02C156.818 389.799 156.601 389.578 156.374 389.37C156.285 389.286 156.195 389.209 156.104 389.128C156.118 389.144 155.661 388.77 155.891 388.949C156.119 389.125 155.65 388.778 155.664 388.788C155.542 388.704 155.419 388.623 155.293 388.544C155.019 388.37 154.737 388.207 154.448 388.06C154.291 387.978 154.131 387.904 153.972 387.831C154.043 387.862 154.336 387.967 153.972 387.831C153.7 387.725 153.427 387.631 153.148 387.546C152.871 387.465 152.591 387.391 152.307 387.336C152.195 387.312 152.081 387.294 151.968 387.273C151.732 387.233 151.742 387.233 151.997 387.27C151.883 387.26 151.77 387.244 151.656 387.239C151.144 387.197 150.63 387.197 150.119 387.241C150.03 387.249 149.489 387.349 149.982 387.252C149.871 387.273 149.758 387.291 149.647 387.315C149.312 387.381 148.981 387.47 148.657 387.578C148.707 387.56 148.085 387.791 148.327 387.694C148.569 387.591 147.962 387.873 148.01 387.849C147.748 387.981 147.502 388.128 147.257 388.291C146.94 388.502 147.199 388.338 147.259 388.286C147.13 388.399 147.001 388.512 146.879 388.631C146.797 388.712 146.717 388.791 146.639 388.875C146.597 388.923 146.21 389.38 146.35 389.202C146.534 388.975 146.186 389.438 146.193 389.428C146.125 389.525 146.058 389.623 145.992 389.725C145.893 389.875 145.805 390.038 145.702 390.188C145.477 390.522 145.662 390.241 145.698 390.144C145.651 390.272 145.441 390.717 145.5 390.864C145.511 390.786 145.522 390.704 145.533 390.62C145.525 390.717 145.52 390.817 145.52 390.914C145.521 390.959 145.522 391.009 145.524 391.059C145.543 391.285 145.537 391.251 145.506 390.943C145.529 390.928 145.546 391.207 145.581 391.217C145.549 391.138 145.517 391.064 145.485 390.988C145.527 391.072 145.574 391.154 145.628 391.233C145.447 390.883 145.522 391.038 145.594 391.154C145.536 391.112 145.478 391.07 145.421 391.03C145.51 391.091 145.602 391.149 145.699 391.199C145.808 391.262 145.916 391.325 146.028 391.385C146.053 391.399 146.624 391.654 146.247 391.501C146.571 391.633 146.906 391.738 147.243 391.83C147.577 391.922 147.916 391.999 148.257 392.064C148.255 392.064 148.939 392.164 148.565 392.122C148.709 392.135 148.855 392.149 149 392.159C149.767 392.217 150.539 392.198 151.306 392.143C151.691 392.112 152.074 392.072 152.456 392.022C152.85 391.975 151.982 392.104 152.643 391.996C152.849 391.964 153.054 391.933 153.259 391.896C154.045 391.764 154.826 391.606 155.605 391.441C156.321 391.291 156.991 391.107 157.677 390.849C158.314 390.609 157.514 390.928 157.877 390.767C158.102 390.672 158.326 390.567 158.546 390.459C158.921 390.275 159.287 390.08 159.649 389.872C160.571 389.346 161.911 389.628 162.426 390.601C162.936 391.567 162.683 392.817 161.698 393.377Z" fill="#300000"/>
<path d="M368.97 280.637C369.233 279.648 369.409 278.761 369.409 277.782C369.509 276.856 369.591 275.932 369.646 275.006C369.83 268.149 369.414 261.339 367.404 254.708C367.214 254.104 367.012 253.504 366.798 252.911C365.446 249.157 363.556 245.642 361.693 242.127C360.656 240.18 359.661 238.211 358.635 236.261C358.106 235.258 357.577 234.254 357.051 233.247C356.503 232.198 356.287 231.075 355.882 229.974C354.682 226.753 352.558 223.743 349.84 221.631C347.303 219.663 344.116 218.632 340.916 219.242C340.145 219.389 339.397 219.631 338.676 219.941C337.771 220.326 337.103 221.01 336.476 221.761C335.497 222.933 334.758 224.326 334.389 225.81C333.666 228.711 334.418 231.654 336.495 233.812C338.292 235.679 341.003 236.763 342.371 239.025C343.25 240.478 343.045 242.281 342.887 243.899C342.676 246.084 342.192 248.256 341.895 250.431C341.387 254.188 342.134 257.96 343.208 261.552C343.403 262.208 343.59 262.892 343.798 263.573C343.64 263.418 343.471 263.268 343.292 263.123C342.253 262.31 341.063 261.721 339.832 261.261C337.221 260.289 334.287 259.721 331.502 259.707C325.102 259.682 318.834 261.798 314.125 266.212C313.312 266.889 312.599 267.667 311.812 268.37C311.144 268.965 310.507 269.544 309.965 270.265C308.809 271.793 308.186 273.564 307.83 275.432C307.159 278.979 307.844 283.247 310.212 286.094C311.281 287.373 312.704 288.473 314.023 289.483C315.41 290.546 316.881 291.499 318.412 292.346C321.431 294.009 324.684 295.251 328.031 296.064C330.75 296.727 333.534 297.124 336.329 297.253C337.729 297.319 339.134 297.319 340.534 297.256C341.324 297.271 342.108 297.24 342.884 297.169C343.663 297.103 344.434 296.993 345.208 296.861C351.232 295.751 357.33 294.275 362.882 291.246C363.517 290.851 364.119 290.409 364.683 289.894C365.24 289.38 365.756 288.794 366.214 288.12C366.656 287.549 367.051 286.941 367.391 286.297C368.072 285.013 368.527 283.592 368.696 282.068C368.793 281.574 368.883 281.095 368.97 280.637Z" fill="#F2D633"/>
<path d="M360.948 282.3C359.235 283.863 357.274 285.052 355.166 285.97C354.461 286.276 353.74 286.549 353.011 286.794C352.282 287.044 351.537 287.265 350.782 287.462C347.653 288.278 344.379 288.688 341.25 288.938C340.624 288.991 340.003 289.033 339.392 289.073C334.118 288.525 328.326 286.557 326.284 281.455C323.207 274.122 329.884 266.402 336.492 263.613C337.255 263.36 338.039 263.186 338.832 263.107C340.413 262.949 342.042 263.163 343.661 263.847C338.695 259.556 331.473 259.244 325.355 260.366C324.66 260.521 323.976 260.707 323.297 260.917C319.918 261.973 316.776 263.729 314.125 266.212C313.312 266.889 312.599 267.667 311.812 268.37C311.144 268.965 310.507 269.544 309.965 270.265C308.809 271.793 308.186 273.564 307.83 275.432C307.159 278.979 307.844 283.247 310.212 286.094C311.281 287.373 312.704 288.473 314.023 289.483C315.41 290.546 316.881 291.499 318.412 292.346C321.431 294.009 324.684 295.251 328.031 296.064C330.75 296.727 333.534 297.124 336.329 297.253C337.729 297.319 339.134 297.319 340.534 297.256C341.324 297.271 342.108 297.243 342.887 297.179C343.666 297.114 344.442 297.014 345.213 296.893C351.424 295.695 357.632 294.609 362.956 291.283C363.58 290.875 364.169 290.425 364.704 289.909C365.235 289.399 365.717 288.815 366.127 288.16C366.559 287.573 366.948 286.947 367.296 286.289C367.991 284.973 368.506 283.536 368.812 282.021C368.969 281.308 369.093 280.592 369.188 279.879C369.283 279.171 369.351 278.469 369.409 277.782C369.509 276.856 369.591 275.932 369.651 275.011C370.359 267.794 369.393 260.507 366.956 253.848C366.685 253.111 366.393 252.378 366.088 251.655C365.738 250.796 365.369 249.943 364.998 249.098C364.622 248.252 364.24 247.417 363.851 246.589C363.451 245.747 363.043 244.909 362.63 244.077C361.801 242.411 360.959 240.769 360.124 239.145C360.369 240.106 360.603 241.068 360.832 242.028C361.061 242.99 361.277 243.951 361.485 244.912C361.73 245.867 361.967 246.824 362.19 247.782C362.411 248.74 362.622 249.698 362.819 250.656C362.959 251.452 363.096 252.252 363.232 253.059C363.577 254.648 363.885 256.258 364.138 257.879C364.264 258.689 364.377 259.503 364.472 260.317C364.788 262.83 364.798 265.134 364.832 267.686C364.811 268.502 364.767 269.32 364.698 270.133C364.488 272.58 364.056 275.003 363.34 277.382C363.077 278.263 362.772 279.137 362.43 280.003C362.022 280.824 361.535 281.595 360.948 282.3Z" fill="#EAC926"/>
<path d="M7.79618 291.62C7.47371 290.646 7.24598 289.77 7.18739 288.794C7.02703 287.875 6.88983 286.96 6.7786 286.041C6.17999 279.205 6.18104 272.383 7.7846 265.644C7.93618 265.028 8.1011 264.418 8.279 263.813C9.39905 259.984 11.0735 256.36 12.722 252.736C13.6357 250.733 14.5098 248.709 15.4161 246.698C15.8828 245.663 16.3512 244.628 16.8137 243.593C17.2958 242.513 17.4411 241.376 17.7828 240.253C18.7836 236.966 20.7191 233.833 23.3055 231.56C25.7193 229.441 28.8369 228.22 32.0693 228.634C32.8459 228.732 33.6086 228.928 34.3454 229.191C35.2728 229.521 35.981 230.167 36.6516 230.875C37.6998 231.988 38.5232 233.331 38.983 234.791C39.8804 237.643 39.3082 240.625 37.3671 242.905C35.687 244.877 33.0433 246.126 31.8163 248.466C31.0296 249.971 31.343 251.757 31.5967 253.364C31.9395 255.532 32.5577 257.669 32.9851 259.823C33.722 263.542 33.2059 267.352 32.3511 271.004C32.1949 271.67 32.05 272.364 31.8851 273.056C32.0356 272.896 32.1921 272.733 32.3648 272.58C33.3493 271.701 34.5017 271.043 35.7023 270.509C38.2485 269.38 41.1446 268.633 43.9234 268.454C50.3097 268.036 56.6931 269.77 61.6616 273.888C62.5164 274.517 63.2743 275.248 64.1028 275.901C64.807 276.456 65.4757 276.995 66.0621 277.679C67.3084 279.137 68.0408 280.866 68.5061 282.708C69.3895 286.205 68.9674 290.509 66.7755 293.493C65.7884 294.835 64.4333 296.022 63.1799 297.108C61.8598 298.256 60.4492 299.298 58.9723 300.232C56.0607 302.076 52.8879 303.513 49.597 304.528C46.9235 305.357 44.1687 305.923 41.3846 306.22C39.9925 306.37 38.5929 306.454 37.1908 306.481C36.4031 306.544 35.6189 306.56 34.8375 306.536C34.0567 306.515 33.2788 306.454 32.5019 306.368C26.421 305.628 20.2447 304.523 14.5175 301.839C13.8609 301.484 13.2311 301.076 12.6409 300.597C12.0511 300.118 11.5009 299.566 11.0016 298.919C10.5265 298.379 10.0945 297.792 9.7159 297.172C8.95903 295.93 8.41655 294.54 8.15548 293.033C8.02846 292.541 7.91163 292.067 7.79618 291.62Z" fill="#F2D633"/>
<path d="M15.9059 292.791C17.7078 294.246 19.7401 295.317 21.9005 296.103C22.6209 296.361 23.3553 296.593 24.1003 296.798C24.8452 297 25.601 297.172 26.3632 297.324C29.5391 297.95 32.8322 298.161 35.9702 298.221C36.5979 298.232 37.2192 298.24 37.8324 298.242C43.0631 297.371 48.7243 295.061 50.452 289.844C53.0798 282.337 45.9445 275.032 39.1803 272.654C38.4021 272.446 37.6113 272.322 36.8155 272.291C35.2239 272.227 33.6112 272.541 32.0384 273.322C36.7344 268.738 43.9247 267.986 50.1004 268.733C50.8018 268.849 51.4976 268.991 52.1855 269.159C55.6246 270.007 58.8668 271.57 61.6616 273.888C62.5164 274.517 63.2746 275.248 64.1028 275.901C64.807 276.456 65.4757 276.995 66.062 277.679C67.3084 279.137 68.0408 280.866 68.5061 282.708C69.3895 286.205 68.9674 290.509 66.7755 293.493C65.7886 294.835 64.4333 296.022 63.1798 297.108C61.8598 298.256 60.4492 299.298 58.9723 300.232C56.0606 302.076 52.8879 303.513 49.597 304.528C46.9235 305.357 44.1687 305.923 41.3846 306.22C39.9925 306.37 38.5932 306.455 37.191 306.481C36.4031 306.544 35.6181 306.56 34.8357 306.544C34.0536 306.528 33.2743 306.476 32.4948 306.399C26.2232 305.586 19.9629 304.876 14.4456 301.876C13.7985 301.513 13.1848 301.097 12.6209 300.618C12.0567 300.134 11.5419 299.587 11.0907 298.956C10.6254 298.392 10.1973 297.792 9.811 297.158C9.03902 295.885 8.43727 294.482 8.03725 292.991C7.83759 292.285 7.67337 291.58 7.53336 290.878C7.39581 290.178 7.28213 289.478 7.18739 288.794C7.02703 287.875 6.88948 286.96 6.7758 286.044C5.62839 278.884 6.15086 271.551 8.17795 264.76C8.40497 264.005 8.6499 263.258 8.91236 262.513C9.21063 261.633 9.52328 260.759 9.84574 259.896C10.1682 259.03 10.5001 258.171 10.8366 257.321C11.1854 256.455 11.5423 255.595 11.904 254.739C12.6279 253.027 13.3718 251.336 14.1059 249.666C13.9196 250.641 13.742 251.613 13.5736 252.585C13.4048 253.56 13.2455 254.532 13.096 255.504C12.909 256.472 12.7321 257.44 12.5679 258.412C12.4034 259.381 12.2514 260.349 12.1139 261.321C12.024 262.121 11.9353 262.928 11.8493 263.742C11.5998 265.349 11.39 266.976 11.2374 268.607C11.1609 269.425 11.0988 270.244 11.0531 271.064C10.8882 273.59 11.0198 275.89 11.1398 278.437C11.2103 279.253 11.304 280.066 11.4226 280.876C11.7788 283.305 12.3574 285.697 13.216 288.025C13.5343 288.888 13.8908 289.746 14.2883 290.588C14.7428 291.383 15.2775 292.12 15.9059 292.791Z" fill="#EAC926"/>
<path d="M200.479 1.49867C199.875 0.0181587 197.959 -0.381803 196.826 0.747873C189.406 8.1504 165.85 27.0146 163.189 29.4564C150.262 41.3109 137.987 53.8777 126.432 67.0725C108.573 87.4664 91.3598 109.821 77.4693 133.948C70.5238 146.01 64.4083 158.517 59.4518 171.438C45.3695 207.282 40.5522 248.049 55.1148 284.826C65.5115 310.954 83.8785 331.956 108.842 346.415C152.005 371.541 202.649 370.591 246.537 351.533C280.072 336.924 308.21 310.072 320.155 275.448C324.586 263.068 327.108 249.989 327.6 236.587C328.087 223.182 326.544 209.454 322.834 195.771C315.023 166.937 296.83 140.473 278.272 117.484C253.404 86.7786 227.912 59.7858 211.488 25.292C207.508 17.6299 203.833 9.73619 200.479 1.49867Z" fill="#F2D633"/>
<path d="M322.905 195.147C320.357 184.822 316.578 175.181 311.546 165.873C308.691 160.569 305.622 155.45 302.386 150.472C299.146 145.494 295.738 140.656 292.201 135.902C285.78 127.517 279.079 119.294 272.311 111.105C265.545 102.917 258.716 94.7636 252.036 86.5155C231.94 62.0766 213.38 36.1608 202.013 6.19276C203.082 29.8529 209.699 52.6462 219.277 73.7874C224.056 84.4736 229.558 94.8618 235.495 104.938C241.162 114.859 247.084 124.668 252.842 134.572C258.601 144.476 264.197 154.475 269.216 164.775C271.442 169.238 274.008 173.339 275.545 177.665C278.114 183.394 280.437 189.197 282.422 195.084C296.717 232.581 290.096 278.424 260.506 306.976C255.752 311.778 250.544 316.127 244.986 320C228.316 331.614 208.486 338.921 188.323 341.276C182.871 341.963 177.374 342.345 171.872 342.437C160.866 342.616 149.839 341.634 139.116 339.598C133.047 338.469 127.054 336.966 121.186 335.101C109.451 331.362 98.2208 326.141 87.9081 319.461C82.49 315.945 77.3566 312.017 72.5544 307.633C67.7537 303.252 63.2838 298.421 59.2079 293.125C65.1165 305.242 72.9975 316.032 82.3213 325.355C86.9828 330.015 92.0058 334.309 97.3294 338.227C116.017 352.193 138.158 361.003 161.12 364.392C166.86 365.242 172.652 365.749 178.453 365.915C194.41 366.297 210.437 364.086 225.782 359.55C230.898 358.037 235.937 356.266 240.874 354.246C245.762 352.301 250.551 350.088 255.218 347.618C259.881 345.152 264.418 342.429 268.798 339.471C309.281 313.38 334.271 264.192 327.042 215.832C326.192 208.938 324.813 202.027 322.905 195.147Z" fill="#EAC926"/>
<path d="M113.126 248.817C112.684 241.583 117.558 234.731 124.454 232.847C129.76 231.426 135.029 233.223 138.764 237.299C142.369 241.52 143.745 247.203 142.17 252.561C140.477 258.476 135.67 263.093 129.675 263.834C123.28 264.586 117.015 260.865 114.479 254.865C113.672 253.024 113.194 250.982 113.126 248.817Z" fill="#300000"/>
<path d="M120.47 246.638C120.39 244.341 121.937 242.421 123.916 241.558C127.353 240.253 131.054 243.214 130.629 246.838C130.419 248.715 129.265 250.354 127.549 251.077C125.703 251.932 123.42 251.603 122.02 250.189C121.087 249.301 120.496 248.045 120.47 246.638Z" fill="white"/>
<path d="M219.943 245.618C219.575 238.752 223.919 232.058 230.273 229.907C237.951 227.441 246.249 232.075 248.765 239.959C250.685 245.909 249.278 252.515 244.863 256.837C240.705 260.735 234.86 262.033 229.715 259.952C225.378 258.128 221.926 254.462 220.603 249.792C220.217 248.47 219.989 247.07 219.943 245.618Z" fill="#300000"/>
<path d="M227.014 243.562C226.88 241.502 228.295 239.59 230.007 238.734C232.379 237.594 235.221 238.71 236.488 240.811C237.758 243.046 237.179 246.004 234.954 247.544C232.986 248.807 230.182 248.891 228.593 247.084C227.656 246.2 227.052 244.958 227.014 243.562Z" fill="white"/>
<path d="M127.101 267.099C122.991 267.775 118.987 269.844 116.859 273.017C115.499 275.045 115.329 277.669 116.945 279.7C120.076 283.634 125.68 284.663 130.466 283.929C134.284 283.342 139.726 281.174 141.386 277.372C143.339 272.898 138.563 268.994 134.797 267.633C132.516 266.807 129.786 266.657 127.101 267.099Z" fill="#FF5C5C"/>
<path d="M126.914 266.497C122.396 267.289 116.511 269.993 115.331 274.93C114.123 279.982 119.387 283.4 123.641 284.352C128.088 285.352 132.894 284.568 136.917 282.473C140.605 280.55 143.965 276.664 141.706 272.383C138.991 267.244 132.391 265.66 127.082 266.468C126.287 266.591 126.316 267.854 127.12 267.731C131.496 267.065 136.023 267.917 139.224 271.159C140.629 272.583 141.61 274.511 141.02 276.537C140.46 278.458 138.804 279.89 137.152 280.889C133.946 282.834 130.031 283.736 126.299 283.473C122.573 283.21 116.722 281.174 116.43 276.706C116.259 274.09 118.251 271.906 120.248 270.496C122.342 269.015 124.775 268.144 127.287 267.702C128.085 267.562 127.707 266.354 126.914 266.497Z" fill="#FF5C5C"/>
<path d="M236.775 263.765C240.919 264.192 245.042 266.012 247.358 269.049C248.839 270.993 249.169 273.601 247.681 275.727C244.793 279.845 239.263 281.205 234.442 280.768C230.593 280.416 225.031 278.579 223.143 274.885C220.922 270.541 225.449 266.352 229.126 264.765C231.354 263.805 234.07 263.486 236.775 263.765Z" fill="#FF5C5C"/>
<path d="M236.628 264.381C240.653 264.836 246.099 266.702 247.674 270.888C249.432 275.559 244 278.842 240.2 279.753C236.46 280.655 232.375 280.221 228.838 278.732C225.351 277.266 221.642 274.001 223.929 269.941C226.459 265.455 232 263.963 236.796 264.397C237.604 264.471 237.558 263.205 236.758 263.134C231.74 262.678 226.41 264.247 223.364 268.496C222.133 270.207 221.515 272.354 222.249 274.403C222.958 276.39 224.6 277.874 226.379 278.919C230.242 281.192 235.109 281.958 239.502 281.184C243.66 280.453 249.281 277.564 249.274 272.667C249.267 266.728 241.821 263.707 236.926 263.152C236.126 263.061 235.821 264.289 236.628 264.381Z" fill="#FF5C5C"/>
<path d="M152.181 69.809C140.615 72.6086 128.882 85.5156 127.004 98.1737C126.628 100.703 126.647 103.226 127.14 105.654C127.884 108.134 128.871 110.793 131.313 111.846C146.901 119.694 162.191 99.6822 166.773 87.0349C169.136 80.5129 168.132 71.4298 160.061 70.0124C157.563 69.2793 154.807 69.1741 152.181 69.809Z" fill="white"/>
<path d="M117.232 121.75C112.343 123.412 108.522 127.387 106.778 132.345C104.744 138.758 105.156 149.065 112.881 150.223C121.736 151.416 128.794 142.592 130.826 134.285C131.769 130.496 131.073 126.381 128.391 123.381C125.523 120.378 121.18 120.322 117.232 121.75Z" fill="white"/>
<path d="M183.393 267.196C179.171 262.696 173.366 266.07 170.759 270.425C174.306 273.427 178.812 275.256 183.515 274.759C188.331 274.248 192.601 271.656 195.603 267.983C191.91 264.681 187.075 262.629 183.393 267.196Z" fill="#FF5C5C"/>
<path d="M199.69 256.556C199.19 255.006 197.818 253.985 195.849 254.062C193.159 254.164 190.836 255.876 188.312 256.598C183.936 257.847 179.271 258.097 174.791 257.279C172.357 256.834 169.351 255.599 166.927 256.683C163.654 258.146 164.724 262.664 166.203 265.097C167.407 267.075 168.96 268.899 170.759 270.425C173.366 266.07 179.171 262.696 183.393 267.196C187.075 262.629 191.91 264.681 195.603 267.983C197.727 265.384 199.217 262.247 199.811 258.924C199.966 258.061 199.917 257.255 199.69 256.556Z" fill="#300000"/>
</svg>
