<svg width="400" height="420" viewBox="0 0 400 420" fill="none" xmlns="http://www.w3.org/2000/svg">
<path d="M204.105 400.742C204.529 399.076 205.565 398.103 207.341 397.897C215.047 397 222.007 393.908 228.812 390.438C231.366 389.136 233.402 387.179 234.558 384.451C237.181 378.264 234.928 372.188 231.203 367.652L237.116 366.647C237.87 368.06 238.649 369.522 239.384 371.003C243.482 379.255 240.098 390.495 231.986 394.772C227.855 396.946 223.467 398.647 219.138 400.416C216.891 401.332 214.514 401.929 212.058 402.712C212.42 403.239 212.696 403.62 212.949 404.011C214.221 405.989 214.986 408.065 214.587 410.503C214.156 413.133 211.956 415.799 209.761 416.098C207.464 416.408 205.065 414.728 203.92 412.016C202.319 408.231 203.149 404.484 204.105 400.742Z" fill="#300000"/>
<path d="M190.583 400.397C190.04 398.766 188.931 397.872 187.149 397.796C179.399 397.47 172.225 394.902 165.181 391.946C162.54 390.837 160.366 389.035 159.011 386.402C155.939 380.424 157.736 374.196 161.116 369.397L155.145 368.832C154.5 370.296 153.83 371.807 153.203 373.342C149.729 381.875 153.935 392.837 162.341 396.5C166.62 398.361 171.12 399.739 175.569 401.179C177.873 401.929 180.29 402.348 182.797 402.948C182.475 403.5 182.229 403.897 182.007 404.307C180.884 406.375 180.276 408.5 180.852 410.902C181.475 413.495 183.866 415.992 186.076 416.125C188.392 416.266 190.66 414.413 191.602 411.625C192.92 407.731 191.815 404.057 190.583 400.397Z" fill="#300000"/>
<path d="M214.297 415.535C215.935 412.696 216.051 409.025 214.895 405.992C214.217 404.217 213.203 402.609 211.859 401.261C211.58 400.981 211.29 400.712 210.996 400.451C210.764 400.242 210.522 400.022 210.254 399.861C210.167 399.829 210.087 399.785 210.011 399.739L210 399.731C209.319 399.065 208.536 398.598 207.674 398.212C207.605 398.179 207.533 398.152 207.46 398.13C206.993 397.951 206.486 397.929 206.029 398.068C205.526 398.201 205.083 398.514 204.826 399.033C203.975 400.611 203.279 402.304 202.946 404.068C202.612 405.829 202.323 407.603 202.199 409.397C202.069 411.253 202.203 413.12 202.71 414.916C203.181 416.598 204.022 418.554 205.67 419.38C208.917 421.003 212.699 418.304 214.297 415.535Z" fill="#300000"/>
<path d="M180.471 415.535C178.833 412.696 178.717 409.025 179.873 405.992C180.551 404.217 181.565 402.609 182.909 401.261C183.188 400.981 183.478 400.712 183.771 400.451C184.007 400.242 184.25 400.022 184.518 399.861C184.601 399.829 184.681 399.785 184.761 399.739L184.772 399.731C185.449 399.065 186.232 398.598 187.094 398.212C187.163 398.179 187.235 398.152 187.308 398.13C187.775 397.951 188.282 397.929 188.743 398.068C189.243 398.201 189.685 398.514 189.942 399.033C190.797 400.611 191.493 402.304 191.822 404.068C192.156 405.829 192.445 407.603 192.569 409.397C192.699 411.253 192.565 413.12 192.061 414.916C191.587 416.598 190.75 418.554 189.098 419.38C185.855 421.003 182.068 418.304 180.471 415.535Z" fill="#300000"/>
<path d="M38.54 300.516C40.3987 298.937 41.9057 296.973 42.8226 294.677C43.7392 292.383 44.0544 289.848 43.54 287.418C43.0435 285.076 41.7791 282.753 39.953 281.185C38.4166 279.864 35.6231 278.408 34.9057 281.307C34.703 282.114 34.8878 282.981 35.25 283.734C36.1921 285.696 37.6305 287.024 37.8405 289.326C38.0218 291.288 37.3478 293.253 35.9275 294.633C35.0978 295.44 34.25 296.079 33.3987 296.522C32.5508 296.959 31.6992 297.198 30.8622 297.206C28.047 297.228 25.645 293.984 24.8913 291.592C23.8044 288.141 25.2971 285.652 27.8514 283.416C29.29 282.158 29.75 280.524 28.5362 278.927C28.3731 278.709 28.1883 278.524 27.9856 278.375C26.9711 277.636 25.5145 277.774 24.0797 278.742C23.2319 279.315 22.4783 279.929 21.8224 280.581C18.6159 283.774 17.6486 288.611 18.25 293C15.9022 290.633 13.6775 288.264 11.5326 285.717C10.4094 284.38 8.10146 282.296 6.27176 283.723C4.73553 284.918 5.53986 287.272 6.31159 288.663C8.22825 292.103 11.2971 294.603 14.1703 297.212C14.4493 297.47 14.7283 297.731 15.0036 297.989C15.2826 298.253 15.558 298.511 15.837 298.772C15.5218 298.745 15.2102 298.706 14.9058 298.658C14.5979 298.611 14.2971 298.557 13.9928 298.5C11.6775 298.06 9.64132 297.408 7.42757 296.576C5.81888 295.973 3.89496 295.1 2.1341 295.413C0.481928 295.701 -0.239129 297.761 0.641306 299.133C1.68478 300.764 4.32249 301.766 6.05075 302.386C9.69206 303.696 13.4783 304.696 17.3225 305.155C22.1957 305.739 27.3949 305.622 32.0943 304.087C34.4313 303.326 36.6631 302.12 38.54 300.516Z" fill="#300000"/>
<path d="M67.0796 291.565C65.21 294.446 63.4856 297.446 61.3878 300.152C58.3187 304.111 54.1557 305.185 49.4421 303.609C46.0217 302.467 42.6883 301.068 39.047 299.679C36.7356 301.288 34.1992 302.435 31.4057 303.245C32.297 303.285 33.1848 303.359 34.0725 303.5C36.4927 303.886 38.6196 305.081 40.8478 306C43.3731 307.038 45.9383 307.992 48.5508 308.783C55.884 311.003 61.7427 308.331 66.297 302.576C67.9312 300.505 69.2356 298.179 70.6231 295.918L68.1486 289.234C67.9456 290.005 67.5943 290.774 67.0796 291.565Z" fill="#300000"/>
<path d="M361.489 300.516C359.633 298.937 358.122 296.973 357.207 294.677C356.294 292.383 355.976 289.848 356.489 287.418C356.986 285.076 358.25 282.753 360.076 281.185C361.611 279.864 364.405 278.408 365.128 281.307C365.326 282.114 365.141 282.981 364.783 283.734C363.837 285.696 362.399 287.024 362.188 289.326C362.008 291.288 362.682 293.253 364.101 294.633C364.932 295.44 365.78 296.079 366.63 296.522C367.481 296.959 368.334 297.198 369.171 297.206C371.981 297.228 374.383 293.984 375.139 291.592C376.228 288.141 374.731 285.652 372.177 283.416C370.742 282.158 370.28 280.524 371.492 278.927C371.66 278.709 371.845 278.524 372.046 278.375C373.057 277.636 374.519 277.774 375.948 278.742C376.796 279.315 377.552 279.929 378.207 280.581C381.413 283.774 382.38 288.611 381.783 293C384.13 290.633 386.351 288.264 388.497 285.717C389.622 284.38 391.927 282.296 393.761 283.723C395.294 284.918 394.489 287.272 393.717 288.663C391.804 292.103 388.731 294.603 385.861 297.212C385.579 297.47 385.304 297.731 385.024 297.989C384.75 298.253 384.47 298.511 384.196 298.772C384.511 298.745 384.818 298.706 385.128 298.658C385.432 298.611 385.736 298.557 386.035 298.5C388.351 298.06 390.389 297.408 392.606 296.576C394.215 295.973 396.133 295.1 397.894 295.413C399.546 295.701 400.272 297.761 399.389 299.133C398.345 300.764 395.707 301.766 393.981 302.386C390.337 303.696 386.552 304.696 382.707 305.155C377.834 305.739 372.633 305.622 367.938 304.087C365.601 303.326 363.367 302.12 361.489 300.516Z" fill="#300000"/>
<path d="M332.948 291.565C334.818 294.446 336.546 297.446 338.644 300.152C341.709 304.111 345.872 305.185 350.587 303.609C354.008 302.467 357.345 301.068 360.981 299.679C363.296 301.288 365.834 302.435 368.622 303.245C367.731 303.285 366.845 303.359 365.959 303.5C363.541 303.886 361.413 305.081 359.182 306C356.655 307.038 354.09 307.992 351.478 308.783C344.144 311.003 338.285 308.331 333.736 302.576C332.101 300.505 330.793 298.179 329.405 295.918L331.883 289.234C332.087 290.005 332.437 290.774 332.948 291.565Z" fill="#300000"/>
<path d="M223.674 1.59409C223.098 0.0458745 221.13 -0.425481 219.927 0.705769C212.036 8.11692 187.13 26.8659 184.308 29.3025C170.594 41.1443 157.533 53.7405 145.192 67.0074C126.12 87.5147 107.652 110.067 92.5582 134.552C85.0109 146.796 78.3082 159.523 72.7864 172.714C57.1269 209.302 50.8734 251.26 64.75 289.712C74.6595 317.024 92.9565 339.302 118.268 355.019C162.029 382.329 214.326 382.94 260.221 364.63C295.291 350.592 325.177 323.739 338.59 288.348C343.554 275.698 346.568 262.267 347.497 248.435C348.421 234.606 347.258 220.375 343.859 206.122C336.704 176.093 318.758 148.182 300.323 123.852C275.622 91.3508 250.16 62.6671 234.29 26.5215C230.42 18.4831 226.877 10.209 223.674 1.59409Z" fill="#F2D633"/>
<path d="M342.296 205.358C335.544 169.169 310.997 140.959 288.978 113.079C284.717 107.608 280.492 102.111 276.348 96.5606C255.623 68.8068 236.873 39.7163 225.152 6.93359C225.688 32.7815 232.091 56.8323 241.66 80.0098C244.051 85.8032 246.638 91.5424 249.38 97.2562C252.59 103.981 256.094 110.524 259.688 117.021C263.286 123.517 266.971 129.974 270.533 136.524C283.552 161.85 297.579 186.245 304.742 214.756C312.522 245.405 307.489 277.883 289.707 303.212C285.688 308.978 281.087 314.272 276.035 319.082C255.819 338.321 228.308 349.829 200.46 352.223C194.815 352.764 189.127 352.984 183.446 352.905C172.083 352.745 160.732 351.386 149.728 348.948C143.5 347.592 137.363 345.859 131.366 343.742C119.37 339.514 107.942 333.774 97.5109 326.554C92.0291 322.753 86.8514 318.538 82.0326 313.864C77.2174 309.19 72.7535 304.06 68.7139 298.467C74.4313 311.158 82.2283 322.546 91.5579 332.462C96.2247 337.418 101.272 342.011 106.645 346.223C125.493 361.228 148.069 371.014 171.66 375.234C177.558 376.288 183.518 376.995 189.504 377.348C205.96 378.242 222.569 376.467 238.551 372.264C243.877 370.864 249.134 369.196 254.29 367.264C274.715 359.853 293.696 347.913 309.095 332.535C314.228 327.408 318.948 321.891 323.152 316.011C341.489 290.383 349.117 257.756 345.731 226.651C345.098 219.568 343.957 212.455 342.296 205.358Z" fill="#EAC926"/>
<path d="M139.602 269.176C135.341 269.749 131.142 271.756 128.848 274.967C127.381 277.016 127.123 279.72 128.725 281.87C131.833 286.027 137.587 287.261 142.547 286.655C146.507 286.174 152.192 284.1 154.026 280.228C156.181 275.674 151.373 271.492 147.529 269.97C145.203 269.049 142.388 268.807 139.602 269.176Z" fill="#FF5C5C"/>
<path d="M139.431 268.55C134.743 269.227 128.583 271.831 127.21 276.894C125.804 282.068 131.13 285.761 135.489 286.88C140.051 288.049 145.033 287.391 149.25 285.353C153.12 283.489 156.71 279.579 154.511 275.09C151.87 269.698 145.109 267.858 139.601 268.524C138.779 268.626 138.768 269.934 139.601 269.832C144.141 269.281 148.786 270.3 151.989 273.75C153.395 275.264 154.344 277.285 153.674 279.359C153.036 281.326 151.279 282.75 149.543 283.731C146.174 285.636 142.105 286.44 138.261 286.054C134.424 285.666 128.449 283.38 128.29 278.761C128.196 276.057 130.319 273.861 132.424 272.467C134.63 271.006 137.17 270.184 139.775 269.807C140.605 269.687 140.254 268.43 139.431 268.55Z" fill="#FF5C5C"/>
<path d="M252.906 269.176C257.167 269.749 261.362 271.756 263.659 274.967C265.127 277.016 265.384 279.72 263.783 281.87C260.674 286.027 254.92 287.261 249.96 286.655C246 286.174 240.315 284.1 238.482 280.228C236.326 275.674 241.134 271.492 244.978 269.97C247.304 269.049 250.12 268.807 252.906 269.176Z" fill="#FF5C5C"/>
<path d="M252.732 269.555C256.87 270.162 262.431 272.291 263.928 276.72C265.594 281.668 259.888 284.932 255.935 285.769C252.043 286.592 247.844 286.008 244.239 284.337C240.688 282.69 236.96 279.149 239.449 274.976C242.199 270.36 247.968 268.971 252.906 269.581C253.736 269.68 253.729 268.358 252.906 268.255C247.739 267.619 242.189 269.092 238.91 273.443C237.591 275.196 236.884 277.424 237.576 279.595C238.246 281.698 239.895 283.299 241.696 284.454C245.613 286.957 250.612 287.91 255.17 287.242C259.482 286.611 265.377 283.764 265.526 278.636C265.703 272.418 258.113 269.019 253.076 268.28C252.257 268.159 251.902 269.434 252.732 269.555Z" fill="#FF5C5C"/>
<path d="M171.681 70.5951C159.656 73.1356 147.141 86.1704 144.808 99.2557C144.341 101.873 144.279 104.49 144.71 107.031C145.402 109.63 146.337 112.421 148.823 113.592C164.667 122.234 181.076 101.935 186.203 88.9443C188.844 82.2446 188.094 72.7823 179.808 71.0581C177.254 70.2125 174.413 70.0155 171.681 70.5951Z" fill="white"/>
<path d="M133.982 123.122C128.884 124.698 124.815 128.715 122.859 133.822C120.558 140.439 120.66 151.187 128.594 152.638C137.696 154.163 145.261 145.195 147.616 136.608C148.71 132.689 148.12 128.383 145.446 125.173C142.58 121.952 138.102 121.758 133.982 123.122Z" fill="white"/>
<path d="M212.196 267.5C211.453 265.148 208.301 264.6 206.801 266.574C206.065 267.544 206.062 269.12 205.688 270.263C205.054 272.185 204.073 274.041 202.703 275.53C199.819 278.66 195.41 279.334 191.88 276.856C190.083 275.595 188.717 273.745 187.79 271.755C187.116 270.311 187.098 268.154 185.924 267.029C183.573 264.777 180.41 267.033 180.732 269.966L180.739 269.995C180.739 270.028 180.743 270.061 180.75 270.094C182.102 276.614 186.978 282.886 193.598 284.378C200.127 285.853 206.395 281.97 209.71 276.41C211.058 274.155 213.047 270.201 212.196 267.5Z" fill="#300000"/>
<path d="M128.304 257.548C131.841 261.888 137.674 265.187 143.304 265.202C149.08 265.217 154.09 261.316 156.938 256.426C159.308 252.355 153.09 248.661 150.728 252.721C149.098 255.524 146.188 258.188 142.764 257.851C139.065 257.486 135.71 255.207 133.391 252.363C132.149 250.841 129.587 251.055 128.304 252.363C126.826 253.873 127.058 256.023 128.304 257.548Z" fill="#300000"/>
<path d="M235.127 257.548C238.663 261.888 244.496 265.187 250.127 265.202C255.902 265.217 260.913 261.316 263.761 256.426C266.13 252.355 259.913 248.661 257.551 252.721C255.92 255.524 253.011 258.188 249.587 257.851C245.888 257.486 242.533 255.207 240.214 252.363C238.971 250.841 236.409 251.055 235.127 252.363C233.649 253.873 233.88 256.023 235.127 257.548Z" fill="#300000"/>
</svg>
