<svg width="25" height="33" viewBox="0 0 25 33" fill="none" xmlns="http://www.w3.org/2000/svg">
<path d="M14.3265 0.13238C14.277 -0.00311628 14.1078 -0.0443682 14.0044 0.0546362C13.3258 0.703243 11.1842 2.34411 10.9416 2.55735C9.76235 3.59372 8.63921 4.69611 7.57809 5.8572C5.93809 7.65195 4.35013 9.62569 3.05223 11.7686C2.40326 12.8402 1.82691 13.954 1.35211 15.1084C0.00559597 18.3105 -0.532129 21.9825 0.661085 25.3478C1.51318 27.7381 3.08649 29.6878 5.26297 31.0633C9.02585 33.4534 13.5227 33.5069 17.4691 31.9045C20.4847 30.6759 23.0545 28.3258 24.2078 25.2284C24.6347 24.1213 24.8938 22.9459 24.9738 21.7353C25.0532 20.5251 24.9532 19.2796 24.6609 18.0322C24.0457 15.4041 22.5026 12.9614 20.9174 10.8321C18.7934 7.98768 16.6039 5.47735 15.2394 2.31397C14.9066 1.61046 14.6019 0.886335 14.3265 0.13238Z" fill="#F2D633"/>
</svg>
