<svg width="61" height="79" viewBox="0 0 61 79" fill="none" xmlns="http://www.w3.org/2000/svg">
<path d="M33.6641 0.651568C33.5349 0.334903 33.125 0.249356 32.8826 0.490981C31.2955 2.07431 26.2571 6.10916 25.688 6.63144C22.923 9.16699 20.2976 11.8549 17.826 14.6771C14.0063 19.0392 10.3246 23.8207 7.35353 28.9811C5.86796 31.5609 4.55992 34.2361 3.49978 36.9998C0.487715 44.6665 -0.54265 53.3861 2.57214 61.2523C4.79588 66.8408 8.72438 71.333 14.0638 74.4256C23.296 79.7997 34.1281 79.5965 43.5154 75.5202C50.6881 72.3956 56.7065 66.6523 59.2614 59.2465C60.2093 56.5985 60.7485 53.801 60.8538 50.9345C60.9579 48.0673 60.6281 45.131 59.8344 42.2045C58.1638 36.037 54.2725 30.3768 50.3031 25.4595C44.9842 18.8921 39.5316 13.1186 36.0187 5.74072C35.1674 4.10187 34.3814 2.41349 33.6641 0.651568Z" fill="#F2D633"/>
<path d="M59.8496 42.0709C59.3047 39.8625 58.4964 37.8004 57.4202 35.8096C56.8094 34.675 56.1531 33.5802 55.4608 32.5154C54.7678 31.4506 54.0389 30.4158 53.2824 29.3991C51.9089 27.6056 50.4758 25.8467 49.0281 24.0953C47.5809 22.3439 46.1204 20.6 44.6914 18.8358C40.3932 13.6085 36.4233 8.06543 33.9922 1.65558C34.2207 6.71624 35.6361 11.5915 37.6846 16.1134C38.7068 18.399 39.8836 20.621 41.1535 22.7761C42.3656 24.8982 43.6324 26.9963 44.864 29.1146C46.0956 31.233 47.2927 33.3716 48.3661 35.5748C48.8423 36.5293 49.3911 37.4065 49.7199 38.3318C50.2692 39.5571 50.7663 40.7982 51.1907 42.0574C54.2483 50.0776 52.8321 59.883 46.5032 65.9899C45.4862 67.017 44.3724 67.9473 43.1836 68.7757C39.618 71.2599 35.3765 72.8228 31.0639 73.3265C29.8979 73.4733 28.7221 73.5549 27.5452 73.5746C25.1912 73.6129 22.8327 73.403 20.539 72.9674C19.2411 72.726 17.9591 72.4046 16.7041 72.0056C14.1942 71.2058 11.792 70.0893 9.58625 68.6603C8.42738 67.9084 7.32941 67.0682 6.30225 66.1306C5.27543 65.1935 4.31937 64.1602 3.44757 63.0273C4.71136 65.619 6.39704 67.927 8.39129 69.921C9.38834 70.9177 10.4627 71.8362 11.6014 72.6742C15.5984 75.6615 20.3342 77.5457 25.2455 78.2706C26.4733 78.4524 27.712 78.561 28.9529 78.5965C32.3658 78.6781 35.7938 78.2053 39.0761 77.235C40.1703 76.9114 41.2481 76.5327 42.3041 76.1005C43.3495 75.6846 44.374 75.2112 45.3721 74.6828C46.3696 74.1554 47.34 73.573 48.2766 72.9404C56.9355 67.3597 62.2807 56.8389 60.7344 46.4952C60.5526 45.0207 60.2577 43.5424 59.8496 42.0709Z" fill="#EAC926"/>
<path d="M14.9801 53.5504C14.8857 52.0031 15.928 50.5376 17.403 50.1346C18.5379 49.8307 19.665 50.2149 20.4638 51.0869C21.2349 51.9896 21.5293 53.2052 21.1923 54.3511C20.8303 55.6163 19.8021 56.6038 18.5199 56.7623C17.1519 56.9233 15.812 56.1273 15.2695 54.8441C15.0969 54.4501 14.9946 54.0134 14.9801 53.5504Z" fill="#300000"/>
<path d="M16.551 53.0844C16.5339 52.5929 16.8647 52.1824 17.2881 51.9978C18.0233 51.7187 18.8147 52.352 18.724 53.1272C18.6789 53.5286 18.4322 53.8791 18.0651 54.0337C17.6702 54.2167 17.1819 54.1463 16.8826 53.8439C16.6829 53.6539 16.5564 53.3853 16.551 53.0844Z" fill="white"/>
<path d="M37.8272 52.8661C37.7484 51.3976 38.6776 49.9658 40.0367 49.5058C41.6789 48.9783 43.4538 49.9695 43.992 51.6557C44.4025 52.9284 44.1016 54.3413 43.1574 55.2658C42.268 56.0995 41.0177 56.3772 39.9174 55.9322C38.9898 55.542 38.2513 54.7578 37.9683 53.7591C37.8858 53.4761 37.837 53.1767 37.8272 52.8661Z" fill="#300000"/>
<path d="M39.3395 52.4263C39.311 51.9858 39.6135 51.5769 39.9797 51.3938C40.4871 51.1499 41.095 51.3886 41.3659 51.838C41.6376 52.316 41.5138 52.9486 41.0379 53.278C40.6169 53.5482 40.0172 53.5662 39.6772 53.1797C39.4769 52.9906 39.3478 52.725 39.3395 52.4263Z" fill="white"/>
<path d="M17.9692 57.4608C17.0903 57.6054 16.2338 58.0478 15.7785 58.7265C15.4877 59.1604 15.4513 59.7215 15.797 60.156C16.4666 60.9974 17.6653 61.2174 18.6889 61.0604C19.5057 60.9349 20.6696 60.4712 21.0247 59.6579C21.4423 58.7012 20.4209 57.866 19.6154 57.575C19.1275 57.3983 18.5436 57.3662 17.9692 57.4608Z" fill="#FF5C5C"/>
<path d="M17.9293 57.3319C16.9628 57.5013 15.7041 58.0798 15.4517 59.1356C15.1935 60.2162 16.3193 60.9473 17.2292 61.151C18.1804 61.3649 19.2083 61.1971 20.0687 60.7492C20.8577 60.3378 21.5762 59.5065 21.0931 58.5908C20.5124 57.4917 19.1008 57.1529 17.9651 57.3257C17.7952 57.3521 17.8014 57.6223 17.9733 57.5958C18.9092 57.4534 19.8776 57.6358 20.5621 58.3291C20.8628 58.6336 21.0726 59.0461 20.9464 59.4795C20.8267 59.8903 20.4723 60.1965 20.1191 60.4104C19.4333 60.8263 18.596 61.0193 17.7977 60.963C17.0009 60.9067 15.7493 60.4711 15.6868 59.5155C15.6503 58.9561 16.0763 58.489 16.5034 58.1873C16.9513 57.8705 17.4718 57.6842 18.0091 57.5896C18.1798 57.5598 18.0989 57.3015 17.9293 57.3319Z" fill="#FF5C5C"/>
<path d="M41.4275 56.7477C42.3138 56.8389 43.1957 57.2283 43.691 57.8778C44.0077 58.2937 44.0783 58.8514 43.7601 59.3062C43.1424 60.1869 41.9596 60.4779 40.9284 60.3845C40.1051 60.3091 38.9155 59.9162 38.5117 59.1261C38.0366 58.1969 39.0048 57.3009 39.7914 56.9616C40.2679 56.7561 40.8488 56.688 41.4275 56.7477Z" fill="#FF5C5C"/>
<path d="M41.3959 56.8794C42.2568 56.9768 43.4216 57.3758 43.7586 58.2712C44.1346 59.2701 42.9728 59.9725 42.16 60.1672C41.3599 60.3603 40.4863 60.2674 39.7297 59.9489C38.9838 59.6354 38.1905 58.937 38.6798 58.0686C39.2209 57.109 40.406 56.7899 41.4319 56.8828C41.6046 56.8985 41.5948 56.6278 41.4237 56.6126C40.3504 56.5152 39.2104 56.8507 38.5589 57.7596C38.2955 58.1254 38.1635 58.5847 38.3203 59.0231C38.4719 59.448 38.8232 59.7654 39.2037 59.9888C40.03 60.4751 41.0709 60.6389 42.0106 60.4734C42.8999 60.3169 44.1023 59.699 44.1008 58.6516C44.0993 57.3814 42.5067 56.7353 41.4597 56.6166C41.2886 56.597 41.2233 56.8597 41.3959 56.8794Z" fill="#FF5C5C"/>
<path d="M23.3335 15.2624C20.8598 15.8612 18.3501 18.6219 17.9485 21.3293C17.8681 21.8704 17.8722 22.4099 17.9776 22.9292C18.1367 23.4597 18.3477 24.0285 18.8701 24.2536C22.2042 25.9323 25.4745 21.652 26.4547 18.9469C26.96 17.5519 26.7453 15.6091 25.019 15.3059C24.4846 15.1491 23.8952 15.1266 23.3335 15.2624Z" fill="white"/>
<path d="M15.8584 26.372C14.8128 26.7277 13.9954 27.5779 13.6224 28.6382C13.1874 30.0099 13.2755 32.2145 14.9277 32.4622C16.8217 32.7173 18.3314 30.8301 18.7659 29.0531C18.9678 28.2427 18.8188 27.3625 18.2451 26.7209C17.6318 26.0786 16.7028 26.0666 15.8584 26.372Z" fill="white"/>
<path d="M30.0094 57.4816C29.1065 56.519 27.8648 57.2407 27.3071 58.1721C28.0658 58.8143 29.0297 59.2054 30.0355 59.0991C31.0657 58.9899 31.9791 58.4355 32.6212 57.6499C31.8313 56.9436 30.797 56.5047 30.0094 57.4816Z" fill="#FF5C5C"/>
<path d="M33.4953 55.2057C33.3882 54.8741 33.0949 54.6557 32.6737 54.6722C32.0984 54.694 31.6014 55.0602 31.0616 55.2147C30.1256 55.4819 29.1279 55.5352 28.1697 55.3603C27.649 55.265 27.006 55.0009 26.4876 55.2327C25.7875 55.5457 26.0164 56.5122 26.3328 57.0324C26.5904 57.4557 26.9225 57.8457 27.3071 58.1721C27.8648 57.2407 29.1065 56.5189 30.0094 57.4815C30.797 56.5047 31.8313 56.9435 32.6212 57.6498C33.0754 57.0938 33.3941 56.4229 33.5212 55.7122C33.5542 55.5276 33.5438 55.3551 33.4953 55.2057Z" fill="#300000"/>
</svg>
