<svg width="236" height="100" viewBox="0 0 236 100" fill="none" xmlns="http://www.w3.org/2000/svg">
<path d="M170.088 37.6787C170.088 37.6787 168.84 26.0698 172.59 21.5148C176.341 16.9598 182.904 12.8598 181.966 8.30485C181.029 3.74986 176.809 0.106066 171.652 6.02726C166.496 11.949 170.715 17.415 164.62 20.1482C158.526 22.8812 154.306 21.5148 151.494 18.3258C148.681 15.1374 147.274 12.8598 140.711 14.6822C134.148 16.5042 124.771 24.7032 119.146 21.97C113.52 19.2372 112.582 15.593 113.52 13.7708C114.457 11.949 119.146 9.67144 117.739 5.11645C116.332 0.561469 112.582 -1.71593 108.832 3.29465C105.081 8.30485 110.707 11.038 107.894 14.2264C105.081 17.4148 103.675 18.3258 100.393 15.593C97.1119 12.8598 93.3611 16.0486 90.0794 17.415C86.7979 18.7816 83.9848 21.97 77.8905 17.415C71.796 12.86 67.1075 10.5824 66.6388 6.93844C66.1701 3.29484 66.1701 1.01706 61.013 0.561469C55.8562 0.106066 55.3871 9.21584 59.6067 10.1272C63.8258 11.038 67.5762 13.7708 68.514 17.415C69.4516 21.0592 68.3576 25.3108 63.9822 25.4623C59.6067 25.6142 70.3894 37.4573 70.3894 37.4573L170.088 37.6787Z" fill="#E0C020"/>
<path d="M188.773 4.14785C185.57 11.8912 191.975 13.7132 188.773 18.2682C185.57 22.823 179.622 30.1114 178.25 32.8446C176.877 35.5774 173.218 26.4672 164.525 31.478C155.832 36.4884 159.492 27.378 155.375 25.1008C151.257 22.823 148.054 27.8338 144.394 26.4672C140.734 25.1008 143.479 20.0902 143.479 16.446C143.479 12.802 140.734 10.0691 137.989 10.0691C135.244 10.0691 131.584 12.3466 131.584 16.9016C131.584 21.4566 134.786 21.912 134.329 26.467C133.872 31.022 129.754 35.5772 124.264 31.933C118.774 28.2894 109.758 21.0563 106.878 27.8336C100.128 43.7199 96.8749 27.6272 94.1297 25.805C91.3847 23.9832 84.4604 28.2892 84.9174 24.645C85.3752 21.0008 90.865 11.4351 81.2573 8.70246C71.6498 5.96909 72.1072 20.09 74.3947 25.1006C76.6821 30.1112 69.2814 35.1888 65.7021 24.645C64.4593 20.9835 59.7543 22.8228 58.3817 24.645C57.0094 26.467 48.5407 17.1621 50.3705 13.5183C52.2007 9.87412 52.8918 4.14728 49.2316 2.7805C44.0202 0.834649 35.5062 8.70227 42.3691 16.9012C49.2316 25.1002 54.722 31.0216 55.637 36.4878C56.552 41.9542 51.977 50.1527 54.2644 52.4303C56.552 54.7083 72.1074 57.8967 77.5977 57.8967C83.0877 57.8967 105.048 61.0849 115.571 61.9961C126.093 62.9069 142.106 61.5407 148.512 61.5407C154.917 61.5407 171.845 58.8075 174.59 56.0743L180.715 44.8026C181.173 41.6138 184.198 34.6658 186.486 31.9326C188.773 29.1998 199.296 15.9899 199.753 8.24648C200.211 0.503673 191.976 -3.5961 188.773 4.14785Z" fill="#51B7EF"/>
<path d="M188.715 4.14785C185.513 11.8912 191.918 13.713 188.715 18.2682C185.513 22.823 179.565 30.1114 178.192 32.8446C176.82 35.5774 173.16 26.4672 164.467 31.478C155.774 36.4882 159.435 27.378 155.317 25.1006C151.199 22.823 147.997 27.8338 144.336 26.4672C140.676 25.1006 143.421 20.0902 143.421 16.446C143.421 12.802 140.676 10.069 137.931 10.069C135.186 10.069 131.526 12.3466 131.526 16.9016C131.526 21.4566 134.729 21.912 134.271 26.467C133.814 31.022 129.696 35.5772 124.206 31.933C118.716 28.2894 109.7 21.0563 106.82 27.8336C100.07 43.7199 96.8171 27.6272 94.0721 25.805C91.3269 23.9832 84.4024 28.2892 84.8598 24.645C85.3172 21.0008 90.8076 11.4351 81.1997 8.70246C71.5922 5.96909 72.0494 20.09 74.337 25.1004C76.6247 30.1112 69.2238 35.1888 65.644 24.645C64.4011 20.9835 59.6969 22.8228 58.3243 24.645C56.9516 26.467 48.9449 15.9542 50.7753 12.3102C52.6053 8.66606 52.8344 4.14747 49.1741 2.78069C43.9627 0.834841 35.4486 8.70246 42.3115 16.9014C49.1742 25.1002 54.6646 31.0218 55.5792 36.4878C56.4169 41.4898 52.6719 48.7673 53.7808 51.7143L53.563 51.7133C53.563 51.7133 53.6772 51.8204 53.9113 52.0151C53.9955 52.1664 54.0864 52.3111 54.2066 52.4305C54.4897 52.7123 54.9762 53.0077 55.6204 53.3089C61.577 57.4914 81.0816 68.4525 121.9 68.4525C159.463 68.4525 176.569 59.47 182.856 54.8826C182.856 54.8826 182.68 46.8849 183.031 44.226C183.453 41.0325 184.14 34.6658 186.428 31.9326C188.715 29.1998 199.238 15.9899 199.696 8.24648C200.153 0.503673 191.918 -3.5961 188.715 4.14785Z" fill="#FADF42"/>
<path d="M9.6105 51.8413C10.2903 51.7054 10.6666 52.6206 10.0771 52.984C7.86871 54.345 5.6764 56.8269 6.55237 61.1889C7.77206 67.2612 26.377 76.9771 35.599 81.4539C36.2782 81.7834 35.9127 82.8076 35.1786 82.6298C24.5305 80.0509 2.09846 73.4752 0.860778 63.6172C-0.179206 55.3347 5.43028 52.6795 9.6105 51.8413Z" fill="#E0C020"/>
<path d="M89.5081 91.5056C104.111 93.5934 132.746 96.4872 157.572 91.8101C159.051 91.5312 159.627 93.6382 158.219 94.1649C151.078 96.8403 139.676 99.6405 123.241 99.6405C108.287 99.6405 96.4232 96.5629 88.9077 93.8712C87.511 93.3709 88.0387 91.2954 89.5081 91.5056Z" fill="#E0C020"/>
<path d="M195.91 83.7734C208.075 77.3614 234.529 62.0322 229.272 52.4916C228.923 51.8569 229.648 51.1587 230.275 51.5242C234.182 53.7987 239.25 58.8571 230.991 67.7305C222.579 76.7663 205.693 82.509 196.454 85.1132C195.611 85.351 195.135 84.1816 195.91 83.7734Z" fill="#E0C020"/>
<path d="M153.274 86.2535C152.348 86.3212 152.171 84.97 153.084 84.8023C171.97 81.3255 205.631 72.9878 210.789 57.1138C214.334 46.2049 205.816 41.2059 198.318 38.9453C197.458 38.686 197.735 37.4023 198.626 37.5181C208.79 38.8416 222.19 43.7392 216.213 60.8937C209.695 79.5978 173.199 84.8042 153.274 86.2535Z" fill="#EBCA27"/>
<path d="M191.989 59.4014C192.634 58.5889 191.608 57.5263 190.767 58.1349C183.33 63.5117 166.314 73.5751 141.983 75.2853C109.612 77.5602 78.2543 75.5494 60.8653 66.9436C42.0441 57.6295 40.9871 55.9867 42.966 57.4645C42.966 57.4645 56.6763 79.0771 119.895 81.352C167.065 83.0492 185.612 67.4371 191.989 59.4014Z" fill="#FADF42"/>
<path d="M40.1701 42.3256C41.1397 42.1198 41.6149 43.4536 40.7297 43.8986C34.1487 47.2064 25.3119 53.1656 29.6014 59.8377C37.5282 72.1669 65.2482 80.9888 91.9057 84.5196C92.9602 84.6591 92.8559 86.2086 91.7922 86.1949C74.6219 85.9698 38.2737 81.8802 23.6421 67.0893C8.23236 51.5124 28.6903 44.7608 40.1701 42.3256Z" fill="#EBCA27"/>
<path d="M140.711 14.6821C140.711 14.6821 135.305 9.08901 134.496 16.337C133.687 23.5849 142.073 21.0802 140.711 14.6821Z" fill="#EBCA27"/>
<path d="M193.545 3.04911C191.228 2.616 189.501 9.49163 191.928 11.9077C194.354 14.3239 200.017 4.25678 193.545 3.04911Z" fill="#EBCA27"/>
<path d="M80.1602 11.5172C77.0628 9.7512 73.8676 14.8481 75.8339 21.0945C77.8002 27.3406 85.273 14.4319 80.1602 11.5172Z" fill="#EBCA27"/>
<path d="M47.5394 5.06244C45.4933 3.53426 39.4507 7.47875 41.8772 10.7001C44.3038 13.9215 50.7753 7.47875 47.5394 5.06244Z" fill="#EBCA27"/>
<path opacity="0.5" d="M112.251 7.47864C113.368 7.47864 114.274 6.57717 114.274 5.46515C114.274 4.35313 113.368 3.45166 112.251 3.45166C111.134 3.45166 110.229 4.35313 110.229 5.46515C110.229 6.57717 111.134 7.47864 112.251 7.47864Z" fill="white"/>
<path opacity="0.5" d="M195.568 12.7135C196.685 12.7135 197.59 11.812 197.59 10.7C197.59 9.588 196.685 8.68652 195.568 8.68652C194.451 8.68652 193.545 9.588 193.545 10.7C193.545 11.812 194.451 12.7135 195.568 12.7135Z" fill="white"/>
<path opacity="0.5" d="M138.945 15.1296C139.838 15.1296 140.563 14.4084 140.563 13.5189C140.563 12.6293 139.838 11.9082 138.945 11.9082C138.051 11.9082 137.327 12.6293 137.327 13.5189C137.327 14.4084 138.051 15.1296 138.945 15.1296Z" fill="white"/>
<path d="M97.2879 20.0094C97.3306 20.0094 97.3287 19.9136 97.2856 19.9136C97.2429 19.9136 97.2445 20.0094 97.2879 20.0094Z" fill="white"/>
<path opacity="0.5" d="M93.4654 21.3132C94.18 20.4845 95.6516 20.3047 96.6742 20.4533C97.0573 20.5087 97.2527 19.8485 97.3249 19.6084C97.5013 19.0215 97.4403 18.4783 97.3249 17.8872C97.2592 17.5498 97.0587 17.0987 96.6742 17.0429C94.8721 16.7809 93.5642 18.0216 92.8673 19.5593C92.6719 19.9908 92.6673 20.585 92.8285 21.0253C92.9351 21.3157 93.1757 21.6493 93.4654 21.3132Z" fill="white"/>
<path opacity="0.5" d="M172.341 12.6412C172.468 11.8102 172.968 10.9838 173.587 10.4213C173.902 10.1355 174.282 9.91199 174.632 9.67419C175.226 9.27081 175.343 8.87695 175.672 8.2472C175.954 7.70662 176.036 6.24439 175.396 5.87873C175.242 5.80518 175.103 5.71143 174.977 5.59729C174.821 5.5024 174.665 5.5024 174.509 5.59729C172.299 6.87623 171.379 9.94572 171.288 12.3186C171.277 12.6154 171.351 13.4397 171.753 13.5099C172.176 13.5838 172.296 12.9333 172.341 12.6412Z" fill="white"/>
<path d="M146.101 67.0143C146.872 66.2498 147.357 65.2666 147.256 64.0037C146.87 59.2004 142.624 60.7378 139.729 58.2399C136.835 55.742 142.432 53.0521 142.624 47.0962C142.817 41.1398 136.256 41.9081 134.133 43.6378C132.01 45.3668 123.712 43.4456 121.975 37.8734C120.239 32.3017 115.414 34.4152 114.835 37.1052C114.256 39.7947 110.204 45.3668 99.9755 41.7164C89.7476 38.0659 86.0806 53.2447 77.7828 55.1658C69.4845 57.0871 71.0282 42.8695 62.9231 40.1794C55.8131 37.8197 53.9743 48.4748 53.6298 51.127C53.6637 51.3381 53.7125 51.5348 53.7804 51.715L53.5626 51.7141C53.5626 51.7141 53.6769 51.8212 53.9109 52.0159C53.9951 52.1672 54.0861 52.3118 54.2062 52.4313C54.4893 52.7131 54.9758 53.0085 55.62 53.3097C61.5767 57.4922 81.0813 68.4533 121.9 68.4533C131.164 68.4531 139.181 67.9063 146.101 67.0143Z" fill="#EBCA27"/>
<path opacity="0.5" d="M81.2562 16.3545C82.7484 16.3545 83.958 15.1501 83.958 13.6645C83.958 12.1789 82.7484 10.9746 81.2562 10.9746C79.764 10.9746 78.5544 12.1789 78.5544 13.6645C78.5544 15.1501 79.764 16.3545 81.2562 16.3545Z" fill="white"/>
<path opacity="0.5" d="M44.2039 14.0594C45.4889 14.0594 46.5306 13.0223 46.5306 11.743C46.5306 10.4636 45.4889 9.42651 44.2039 9.42651C42.9189 9.42651 41.8772 10.4636 41.8772 11.743C41.8772 13.0223 42.9189 14.0594 44.2039 14.0594Z" fill="white"/>
<path d="M173.479 43.0737C165.953 46.2437 172.321 52.584 166.242 54.6012C160.164 56.6185 163.637 47.6851 154.085 50.855C144.533 54.0251 155.533 57.4832 143.375 59.789C131.218 62.0942 139.613 49.4143 122.534 48.5494C105.456 47.6853 114.719 61.5182 101.404 57.4834C88.0893 53.4486 102.852 46.5323 102.562 41.6328C102.273 36.7337 81.4315 37.022 87.7999 42.4975C94.1678 47.9732 76.2215 50.5666 72.1691 47.9732C68.1165 45.3795 77.9583 43.0738 72.4585 39.0391C67.1451 35.141 59.9126 37.0805 55.6801 38.8067C55.4241 43.5253 52.8337 49.1983 53.7806 51.7146L53.5629 51.7136C53.5629 51.7136 53.6771 51.8207 53.9112 52.0155C53.9954 52.1668 54.0863 52.3114 54.2065 52.4308C54.4895 52.7127 54.976 53.008 55.6202 53.3093C61.5769 57.4917 81.0815 68.4529 121.9 68.4529C159.463 68.4529 176.569 59.4704 182.856 54.883C182.856 54.883 181.005 39.9036 173.479 43.0737Z" fill="#EBCA27"/>
<path d="M139.323 63.5352C133.823 63.5352 130.639 60.0767 130.639 55.4657C130.639 55.4578 130.639 55.4502 130.639 55.442C130.651 52.0635 128.152 49.1851 124.786 48.7478C124.089 48.6571 123.34 48.59 122.534 48.5489C105.456 47.6847 113.272 63.8232 103.72 61.2295C96.8737 59.3701 100.851 48.944 98.2335 46.7913C92.8671 42.3767 92.2966 54.0545 82.0106 56.3305C71.5903 58.6358 65.8009 50.5662 66.0903 44.5144C66.3136 39.8434 58.779 40.8377 55.3283 41.5345C54.5764 45.5415 53.0112 49.6694 53.7804 51.7144L53.5626 51.7134C53.5626 51.7134 53.6769 51.8205 53.9109 52.0152C53.9951 52.1665 54.0861 52.3112 54.2062 52.4306C54.4893 52.7125 54.9758 53.0078 55.62 53.3091C61.5767 57.4915 81.0813 68.4527 121.9 68.4527C130.757 68.4527 138.477 67.9529 145.186 67.1297C144.083 65.3841 142.228 63.5352 139.323 63.5352Z" fill="#E0C020"/>
</svg>
