<svg width="421" height="508" viewBox="0 0 421 508" fill="none" xmlns="http://www.w3.org/2000/svg">
<path d="M80.5837 338.984C75.7548 338.586 71.0419 337.938 66.3658 336.896L66.5632 336.915C60.1502 335.31 53.7755 333.31 48.123 329.987L48.3013 330.203C38.4803 324.692 30.302 316.552 24.75 306.68C24.0233 305.439 23.3282 304.179 22.6842 302.895C22.226 301.855 21.7847 300.973 21.3416 299.657C21.3438 299.649 21.3438 300.09 21.3438 300.09C21.7851 297.884 20.4615 297.002 18.6966 297.002C14.7255 297.002 15.6082 302.296 16.6646 304.929C17.2446 306.186 17.8997 307.416 18.5819 308.629C19.9468 311.055 21.4211 313.411 23.0002 315.691C35.1758 334.325 57.6062 343.225 79.1726 344.482C80.9659 344.454 83.0317 343.656 83.0406 341.468C82.9753 340.069 81.8859 338.971 80.5837 338.984Z" fill="#300000"/>
<path d="M19.2488 296.715C16.9315 298.325 13.4017 297.884 11.6372 296.119C8.54882 291.707 8.98974 283.766 15.6079 282.883C22.2261 282.442 24.4319 290.825 20.1288 295.159C19.871 295.611 19.5772 296.126 19.2488 296.715Z" fill="#300000"/>
<path d="M19.2484 294.137C16.4902 295.678 12.0782 294.354 12.5195 290.825V291.266C12.5195 289.06 12.5195 286.413 13.843 285.53C15.6079 283.766 19.5786 284.648 20.02 287.295C20.4613 291.707 16.4902 295.237 17.8142 299.208C18.2551 300.973 20.9026 298.767 21.7849 297.443C23.9906 293.472 25.7555 288.619 22.6671 284.207C20.02 280.236 12.0781 279.795 9.43101 284.648C7.22522 288.178 5.45992 294.796 8.98971 297.884C12.0782 301.414 17.3724 301.414 21.3436 298.325C21.7849 297.884 21.7849 296.56 21.7982 295.837C21.6026 294.489 20.5497 293.547 19.2484 294.137Z" fill="#300000"/>
<path d="M24.2239 288.443C24.4319 288.178 24.4319 287.295 24.4319 286.854C23.9905 291.266 16.0492 294.795 19.579 297.002C23.1083 299.649 25.3145 291.707 24.8732 288.178C24.4318 286.854 23.1083 286.413 21.7847 286.413C20.4612 286.413 19.579 288.178 20.4612 289.501L20.0199 289.06C20.9021 292.589 16.9314 294.795 16.0488 298.325C16.0488 299.208 16.931 300.09 17.8137 300.09C22.6665 299.648 25.3136 294.795 27.5198 291.266C28.4021 289.06 28.8438 286.412 27.5198 284.206C25.3141 282.001 22.2256 283.324 20.4607 285.971C19.5785 287.295 20.0194 289.501 21.483 290.565C22.4514 290.69 23.9745 289.843 24.2239 288.443Z" fill="#300000"/>
<path d="M374.638 366.151C378.617 368.915 382.371 371.838 385.896 375.083L385.734 374.967C390.48 379.57 394.994 384.495 398.221 390.203L398.174 389.927C403.912 399.617 406.91 410.76 406.768 422.084C406.775 423.522 406.745 424.962 406.678 426.399C406.642 427.164 406.596 427.927 406.539 428.69C406.512 429.05 406.479 429.408 406.452 429.767C406.424 430.132 406.463 429.661 406.467 429.618C406.442 429.887 406.414 430.156 406.386 430.425C406.214 432.075 406.95 433.904 408.783 434.238C410.313 434.516 412.411 433.615 412.596 431.841C413.176 426.277 413.247 420.691 412.798 415.163C411.599 392.936 396.647 373.995 378.614 362.099C377.048 361.225 374.86 360.881 373.756 362.769C373.112 364.014 373.504 365.51 374.638 366.151Z" fill="#300000"/>
<path d="M407.565 433.97C408.406 434.098 409.199 434.324 409.945 434.634C410.691 434.943 411.389 435.337 412.04 435.8C415.539 438.595 418.192 442.844 417.46 447.717C417.342 448.463 417.163 449.19 416.925 449.888C415.71 454.474 410.904 457.374 406.551 456.266C399.728 454.446 399.01 445.562 402.289 439.838C402.786 438.862 403.38 437.949 404.062 437.134C404.701 436.364 405.428 435.661 406.244 435.04C406.634 434.729 407.074 434.376 407.565 433.97Z" fill="#300000"/>
<path d="M406.93 436.757C407.543 436.859 408.158 436.988 408.742 437.204C408.245 437.02 409.148 437.4 409.143 437.398C409.413 437.529 409.677 437.672 409.935 437.826C410.003 437.866 410.762 438.434 410.244 438.011C410.421 438.155 410.595 438.304 410.766 438.456C411.109 438.76 411.442 439.078 411.761 439.41C411.92 439.576 412.077 439.745 412.229 439.918C412.303 440.001 412.785 440.603 412.355 440.049C412.638 440.413 412.908 440.785 413.158 441.173C413.365 441.495 413.56 441.825 413.741 442.164C413.849 442.367 413.95 442.572 414.048 442.78C413.748 442.147 414.143 443.052 414.187 443.175C414.342 443.609 414.473 444.053 414.574 444.503C414.609 444.654 414.639 444.806 414.668 444.958C414.545 444.294 414.667 445.062 414.677 445.164C414.723 445.639 414.737 446.117 414.719 446.593C414.716 446.692 414.612 447.469 414.708 446.834C414.654 447.195 414.596 447.555 414.515 447.912C414.414 448.368 414.275 448.807 414.139 449.253C414.07 449.478 414.007 449.704 413.93 449.927C414.17 449.235 413.899 449.951 413.843 450.067C413.644 450.482 413.407 450.871 413.154 451.254C413.564 450.634 413.145 451.245 413.052 451.353C412.906 451.525 412.754 451.691 412.596 451.852C412.438 452.012 412.27 452.159 412.105 452.313C411.574 452.813 412.595 452.016 411.982 452.404C411.604 452.643 411.229 452.873 410.844 453.099C410.224 453.463 411.382 452.929 410.705 453.167C410.532 453.228 410.362 453.296 410.187 453.353C410.012 453.409 409.836 453.461 409.659 453.506C409.517 453.543 409.374 453.575 409.23 453.604C409.591 453.55 409.615 453.545 409.301 453.588C408.859 453.622 408.428 453.639 407.985 453.637C407.275 453.633 408.537 453.777 407.843 453.615C407.662 453.573 407.477 453.548 407.296 453.505C407.115 453.461 406.939 453.401 406.76 453.353C406.063 453.163 407.301 453.637 406.673 453.316C406.394 453.173 405.554 452.913 405.419 452.614C405.518 452.686 405.617 452.757 405.717 452.828C405.613 452.747 405.51 452.664 405.411 452.577C405.261 452.449 405.118 452.315 404.979 452.175C404.888 452.083 404.803 451.983 404.711 451.89C404.244 451.418 405.051 452.413 404.685 451.859C404.468 451.531 404.248 451.211 404.061 450.863C403.972 450.697 403.608 450.236 404.017 450.817C403.878 450.619 403.809 450.297 403.732 450.069C403.624 449.749 403.532 449.422 403.455 449.093C403.408 448.893 403.369 448.691 403.331 448.489C403.47 449.221 403.348 448.527 403.333 448.388C403.24 447.541 403.248 446.698 403.296 445.849C403.254 446.587 403.299 445.867 403.318 445.731C403.357 445.446 403.403 445.162 403.458 444.88C403.554 444.385 403.675 443.895 403.82 443.412C403.862 443.275 403.905 443.138 403.951 443.001C403.996 442.865 404.044 442.73 404.093 442.595C403.948 442.977 403.936 443.016 404.057 442.713C404.266 442.261 404.468 441.813 404.703 441.373C405.017 440.786 405.345 440.215 405.705 439.654C405.746 439.591 406.043 439.206 405.767 439.56C406.01 439.249 406.259 438.944 406.524 438.652C407.583 437.487 408.337 437.01 409.633 435.943C410.79 434.99 410.606 432.832 409.539 431.902C408.254 430.782 406.737 430.975 405.497 431.995C405.378 432.094 405.259 432.191 405.14 432.289C404.753 432.607 405.412 432.072 405.056 432.358C404.779 432.58 404.499 432.798 404.223 433.021C403.573 433.545 402.95 434.086 402.388 434.705C401.355 435.845 400.502 437.134 399.772 438.484C398.752 440.369 398.002 442.434 397.73 444.567C397.175 448.911 398.036 453.916 401.613 456.84C405.493 460.011 411.1 460.158 415.141 457.149C419.478 453.92 421.194 448.171 420.071 442.969C418.858 437.353 413.912 432.142 408.2 431.183C406.729 430.935 405.065 431.754 404.777 433.334C404.514 434.786 405.352 436.491 406.93 436.757Z" fill="#300000"/>
<path d="M399.31 439.239C399.027 439.606 398.763 439.991 398.455 440.339C398.37 440.441 398.277 440.538 398.179 440.629C398.242 440.576 398.304 440.523 398.366 440.47C398.525 440.463 399.374 440.25 399.425 440.394C399.334 440.381 399.245 440.363 399.156 440.338C399.005 440.296 399.036 440.312 399.248 440.387C399.458 440.474 399.489 440.484 399.343 440.419C399.255 440.38 399.17 440.337 399.087 440.289C398.646 440.091 399.273 440.356 399.235 440.414C399.187 440.372 399.139 440.331 399.091 440.289C398.919 440.108 398.913 440.114 399.072 440.306C399.201 440.479 399.222 440.504 399.136 440.379C399.085 440.307 399.039 440.232 398.999 440.152C399.128 440.144 399.213 440.813 399.22 440.898C399.178 440.4 399.236 441.401 399.219 441.055C399.21 440.864 399.059 441.333 399.227 441.069C399.341 440.889 399.432 440.677 399.531 440.486C399.65 440.256 399.69 440.217 399.517 440.457C399.771 440.104 400.082 439.8 400.387 439.492C400.544 439.335 400.632 439.256 400.407 439.447C400.574 439.305 400.759 439.182 400.939 439.059C401.268 438.836 401.61 438.631 401.962 438.445C402.119 438.362 402.279 438.285 402.438 438.206C402.002 438.424 402.532 438.17 402.624 438.134C402.993 437.988 403.369 437.871 403.744 437.743C405.45 437.16 407.177 436.675 408.955 436.365C408.407 434.541 407.857 432.717 407.309 430.892C404.955 431.309 402.761 432.871 401.444 434.847C400.837 435.758 400.213 436.678 399.681 437.635C399.462 438.03 399.239 438.428 399.047 438.838C398.668 439.65 398.564 440.425 398.522 441.314C398.451 442.811 400.03 444.183 401.48 444.068C403.128 443.936 404.158 442.71 404.234 441.109C404.267 440.405 404.098 441.557 404.081 441.544C404.067 441.533 404.301 441.109 404.321 441.071C404.513 440.703 404.713 440.339 404.919 439.979C405.34 439.244 405.825 438.51 406.316 437.819C406.142 438.064 406.274 437.875 406.391 437.752C406.519 437.619 406.649 437.489 406.777 437.357C406.925 437.203 407.047 437.1 406.806 437.297C406.936 437.191 407.077 437.095 407.217 437.002C407.358 436.909 407.505 436.826 407.651 436.74C408.252 436.383 407.423 436.76 407.798 436.666C408.189 436.567 408.555 436.436 408.955 436.365C410.434 436.103 411.335 434.147 410.869 432.806C410.309 431.199 408.888 430.618 407.309 430.892C404.997 431.295 402.646 431.935 400.487 432.865C397.989 433.941 395.68 435.552 394.368 438.008C393.693 439.271 393.276 440.65 393.673 442.068C394.041 443.383 394.96 444.362 396.06 445.114C397.134 445.848 398.686 446.287 399.967 445.94C401.54 445.514 402.496 444.42 403.445 443.185C404.352 442.004 404.6 440.232 403.351 439.143C402.287 438.218 400.284 437.971 399.31 439.239Z" fill="#300000"/>
<path opacity="0.05" d="M155.095 496.537C154.135 504.253 166.411 505.453 171.132 506.407C187.882 509.796 204.914 507.057 221.636 504.838C223.53 504.443 225.425 504.071 227.324 503.754C244.789 500.836 261.886 505.974 279.309 506.558C293.784 507.042 308.349 506.789 322.779 504.754C325.074 504.43 329.054 504.095 330.509 501.018C331.973 497.922 330.456 495.55 328.326 494.501C318.027 489.428 306.834 489.418 296.084 488.884C274.192 487.796 252.581 494.984 230.762 493.19C225.906 492.791 221.104 491.711 216.297 490.696C214.695 490.357 213.092 490.026 211.486 489.73C202.319 488.038 192.958 487.75 183.685 488.335C178.953 488.634 174.227 489.087 169.529 489.776C165.656 490.344 160.446 490.427 157.159 492.929C155.924 493.87 155.264 495.173 155.095 496.537Z" fill="#111111"/>
<path d="M281.619 402.784C281.445 405.302 281.286 407.836 280.97 410.37V410.211C280.97 410.528 280.97 411.003 280.903 411.378C280.612 414.354 280.287 417.317 279.934 420.272C279.218 426.267 278.382 432.231 277.465 438.168C275.641 449.979 273.492 461.679 271.29 473.355C270.043 479.969 268.781 486.577 267.548 493.196C267.142 495.373 268.057 497.981 269.648 498.501C271.226 499.017 272.911 497.821 273.345 495.489C277.746 471.853 282.561 448.319 285.533 424.198C285.968 420.667 286.362 417.125 286.712 413.574C287.062 410.022 287.369 406.45 287.629 402.843C287.793 400.566 286.13 398.334 284.622 398.406C282.854 398.489 281.792 400.311 281.619 402.784Z" fill="#300000"/>
<path d="M270.281 496.229C270.96 496.623 271.67 496.984 272.402 497.31C273.135 497.636 273.892 497.928 274.666 498.184C277.468 498.783 281.146 499.632 284.509 499.507C285.351 499.475 286.172 499.383 286.954 499.211C287.523 499.096 288.152 498.936 288.774 498.722C289.395 498.508 290.008 498.239 290.545 497.907C292.317 496.987 292.317 494.93 291.583 493.314C290.554 491.551 289.379 490.082 287.618 489.224C287.153 488.985 286.674 488.786 286.185 488.622C281.787 487.156 276.642 488.627 273.252 492.198C272.954 492.493 272.664 492.799 272.382 493.116C272.043 493.944 271.161 494.385 270.814 495.212C270.618 495.543 270.443 495.881 270.281 496.229Z" fill="#300000"/>
<path d="M268.984 498.449C270.894 499.541 272.947 500.444 275.101 500.903C277.254 501.363 279.421 501.771 281.616 501.979C283.887 502.193 286.181 502.083 288.398 501.516C290.473 500.986 292.897 500.017 293.96 498.018C296.049 494.087 292.852 489.366 289.503 487.324C286.067 485.23 281.572 484.98 277.817 486.308C275.618 487.086 273.618 488.282 271.923 489.891C271.574 490.223 271.237 490.571 270.907 490.923C270.645 491.203 270.367 491.495 270.163 491.819C270.111 491.944 270.047 492.063 269.972 492.177C270.175 491.926 270.182 491.909 269.994 492.126C269.158 492.939 268.559 493.886 268.061 494.932C267.485 496.144 267.685 497.763 268.984 498.449C270.128 499.054 271.885 498.823 272.501 497.527C272.666 497.179 272.849 496.846 273.035 496.51C273.101 496.39 273.46 495.904 273.074 496.354C273.162 496.251 273.256 496.154 273.349 496.056C273.688 495.696 274.009 495.344 274.294 494.935C274.298 494.93 274.608 494.382 274.443 494.672C274.312 494.806 274.345 494.769 274.543 494.559C274.658 494.436 274.774 494.314 274.893 494.194C275.165 493.914 275.439 493.635 275.726 493.37C275.839 493.267 275.953 493.166 276.069 493.067C276.051 493.082 276.63 492.613 276.339 492.838C276.049 493.062 276.645 492.623 276.626 492.635C276.78 492.528 276.937 492.424 277.096 492.324C277.443 492.103 277.801 491.898 278.166 491.71C278.365 491.609 278.567 491.515 278.769 491.42C278.679 491.462 278.308 491.596 278.769 491.421C279.113 491.29 279.459 491.166 279.813 491.061C280.164 490.957 280.519 490.867 280.878 490.793C281.02 490.764 281.165 490.742 281.307 490.712C281.606 490.666 281.594 490.666 281.271 490.711C281.415 490.694 281.559 490.681 281.704 490.669C282.351 490.617 283.003 490.617 283.65 490.672C283.763 490.682 284.447 490.813 283.823 490.687C283.964 490.715 284.107 490.737 284.248 490.766C284.673 490.852 285.092 490.964 285.502 491.101C285.438 491.08 286.226 491.374 285.92 491.247C285.613 491.12 286.381 491.474 286.321 491.443C286.652 491.61 286.965 491.798 287.274 492.003C287.676 492.27 287.348 492.063 287.272 491.997C287.436 492.14 287.598 492.282 287.754 492.434C287.857 492.535 287.958 492.64 288.057 492.746C288.11 492.804 288.601 493.383 288.424 493.16C288.191 492.868 288.632 493.455 288.622 493.441C288.708 493.566 288.793 493.691 288.876 493.819C289.002 494.013 289.114 494.217 289.243 494.409C289.529 494.832 289.294 494.474 289.249 494.349C289.309 494.515 289.575 495.078 289.5 495.267C289.486 495.163 289.472 495.06 289.457 494.956C289.469 495.079 289.474 495.203 289.474 495.326C289.472 495.387 289.471 495.449 289.469 495.51C289.445 495.801 289.453 495.752 289.492 495.364C289.462 495.347 289.441 495.696 289.397 495.708C289.437 495.613 289.478 495.517 289.518 495.422C289.465 495.529 289.405 495.632 289.337 495.73C289.567 495.288 289.471 495.485 289.381 495.63C289.454 495.577 289.527 495.525 289.6 495.473C289.487 495.552 289.369 495.623 289.247 495.687C289.109 495.768 288.973 495.849 288.83 495.924C288.798 495.941 288.075 496.265 288.553 496.071C288.143 496.238 287.718 496.37 287.292 496.488C286.869 496.605 286.439 496.702 286.007 496.785C286.009 496.785 285.142 496.909 285.617 496.855C285.433 496.875 285.249 496.891 285.066 496.904C284.094 496.975 283.116 496.954 282.145 496.881C281.658 496.845 281.172 496.794 280.688 496.733C280.19 496.67 281.289 496.832 280.451 496.698C280.191 496.656 279.931 496.616 279.671 496.573C278.676 496.404 277.687 496.203 276.7 495.994C275.793 495.801 274.944 495.572 274.076 495.244C273.27 494.939 274.282 495.342 273.822 495.142C273.537 495.018 273.254 494.887 272.975 494.751C272.501 494.519 272.037 494.27 271.578 494.008C270.41 493.34 268.714 493.694 268.06 494.93C267.415 496.154 267.736 497.736 268.984 498.449Z" fill="#300000"/>
<path d="M194.456 402.894C194.565 404.387 194.681 405.877 194.806 407.367C194.865 408.072 194.926 408.777 194.99 409.481C195.018 409.794 195.047 410.107 195.076 410.42C195.022 409.843 195.154 411.225 195.17 411.384C195.461 414.354 195.785 417.317 196.138 420.272C196.854 426.267 197.69 432.231 198.607 438.168C200.431 449.979 202.581 461.679 204.782 473.355C206.028 479.969 207.291 486.577 208.524 493.196C208.929 495.373 208.015 497.981 206.424 498.501C204.846 499.017 203.161 497.821 202.726 495.489C198.326 471.853 193.511 448.319 190.539 424.198C190.104 420.667 189.71 417.125 189.36 413.574C189.009 410.023 188.703 406.463 188.443 402.895C188.279 400.642 189.932 398.477 191.438 398.573C193.205 398.685 194.275 400.478 194.456 402.894Z" fill="#300000"/>
<path d="M205.791 496.229C205.112 496.623 204.402 496.984 203.67 497.31C202.937 497.636 202.18 497.928 201.406 498.184C198.604 498.783 194.926 499.632 191.562 499.507C190.721 499.475 189.9 499.383 189.118 499.211C188.549 499.096 187.919 498.936 187.298 498.722C186.677 498.508 186.064 498.239 185.527 497.907C183.755 496.987 183.755 494.93 184.489 493.314C185.517 491.551 186.693 490.082 188.454 489.224C188.918 488.985 189.398 488.786 189.886 488.622C194.285 487.156 199.429 488.627 202.819 492.198C203.118 492.493 203.407 492.799 203.69 493.116C204.029 493.944 204.911 494.385 205.257 495.212C205.454 495.543 205.629 495.881 205.791 496.229Z" fill="#300000"/>
<path d="M207.088 498.449C205.179 499.541 203.125 500.444 200.971 500.903C198.817 501.363 196.65 501.771 194.456 501.979C192.184 502.193 189.891 502.083 187.674 501.516C185.599 500.986 183.174 500.017 182.112 498.018C180.023 494.087 183.22 489.366 186.568 487.324C190.005 485.23 194.5 484.98 198.254 486.308C200.453 487.086 202.454 488.282 204.148 489.891C204.497 490.223 204.835 490.571 205.165 490.923C205.427 491.203 205.704 491.495 205.908 491.819C205.96 491.944 206.025 492.063 206.1 492.177C205.896 491.926 205.889 491.909 206.077 492.126C206.914 492.939 207.512 493.886 208.01 494.932C208.587 496.144 208.387 497.763 207.088 498.449C205.943 499.054 204.187 498.823 203.57 497.527C203.405 497.179 203.223 496.846 203.036 496.51C202.97 496.39 202.612 495.904 202.998 496.354C202.91 496.251 202.815 496.154 202.722 496.056C202.383 495.696 202.062 495.344 201.777 494.935C201.774 494.93 201.464 494.382 201.628 494.672C201.759 494.806 201.726 494.769 201.528 494.559C201.413 494.436 201.297 494.314 201.178 494.194C200.906 493.914 200.632 493.635 200.345 493.37C200.233 493.267 200.118 493.166 200.003 493.067C200.021 493.082 199.442 492.613 199.732 492.838C200.022 493.062 199.427 492.623 199.445 492.635C199.291 492.528 199.134 492.424 198.975 492.324C198.628 492.103 198.271 491.898 197.905 491.71C197.706 491.609 197.504 491.515 197.302 491.42C197.391 491.462 197.763 491.596 197.302 491.421C196.957 491.29 196.611 491.166 196.257 491.061C195.907 490.957 195.552 490.867 195.193 490.793C195.05 490.764 194.906 490.742 194.764 490.712C194.464 490.666 194.476 490.666 194.8 490.711C194.656 490.694 194.512 490.681 194.367 490.669C193.72 490.617 193.068 490.617 192.421 490.672C192.308 490.682 191.624 490.813 192.248 490.687C192.106 490.715 191.964 490.737 191.823 490.766C191.399 490.852 190.979 490.964 190.568 491.101C190.632 491.08 189.844 491.374 190.151 491.247C190.458 491.12 189.689 491.474 189.75 491.443C189.418 491.61 189.105 491.798 188.796 492.003C188.394 492.27 188.722 492.063 188.798 491.997C188.634 492.14 188.472 492.282 188.316 492.434C188.212 492.535 188.112 492.64 188.013 492.746C187.96 492.804 187.469 493.383 187.647 493.16C187.879 492.868 187.439 493.455 187.448 493.441C187.361 493.566 187.277 493.691 187.194 493.819C187.068 494.013 186.956 494.217 186.827 494.409C186.541 494.832 186.776 494.474 186.82 494.349C186.761 494.515 186.495 495.078 186.569 495.267C186.584 495.163 186.597 495.06 186.612 494.956C186.601 495.079 186.595 495.203 186.596 495.326C186.597 495.387 186.599 495.449 186.6 495.51C186.624 495.801 186.617 495.752 186.578 495.364C186.607 495.347 186.628 495.696 186.673 495.708C186.632 495.613 186.592 495.517 186.551 495.422C186.604 495.529 186.664 495.632 186.732 495.73C186.503 495.288 186.599 495.485 186.689 495.63C186.616 495.577 186.543 495.525 186.469 495.473C186.582 495.552 186.7 495.623 186.822 495.687C186.96 495.768 187.096 495.849 187.238 495.924C187.271 495.941 187.994 496.265 187.516 496.071C187.926 496.238 188.351 496.37 188.777 496.488C189.2 496.605 189.63 496.702 190.061 496.785C190.059 496.785 190.926 496.909 190.452 496.855C190.635 496.875 190.82 496.891 191.003 496.904C191.975 496.975 192.953 496.954 193.924 496.881C194.411 496.845 194.897 496.794 195.381 496.733C195.88 496.67 194.78 496.832 195.618 496.698C195.878 496.656 196.138 496.616 196.398 496.573C197.393 496.404 198.382 496.203 199.369 495.994C200.276 495.801 201.125 495.572 201.993 495.244C202.8 494.939 201.787 495.342 202.247 495.142C202.533 495.018 202.815 494.887 203.094 494.751C203.569 494.519 204.032 494.27 204.491 494.008C205.659 493.34 207.356 493.694 208.009 494.93C208.656 496.154 208.336 497.736 207.088 498.449Z" fill="#300000"/>
<path d="M264.727 1.8553C264.02 -0.044265 261.609 -0.621597 260.13 0.765968C250.452 9.85136 219.902 32.8324 216.439 35.8204C199.616 50.3352 183.592 65.7748 168.454 82.0389C145.06 107.174 122.406 134.818 103.89 164.834C94.6326 179.842 86.409 195.443 79.6365 211.612C60.4271 256.458 52.7585 307.893 69.7791 355.026C81.9365 388.506 104.381 415.814 135.429 435.078C189.108 468.558 253.262 469.306 309.56 446.861C352.578 429.654 389.237 396.736 405.693 353.354C411.78 337.847 415.48 321.384 416.615 304.43C417.75 287.476 416.322 270.033 412.156 252.564C403.378 215.754 381.362 181.542 358.75 151.718C328.45 111.88 297.216 76.7167 277.749 32.4088C273.004 22.5541 268.656 12.4131 264.727 1.8553Z" fill="#F2D633"/>
<path d="M410.241 251.472C401.956 207.081 371.843 172.479 344.834 138.277C339.606 131.568 334.425 124.824 329.342 118.015C303.92 83.9696 280.92 48.2867 266.541 8.07401C267.197 39.7769 275.052 69.2815 286.788 97.7115C289.723 104.819 292.897 111.859 296.262 118.868C300.197 127.119 304.497 135.142 308.908 143.113C313.318 151.084 317.839 159.001 322.21 167.038C338.177 198.103 355.384 228.029 364.175 263.005C373.714 300.599 367.541 340.438 345.73 371.511C340.797 378.581 335.157 385.076 328.957 390.977C304.158 414.579 270.411 428.693 236.253 431.632C229.326 432.295 222.351 432.566 215.381 432.468C201.44 432.272 187.518 430.603 174.019 427.615C166.38 425.95 158.85 423.82 151.494 421.227C136.781 416.041 122.763 408.999 109.964 400.141C103.24 395.482 96.8923 390.309 90.9811 384.576C85.0717 378.844 79.5993 372.552 74.6428 365.688C81.6566 381.259 91.2189 395.229 102.664 407.391C108.387 413.473 114.58 419.103 121.169 424.271C144.291 442.674 171.984 454.681 200.923 459.857C208.158 461.151 215.471 462.017 222.81 462.451C242.997 463.549 263.373 461.368 282.976 456.215C289.51 454.497 295.958 452.448 302.284 450.08C327.338 440.989 350.62 426.344 369.51 407.482C375.807 401.189 381.6 394.422 386.754 387.207C409.251 355.775 418.603 315.749 414.453 277.594C413.675 268.906 412.274 260.178 410.241 251.472Z" fill="#EAC926"/>
<path d="M144.611 311.663C144.331 302.484 150.764 293.995 159.567 291.873C166.339 290.281 172.942 292.757 177.513 298.063C181.915 303.545 183.438 310.796 181.237 317.517C178.867 324.945 172.603 330.604 164.985 331.311C156.859 332.019 149.071 327.067 146.091 319.369C145.14 317.006 144.613 314.403 144.611 311.663Z" fill="#300000"/>
<path d="M153.992 309.183C153.98 306.272 156.012 303.902 158.552 302.886C162.953 301.362 167.524 305.256 166.847 309.827C166.509 312.197 164.985 314.229 162.784 315.075C160.414 316.091 157.536 315.583 155.819 313.742C154.671 312.58 153.971 310.969 153.992 309.183Z" fill="white"/>
<path d="M279.968 311.721C279.769 303.015 285.525 294.703 293.651 292.226C303.471 289.397 313.798 295.587 316.676 305.668C318.877 313.272 316.845 321.585 311.089 326.89C305.672 331.665 298.223 333.08 291.789 330.25C286.372 327.774 282.139 323 280.645 317.032C280.206 315.344 279.971 313.563 279.968 311.721Z" fill="#300000"/>
<path d="M289 309.389C288.911 306.78 290.773 304.41 292.973 303.394C296.021 302.04 299.576 303.563 301.1 306.272C302.624 309.151 301.777 312.875 298.899 314.737C296.359 316.261 292.804 316.261 290.864 313.912C289.71 312.757 288.997 311.159 289 309.389Z" fill="white"/>
<path d="M161.6 335.349C156.371 336.048 151.222 338.51 148.405 342.448C146.605 344.964 146.289 348.281 148.257 350.914C152.069 356.016 159.125 357.531 165.212 356.787C170.069 356.194 177.042 353.655 179.29 348.904C181.935 343.316 176.039 338.188 171.324 336.32C168.468 335.189 165.017 334.893 161.6 335.349Z" fill="#FF5C5C"/>
<path d="M161.387 334.577C155.636 335.409 148.081 338.606 146.397 344.812C144.674 351.162 151.206 355.691 156.555 357.063C162.147 358.498 168.262 357.689 173.435 355.192C178.179 352.902 182.582 348.106 179.887 342.603C176.648 335.989 168.353 333.73 161.599 334.549C160.59 334.671 160.577 336.274 161.599 336.15C167.165 335.475 172.864 336.727 176.791 340.956C178.516 342.813 179.684 345.294 178.859 347.836C178.076 350.249 175.923 351.996 173.794 353.2C169.66 355.538 164.669 356.526 159.954 356.05C155.247 355.573 147.917 352.77 147.72 347.103C147.604 343.787 150.21 341.093 152.793 339.383C155.501 337.59 158.615 336.584 161.812 336.122C162.828 335.974 162.396 334.431 161.387 334.577Z" fill="#FF5C5C"/>
<path d="M300.583 335.349C305.811 336.048 310.961 338.51 313.778 342.448C315.577 344.964 315.894 348.281 313.926 350.914C310.114 356.016 303.058 357.531 296.971 356.787C292.113 356.194 285.141 353.655 282.892 348.904C280.248 343.316 286.143 338.188 290.859 336.32C293.715 335.189 297.166 334.893 300.583 335.349Z" fill="#FF5C5C"/>
<path d="M300.37 336.121C305.449 336.856 312.271 339.428 314.104 344.787C316.149 350.769 309.149 354.717 304.303 355.728C299.529 356.724 294.377 356.017 289.955 353.997C285.596 352.007 281.027 347.726 284.079 342.675C287.453 337.092 294.527 335.415 300.583 336.149C301.604 336.273 301.594 334.671 300.583 334.548C294.247 333.78 287.44 335.56 283.418 340.821C281.797 342.943 280.929 345.637 281.779 348.261C282.603 350.803 284.624 352.742 286.833 354.136C291.636 357.165 297.769 358.318 303.361 357.51C308.653 356.745 315.883 353.303 316.064 347.102C316.282 339.583 306.971 335.47 300.796 334.577C299.788 334.431 299.353 335.974 300.37 336.121Z" fill="#FF5C5C"/>
<path d="M200.949 86.4932C186.199 89.5932 170.846 105.485 167.982 121.44C167.409 124.632 167.335 127.825 167.866 130.92C168.712 134.089 169.858 137.493 172.91 138.922C192.343 149.46 212.471 124.709 218.76 108.867C222.002 100.701 221.081 89.1616 210.917 87.0572C207.783 86.0296 204.298 85.7892 200.949 86.4932Z" fill="white"/>
<path d="M154.702 150.921C148.448 152.838 143.457 157.723 141.059 163.931C138.237 171.974 138.361 185.043 148.097 186.806C159.261 188.657 168.537 177.758 171.43 167.316C172.77 162.555 172.047 157.316 168.766 153.415C165.252 149.502 159.756 149.264 154.702 150.921Z" fill="white"/>
<path d="M232.864 337.64C227.693 331.779 220.213 335.826 216.745 341.239C221.119 345.178 226.755 347.667 232.727 347.22C238.845 346.761 244.351 343.639 248.293 339.104C243.745 334.782 237.702 331.995 232.864 337.64Z" fill="#FF5C5C"/>
<path d="M253.907 324.792C253.333 322.812 251.636 321.464 249.14 321.485C245.731 321.512 242.723 323.592 239.5 324.407C233.911 325.821 227.996 325.958 222.356 324.749C219.291 324.092 215.532 322.414 212.422 323.691C208.222 325.417 209.403 331.183 211.182 334.318C212.63 336.87 214.525 339.24 216.744 341.238C220.212 335.826 227.693 331.779 232.864 337.64C237.702 331.995 243.744 334.782 248.293 339.103C251.081 335.895 253.088 331.981 253.969 327.797C254.198 326.712 254.167 325.687 253.907 324.792Z" fill="#300000"/>
<path d="M27.9264 285.306C27.1718 282.415 25.6473 279.37 23.402 277.127C24.4993 273.453 25.4149 269.725 26.2015 265.973C26.9082 262.601 28.1869 257.701 27.3763 254.845C26.8336 252.936 25.1522 251.934 23.1593 252.294C21.0104 252.682 20.118 254.233 19.5406 256.16C17.8877 261.673 17.657 267.44 17.3099 273.159C14.901 267.337 12.7735 261.319 9.10989 256.143C7.9481 254.502 6.60761 253.316 4.44671 253.634C2.44314 253.928 1.25511 255.412 1.26445 257.397C1.27734 260.145 3.10403 262.4 4.4236 264.673C6.19383 267.722 7.93785 270.789 9.82631 273.767C9.96453 273.985 10.1085 274.2 10.2481 274.417C7.52628 275.289 5.00629 276.901 2.91339 279.065C-3.03733 285.22 0.897788 296.235 7.79873 299.708C12.7459 302.197 19.2366 301.455 23.6202 298.108C27.2109 295.367 29.2909 290.908 27.9264 285.306Z" fill="#300000"/>
</svg>
