<svg width="248" height="94" viewBox="0 0 248 94" fill="none" xmlns="http://www.w3.org/2000/svg">
<path d="M60.4795 61.8882H60.4062C60.0156 61.8882 59.7275 61.6001 59.542 61.0239C59.4834 60.8188 59.4541 60.5601 59.4541 60.2476C59.4541 59.7983 59.498 59.3198 59.5859 58.812C59.9277 56.8784 60.0986 55.4917 60.0986 54.6519C60.0986 53.6655 59.8838 52.8843 59.4541 52.3081C59.2393 52.0737 59.1318 51.854 59.1318 51.6489C59.1318 51.4536 59.2051 51.2339 59.3516 50.9897C59.4785 50.7456 59.542 50.5503 59.542 50.4038C59.5127 50.0718 59.498 49.8618 59.498 49.7739C59.4883 49.5786 59.4102 49.2466 59.2637 48.7778C59.1074 48.397 59.0195 48.021 59 47.6499C59.0195 47.396 59.0781 47.1665 59.1758 46.9614C59.2734 46.7563 59.3223 46.561 59.3223 46.3755C59.3223 46.1899 59.293 46.0044 59.2344 45.8188C59.1855 45.6431 59.1611 45.4722 59.1611 45.3062C59.1807 45.1108 59.2246 44.9399 59.293 44.7935C59.3613 44.647 59.4053 44.5103 59.4248 44.3833C59.4248 44.2759 59.4004 44.1587 59.3516 44.0317C59.2734 43.8657 59.2344 43.6606 59.2344 43.4165C59.2637 43.104 59.3418 42.8257 59.4688 42.5815C59.6641 42.103 59.7764 41.6245 59.8057 41.146C59.9912 37.8843 60.2061 34.8765 60.4502 32.1226C61.0557 25.3159 61.7441 19.6421 62.5156 15.1011C62.5938 14.7007 62.7891 14.3882 63.1016 14.1636C63.3457 13.9976 63.6191 13.9146 63.9219 13.9146C64.4199 13.9146 64.8154 14.1147 65.1084 14.5151C65.2842 14.7593 65.3721 15.0229 65.3721 15.3062C65.3721 15.3843 65.2402 16.2339 64.9766 17.855C64.6543 20.0229 64.3662 22.2446 64.1123 24.52C64.6592 22.6841 65.2891 20.9263 66.002 19.2466C67.2715 16.3364 68.6436 14.1782 70.1182 12.772C71.5537 11.4048 73.0234 10.7212 74.5273 10.7212C75.543 10.7212 76.5 11.0239 77.3984 11.6294C79.0195 12.6938 80.2891 14.4126 81.207 16.7856C81.8711 18.5142 82.2227 20.3403 82.2617 22.2642C82.2617 23.0552 82.208 23.8022 82.1006 24.5054C82.0029 25.1499 81.9492 25.8091 81.9395 26.4829C81.9395 27.0688 81.8906 27.5718 81.793 27.9917C81.7051 28.4019 81.6123 28.7681 81.5146 29.0903C81.3584 29.5396 81.2705 29.9692 81.251 30.3794L81.2656 30.7749C81.2656 31.312 81.2217 31.6685 81.1338 31.8442L80.7236 32.9868C80.4404 33.7583 80.2988 34.3638 80.2988 34.8032C80.2988 35.1841 80.377 35.6235 80.5332 36.1216C80.6016 36.3755 80.6357 36.605 80.6357 36.8101C80.6357 37.0933 80.5771 37.3325 80.46 37.5278C80.3037 37.8208 80.1182 37.9673 79.9033 37.9673C79.6396 37.9673 79.498 37.6694 79.4785 37.0737C79.4785 36.8394 79.5078 36.5562 79.5664 36.2241C79.8301 34.8374 79.9619 33.9097 79.9619 33.4409C79.9619 32.6597 79.7959 32.269 79.4639 32.269C79.3076 32.269 79.1074 32.3667 78.8633 32.562C78.4238 32.9722 78.0771 33.4849 77.8232 34.1001C77.5791 34.7153 77.3789 35.3354 77.2227 35.9604C76.9883 36.8003 76.6953 37.6206 76.3438 38.4214C75.9922 39.2124 75.8164 39.9888 75.8164 40.7505C75.8359 41.4731 76.0996 42.4448 76.6074 43.6655C76.7051 43.939 76.7539 44.1978 76.7539 44.4419C76.7539 44.8032 76.6465 45.1304 76.4316 45.4233C76.0898 45.8921 75.7236 46.1265 75.333 46.1265C74.8838 46.1265 74.5811 45.8677 74.4248 45.3501C74.376 45.2036 74.3516 45.0376 74.3516 44.8521C74.3516 44.5298 74.4248 44.1489 74.5713 43.7095C75.2354 41.7271 75.5674 40.1353 75.5674 38.9341C75.5674 38.6899 75.5527 38.4604 75.5234 38.2456C75.3965 37.1909 75.1182 36.3804 74.6885 35.814C74.3076 35.3354 73.9414 35.0962 73.5898 35.0962C73.375 35.0962 73.1357 35.2573 72.8721 35.5796C72.5107 35.9897 72.1738 36.2095 71.8613 36.2388C71.5586 36.2192 71.2119 36.1069 70.8213 35.9019C70.5283 35.7554 70.2256 35.6382 69.9131 35.5503L69.0342 35.5649C68.7607 35.6626 68.4873 35.7944 68.2139 35.9604C67.6865 36.2534 67.2861 36.3999 67.0127 36.3999C66.8955 36.3999 66.7734 36.3755 66.6465 36.3267C66.5293 36.2778 66.4414 36.2339 66.3828 36.1948C66.334 36.1558 66.2998 36.1313 66.2803 36.1216C66.251 36.1216 66.2266 36.1362 66.207 36.1655C66.1094 36.3413 66.0605 36.6587 66.0605 37.1177C66.0605 37.5083 66.1094 37.9624 66.207 38.48C66.3047 38.8901 66.3535 39.1733 66.3535 39.3296C66.3535 39.5249 66.3145 39.6812 66.2363 39.7983C66.1094 39.9937 65.9629 40.0913 65.7969 40.0913C65.5234 40.0913 65.377 39.896 65.3574 39.5054C65.3574 39.3296 65.4111 39.1147 65.5186 38.8608C65.7236 38.4116 65.8262 37.9429 65.8262 37.4546C65.8164 36.937 65.6943 36.2046 65.46 35.2573C65.3232 34.6909 65.2549 34.2808 65.2549 34.0269C65.2549 33.8706 65.2793 33.7388 65.3281 33.6313C65.3086 33.5337 65.2988 33.4312 65.2988 33.3237C65.2988 32.6499 65.5576 32.0933 66.0752 31.6538C66.4854 31.3218 66.9541 31.1558 67.4814 31.1558H67.6572C68.165 31.2046 68.707 31.229 69.2832 31.229C71.4805 31.229 73.2871 30.7017 74.7031 29.647C76.0605 28.6021 77.0225 27.2056 77.5889 25.4575C78.0186 24.1782 78.2334 22.8354 78.2334 21.4292C78.2334 20.1792 78.0625 18.9829 77.7207 17.8403C77.2715 16.2681 76.5928 15.1499 75.6846 14.4858C75.2256 14.1538 74.7178 13.9878 74.1611 13.9878C72.7354 13.9878 71.29 15.2964 69.8252 17.9136C69.0146 19.3394 68.2578 21.1118 67.5547 23.231C65.6016 28.8267 64 36.6929 62.75 46.8296C62.5059 48.7241 62.3838 50.0278 62.3838 50.7407C62.3838 51.2681 62.3301 51.6978 62.2227 52.0298L61.2998 54.6812C60.9385 55.7065 60.7578 56.5708 60.7578 57.2739C60.7578 57.7524 60.8213 58.2603 60.9482 58.7974C61.1436 59.6958 61.2412 60.3599 61.2412 60.7896C61.2021 61.4634 60.9482 61.8296 60.4795 61.8882ZM84.7959 52.9233C84.6494 52.9233 84.5127 52.8696 84.3857 52.7622C84.2295 52.6255 84.1514 52.4399 84.1514 52.2056C84.1514 52.0103 84.1953 51.8052 84.2832 51.5903C84.4492 51.1704 84.5322 50.5698 84.5322 49.7886C84.5322 49.0269 84.415 48.2017 84.1807 47.313C83.9854 46.4048 83.8877 45.7554 83.8877 45.3647L83.9023 44.896C83.9023 44.3979 83.6777 43.6997 83.2285 42.8013L82.9355 42.2153C82.4863 41.3755 82.2422 40.3306 82.2031 39.0806C82.2031 38.0747 82.501 36.8442 83.0967 35.3892C83.6826 33.9731 84.6006 32.6743 85.8506 31.4927C87.4326 29.9497 89.0195 29.1782 90.6113 29.1782C90.8359 29.1782 91.0654 29.1929 91.2998 29.2222C92.3154 29.3979 93.126 29.7935 93.7314 30.4087C94.4834 31.1704 94.8594 32.0347 94.8594 33.0015C94.8594 34.0464 94.415 34.9399 93.5264 35.6821C92.7256 36.3364 91.6465 36.7466 90.2891 36.9126C89.8887 36.9126 89.542 36.7808 89.249 36.5171C88.9658 36.2534 88.8242 35.9116 88.8242 35.4917C88.8242 35.1011 88.9512 34.769 89.2051 34.4956C89.459 34.2124 89.791 34.061 90.2012 34.0415C90.4648 34.022 90.7139 33.9487 90.9482 33.8218C91.1436 33.7437 91.3145 33.6411 91.4609 33.5142C91.7344 33.2212 91.8711 33.0063 91.8711 32.8696C91.8711 32.7622 91.793 32.7085 91.6367 32.7085C91.3242 32.7085 90.8848 32.8696 90.3184 33.1919C89.8496 33.4556 89.3857 33.8169 88.9268 34.2759C88.1357 35.0864 87.5303 35.9995 87.1104 37.0151C86.8369 37.689 86.7002 38.3726 86.7002 39.0659C86.7393 40.4526 87.1641 41.5171 87.9746 42.2593C88.4629 42.7085 89.0391 42.9331 89.7031 42.9331C91.2949 42.9331 92.9551 41.6001 94.6836 38.9341C94.9863 38.4946 95.3965 38.2749 95.9141 38.2749C96.1777 38.2749 96.4316 38.353 96.6758 38.5093C97.1152 38.812 97.335 39.2173 97.335 39.7251C97.335 39.9985 97.2617 40.2573 97.1152 40.5015C96.3047 41.771 95.792 42.5474 95.5771 42.8306C95.4795 42.9771 95.4014 43.0942 95.3428 43.1821C95.2842 43.27 95.2012 43.4751 95.0938 43.7974C95.0547 43.9341 94.9912 44.1147 94.9033 44.3394C94.5225 45.3257 94.332 46.0874 94.332 46.6245C94.332 47.1226 94.4688 47.7524 94.7422 48.5142C94.8008 48.7192 94.8301 48.9097 94.8301 49.0854C94.8301 49.2905 94.7861 49.4663 94.6982 49.6128C94.5322 49.8765 94.332 50.0083 94.0977 50.0083C93.5898 49.9692 93.3359 49.6519 93.3359 49.0562C93.3359 48.8999 93.3555 48.7192 93.3945 48.5142C93.7363 46.6978 93.9072 45.6479 93.9072 45.3647C93.9072 45.2476 93.8877 45.189 93.8486 45.189C93.7803 45.189 93.6729 45.3013 93.5264 45.5259C93.4092 45.6724 93.2676 45.8384 93.1016 46.0239C91.8516 47.3716 90.7969 48.0454 89.9375 48.0454C89.5078 48.0454 89.127 47.8501 88.7949 47.4595C88.5996 47.2544 88.3848 47.1519 88.1504 47.1519C87.8379 47.1519 87.4326 47.2788 86.9346 47.5327C86.9346 47.5425 86.9297 47.5474 86.9199 47.5474C86.5781 47.7231 86.2949 47.8159 86.0703 47.8257C85.8652 47.8257 85.7627 47.6108 85.7627 47.1812V46.9321C85.7627 46.7954 85.7529 46.644 85.7334 46.478C85.7139 46.312 85.6797 46.1704 85.6309 46.0532C85.5918 45.9458 85.543 45.8921 85.4844 45.8921C85.3672 45.8921 85.2451 46.1069 85.1182 46.5366C84.9521 47.0444 84.8691 47.7183 84.8691 48.5581C84.8691 49.6128 84.9912 50.6187 85.2354 51.5757C85.2451 51.5952 85.25 51.6196 85.25 51.6489C85.3086 51.8442 85.3379 52.02 85.3379 52.1763C85.3379 52.3911 85.2891 52.5669 85.1914 52.7036C85.1035 52.8403 84.9717 52.9136 84.7959 52.9233ZM101.554 52.9233C101.407 52.9233 101.271 52.8696 101.144 52.7622C100.987 52.6255 100.909 52.4399 100.909 52.2056C100.909 52.0103 100.953 51.8052 101.041 51.5903C101.207 51.1704 101.29 50.5698 101.29 49.7886C101.29 49.0269 101.173 48.2017 100.938 47.313C100.743 46.4048 100.646 45.7554 100.646 45.3647L100.66 44.896C100.66 44.3979 100.436 43.6997 99.9863 42.8013L99.6934 42.2153C99.2441 41.3755 99 40.3306 98.9609 39.0806C98.9609 38.0747 99.2588 36.8442 99.8545 35.3892C100.44 33.9731 101.358 32.6743 102.608 31.4927C104.19 29.9497 105.777 29.1782 107.369 29.1782C107.594 29.1782 107.823 29.1929 108.058 29.2222C109.073 29.3979 109.884 29.7935 110.489 30.4087C111.241 31.1704 111.617 32.0347 111.617 33.0015C111.617 34.0464 111.173 34.9399 110.284 35.6821C109.483 36.3364 108.404 36.7466 107.047 36.9126C106.646 36.9126 106.3 36.7808 106.007 36.5171C105.724 36.2534 105.582 35.9116 105.582 35.4917C105.582 35.1011 105.709 34.769 105.963 34.4956C106.217 34.2124 106.549 34.061 106.959 34.0415C107.223 34.022 107.472 33.9487 107.706 33.8218C107.901 33.7437 108.072 33.6411 108.219 33.5142C108.492 33.2212 108.629 33.0063 108.629 32.8696C108.629 32.7622 108.551 32.7085 108.395 32.7085C108.082 32.7085 107.643 32.8696 107.076 33.1919C106.607 33.4556 106.144 33.8169 105.685 34.2759C104.894 35.0864 104.288 35.9995 103.868 37.0151C103.595 37.689 103.458 38.3726 103.458 39.0659C103.497 40.4526 103.922 41.5171 104.732 42.2593C105.221 42.7085 105.797 42.9331 106.461 42.9331C108.053 42.9331 109.713 41.6001 111.441 38.9341C111.744 38.4946 112.154 38.2749 112.672 38.2749C112.936 38.2749 113.189 38.353 113.434 38.5093C113.873 38.812 114.093 39.2173 114.093 39.7251C114.093 39.9985 114.02 40.2573 113.873 40.5015C113.062 41.771 112.55 42.5474 112.335 42.8306C112.237 42.9771 112.159 43.0942 112.101 43.1821C112.042 43.27 111.959 43.4751 111.852 43.7974C111.812 43.9341 111.749 44.1147 111.661 44.3394C111.28 45.3257 111.09 46.0874 111.09 46.6245C111.09 47.1226 111.227 47.7524 111.5 48.5142C111.559 48.7192 111.588 48.9097 111.588 49.0854C111.588 49.2905 111.544 49.4663 111.456 49.6128C111.29 49.8765 111.09 50.0083 110.855 50.0083C110.348 49.9692 110.094 49.6519 110.094 49.0562C110.094 48.8999 110.113 48.7192 110.152 48.5142C110.494 46.6978 110.665 45.6479 110.665 45.3647C110.665 45.2476 110.646 45.189 110.606 45.189C110.538 45.189 110.431 45.3013 110.284 45.5259C110.167 45.6724 110.025 45.8384 109.859 46.0239C108.609 47.3716 107.555 48.0454 106.695 48.0454C106.266 48.0454 105.885 47.8501 105.553 47.4595C105.357 47.2544 105.143 47.1519 104.908 47.1519C104.596 47.1519 104.19 47.2788 103.692 47.5327C103.692 47.5425 103.688 47.5474 103.678 47.5474C103.336 47.7231 103.053 47.8159 102.828 47.8257C102.623 47.8257 102.521 47.6108 102.521 47.1812V46.9321C102.521 46.7954 102.511 46.644 102.491 46.478C102.472 46.312 102.438 46.1704 102.389 46.0532C102.35 45.9458 102.301 45.8921 102.242 45.8921C102.125 45.8921 102.003 46.1069 101.876 46.5366C101.71 47.0444 101.627 47.7183 101.627 48.5581C101.627 49.6128 101.749 50.6187 101.993 51.5757C102.003 51.5952 102.008 51.6196 102.008 51.6489C102.066 51.8442 102.096 52.02 102.096 52.1763C102.096 52.3911 102.047 52.5669 101.949 52.7036C101.861 52.8403 101.729 52.9136 101.554 52.9233Z" fill="#F0CD4F"/>
<path d="M119.2 20.6479H133.6V23.8479H122.6V31.8479H133.2V35.0479H122.6V48.6479H119.2V20.6479ZM139 22.6479C139 22.0346 139.213 21.5146 139.64 21.0879C140.093 20.6613 140.613 20.4479 141.2 20.4479C141.813 20.4479 142.333 20.6613 142.76 21.0879C143.187 21.5146 143.4 22.0346 143.4 22.6479C143.4 23.2346 143.187 23.7546 142.76 24.2079C142.333 24.6346 141.813 24.8479 141.2 24.8479C140.613 24.8479 140.093 24.6346 139.64 24.2079C139.213 23.7546 139 23.2346 139 22.6479ZM139.6 30.2479H142.8V48.6479H139.6V30.2479ZM161.191 37.4479C161.191 34.3813 159.884 32.8479 157.271 32.8479C155.884 32.8479 154.751 33.2746 153.871 34.1279C153.017 34.9813 152.591 36.0879 152.591 37.4479V48.6479H149.391V30.2479H152.591V33.1279C153.791 30.9413 155.617 29.8479 158.071 29.8479C160.017 29.8479 161.551 30.5013 162.671 31.8079C163.817 33.0879 164.391 34.8346 164.391 37.0479V48.6479H161.191V37.4479ZM171.366 34.4879L169.806 32.1279C170.5 31.6213 171.446 31.1146 172.646 30.6079C173.873 30.1013 175.34 29.8479 177.046 29.8479C179.18 29.8479 180.913 30.3413 182.246 31.3279C183.58 32.2879 184.246 33.6613 184.246 35.4479V48.6479H181.046V46.1679C180.46 47.1279 179.58 47.8479 178.406 48.3279C177.233 48.8079 176.086 49.0479 174.966 49.0479C173.846 49.0479 172.793 48.8213 171.806 48.3679C170.846 47.8879 170.073 47.2079 169.486 46.3279C168.9 45.4479 168.606 44.3813 168.606 43.1279C168.606 41.3413 169.233 39.9146 170.486 38.8479C171.766 37.7546 173.54 37.2079 175.806 37.2079C177.033 37.2079 178.073 37.3546 178.926 37.6479C179.806 37.9146 180.513 38.2213 181.046 38.5679V35.8879C181.046 34.6346 180.633 33.7813 179.806 33.3279C179.006 32.8746 178.033 32.6479 176.886 32.6479C175.5 32.6479 174.34 32.8746 173.406 33.3279C172.473 33.7813 171.793 34.1679 171.366 34.4879ZM171.846 42.9679C171.846 44.0346 172.206 44.8613 172.926 45.4479C173.673 46.0079 174.633 46.2879 175.806 46.2879C177.273 46.2879 178.513 45.8479 179.526 44.9679C180.54 44.0879 181.046 42.9146 181.046 41.4479V40.7679C180.3 40.3946 179.54 40.1279 178.766 39.9679C177.993 39.8079 177.18 39.7279 176.326 39.7279C174.78 39.7279 173.646 40.0213 172.926 40.6079C172.206 41.1679 171.846 41.9546 171.846 42.9679ZM201.464 37.4479C201.464 34.3813 200.157 32.8479 197.544 32.8479C196.157 32.8479 195.024 33.2746 194.144 34.1279C193.291 34.9813 192.864 36.0879 192.864 37.4479V48.6479H189.664V30.2479H192.864V33.1279C194.064 30.9413 195.891 29.8479 198.344 29.8479C200.291 29.8479 201.824 30.5013 202.944 31.8079C204.091 33.0879 204.664 34.8346 204.664 37.0479V48.6479H201.464V37.4479ZM212.12 39.4479C212.12 40.7279 212.386 41.8613 212.92 42.8479C213.48 43.8346 214.226 44.6213 215.16 45.2079C216.12 45.7679 217.2 46.0479 218.4 46.0479C219.893 46.0479 221.226 45.7146 222.4 45.0479C223.573 44.3813 224.373 43.5946 224.8 42.6879V46.6879C224.16 47.4346 223.24 48.0213 222.04 48.4479C220.866 48.8479 219.653 49.0479 218.4 49.0479C216.613 49.0479 215 48.6346 213.56 47.8079C212.12 46.9813 210.973 45.8479 210.12 44.4079C209.293 42.9413 208.88 41.2879 208.88 39.4479C208.88 37.5813 209.293 35.9279 210.12 34.4879C210.973 33.0479 212.12 31.9146 213.56 31.0879C215 30.2613 216.613 29.8479 218.4 29.8479C219.653 29.8479 220.866 30.0613 222.04 30.4879C223.24 30.8879 224.16 31.4613 224.8 32.2079V36.2079C224.373 35.3013 223.573 34.5146 222.4 33.8479C221.226 33.1813 219.893 32.8479 218.4 32.8479C217.2 32.8479 216.12 33.1279 215.16 33.6879C214.226 34.2479 213.48 35.0346 212.92 36.0479C212.386 37.0346 212.12 38.1679 212.12 39.4479ZM236.901 49.0479C235.195 49.0479 233.675 48.6479 232.341 47.8479C231.035 47.0213 230.008 45.8879 229.261 44.4479C228.541 43.0079 228.181 41.3413 228.181 39.4479C228.181 37.5279 228.555 35.8479 229.301 34.4079C230.075 32.9679 231.141 31.8479 232.501 31.0479C233.888 30.2479 235.488 29.8479 237.301 29.8479C239.995 29.8479 242.115 30.6879 243.661 32.3679C245.208 34.0479 245.981 36.3546 245.981 39.2879C245.981 39.4746 245.968 39.6746 245.941 39.8879C245.941 40.0746 245.941 40.1946 245.941 40.2479H231.461C231.595 42.0879 232.168 43.5146 233.181 44.5279C234.195 45.5413 235.568 46.0479 237.301 46.0479C239.808 46.0479 241.728 44.9413 243.061 42.7279L245.661 44.3679C243.741 47.4879 240.821 49.0479 236.901 49.0479ZM237.301 32.6479C235.728 32.6479 234.448 33.0746 233.461 33.9279C232.475 34.7546 231.848 35.9546 231.581 37.5279H242.501C242.395 36.0613 241.861 34.8879 240.901 34.0079C239.968 33.1013 238.768 32.6479 237.301 32.6479Z" fill="white"/>
<path d="M26.4215 0.2393C26.3181 -0.0135456 25.9897 -0.081852 25.7955 0.111077C24.5242 1.3753 20.4881 4.59698 20.0322 5.014C17.8173 7.03854 15.7142 9.18473 13.7344 11.4382C10.6746 14.9211 7.72522 18.7389 5.34526 22.8593C4.15523 24.9193 3.10741 27.0552 2.25818 29.262C-0.154662 35.3836 -0.980043 42.3458 1.51509 48.6267C3.29643 53.0889 6.44339 56.6758 10.7206 59.145C18.1161 63.4361 26.7932 63.2739 34.313 60.0191C40.0587 57.5242 44.8798 52.9384 46.9265 47.0251C47.6858 44.9108 48.1178 42.6771 48.2021 40.3883C48.2855 38.0989 48.0213 35.7544 47.3855 33.4177C46.0472 28.4932 42.9301 23.9738 39.7503 20.0475C35.4896 14.8036 31.1218 10.1937 28.3077 4.3028C27.6258 2.99423 26.9962 1.64613 26.4215 0.2393Z" fill="#F2D633"/>
<path d="M47.3977 33.3111C46.9612 31.5478 46.3137 29.9013 45.4516 28.3117C44.9623 27.4058 44.4366 26.5316 43.882 25.6814C43.3269 24.8312 42.743 24.005 42.1369 23.1931C41.0367 21.7611 39.8887 20.3567 38.729 18.9583C37.5697 17.5598 36.3998 16.1674 35.2551 14.7587C31.812 10.585 28.6318 6.15903 26.6844 1.04102C26.8674 5.08176 28.0013 8.97447 29.6422 12.585C30.4611 14.41 31.4038 16.1841 32.421 17.905C33.392 19.5994 34.4068 21.2746 35.3933 22.966C36.3799 24.6574 37.3389 26.3651 38.1987 28.1242C38.5802 28.8863 39.0198 29.5868 39.2832 30.3256C39.7233 31.3039 40.1214 32.2949 40.4614 33.3004C42.9107 39.7041 41.7762 47.5334 36.7064 52.4095C35.8918 53.2296 34.9996 53.9724 34.0473 54.6339C31.191 56.6174 27.7933 57.8653 24.3386 58.2675C23.4046 58.3848 22.4627 58.4499 21.5199 58.4657C19.6343 58.4962 17.745 58.3286 15.9076 57.9808C14.8679 57.788 13.8409 57.5314 12.8356 57.2128C10.825 56.5743 8.90077 55.6827 7.13381 54.5418C6.20548 53.9414 5.32595 53.2705 4.50314 52.5218C3.68059 51.7736 2.91473 50.9486 2.21637 50.044C3.22874 52.1134 4.57907 53.9562 6.17658 55.5483C6.97527 56.3442 7.83591 57.0775 8.74805 57.7467C11.9499 60.1319 15.7436 61.6364 19.6778 62.2152C20.6613 62.3603 21.6536 62.4471 22.6477 62.4754C25.3816 62.5405 28.1276 62.1631 30.7569 61.3883C31.6334 61.13 32.4968 60.8275 33.3427 60.4824C34.1801 60.1503 35.0008 59.7724 35.8004 59.3505C36.5994 58.9294 37.3767 58.4643 38.1271 57.9592C45.0633 53.5033 49.3451 45.1028 48.1065 36.8438C47.9608 35.6664 47.7246 34.4861 47.3977 33.3111Z" fill="#EAC926"/>
<path d="M11.4546 42.477C11.379 41.2416 12.2139 40.0714 13.3955 39.7497C14.3046 39.507 15.2075 39.8138 15.8473 40.51C16.465 41.2308 16.7009 42.2014 16.4309 43.1163C16.1409 44.1265 15.3173 44.9151 14.2901 45.0416C13.1943 45.1701 12.121 44.5346 11.6864 43.51C11.5481 43.1954 11.4662 42.8467 11.4546 42.477Z" fill="#300000"/>
<path d="M12.713 42.1048C12.6993 41.7123 12.9643 41.3846 13.3035 41.2372C13.8924 41.0143 14.5264 41.52 14.4536 42.1389C14.4176 42.4595 14.2199 42.7393 13.9259 42.8628C13.6095 43.0089 13.2183 42.9527 12.9786 42.7112C12.8186 42.5595 12.7173 42.3451 12.713 42.1048Z" fill="white"/>
<path d="M29.7565 41.9308C29.6933 40.7582 30.4377 39.615 31.5264 39.2477C32.8419 38.8265 34.2637 39.618 34.6948 40.9643C35.0236 41.9805 34.7826 43.1087 34.0262 43.8469C33.3138 44.5125 32.3122 44.7342 31.4308 44.3789C30.6877 44.0674 30.0961 43.4412 29.8695 42.6438C29.8034 42.4179 29.7643 42.1788 29.7565 41.9308Z" fill="#300000"/>
<path d="M30.9679 41.5794C30.945 41.2277 31.1873 40.9012 31.4807 40.755C31.8871 40.5603 32.3741 40.7509 32.5911 41.1097C32.8088 41.4914 32.7096 41.9965 32.3284 42.2595C31.9911 42.4752 31.5108 42.4896 31.2384 42.181C31.0779 42.03 30.9745 41.8179 30.9679 41.5794Z" fill="white"/>
<path d="M13.8491 45.5992C13.145 45.7147 12.4589 46.0679 12.0942 46.6098C11.8612 46.9563 11.8321 47.4043 12.109 47.7512C12.6454 48.423 13.6056 48.5987 14.4256 48.4733C15.0799 48.3731 16.0122 48.0028 16.2967 47.3535C16.6312 46.5896 15.813 45.9227 15.1678 45.6904C14.7769 45.5493 14.3092 45.5237 13.8491 45.5992Z" fill="#FF5C5C"/>
<path d="M13.8171 45.4965C13.0428 45.6318 12.0346 46.0937 11.8324 46.9367C11.6255 47.7995 12.5274 48.3832 13.2562 48.5459C14.0182 48.7167 14.8416 48.5828 15.5309 48.2251C16.1628 47.8966 16.7385 47.2329 16.3514 46.5017C15.8863 45.6241 14.7555 45.3536 13.8457 45.4916C13.7096 45.5127 13.7146 45.7284 13.8523 45.7073C14.602 45.5936 15.3778 45.7392 15.9261 46.2928C16.167 46.5359 16.335 46.8653 16.2339 47.2113C16.138 47.5393 15.8542 47.7838 15.5713 47.9545C15.0219 48.2866 14.3512 48.4408 13.7116 48.3958C13.0733 48.3509 12.0708 48.0031 12.0207 47.2401C11.9914 46.7934 12.3327 46.4204 12.6749 46.1795C13.0336 45.9266 13.4506 45.7778 13.8809 45.7023C14.0177 45.6785 13.953 45.4722 13.8171 45.4965Z" fill="#FF5C5C"/>
<path d="M32.6404 45.0298C33.3505 45.1026 34.0568 45.4135 34.4536 45.9321C34.7074 46.2642 34.7639 46.7095 34.509 47.0726C34.0142 47.7759 33.0667 48.0082 32.2406 47.9336C31.5811 47.8734 30.6282 47.5597 30.3047 46.9288C29.9242 46.1869 30.6997 45.4715 31.3298 45.2005C31.7116 45.0365 32.1769 44.9821 32.6404 45.0298Z" fill="#FF5C5C"/>
<path d="M32.6152 45.1347C33.3048 45.2124 34.2378 45.531 34.5078 46.246C34.809 47.0436 33.8783 47.6044 33.2272 47.7599C32.5863 47.914 31.8865 47.8399 31.2805 47.5855C30.6829 47.3352 30.0474 46.7776 30.4394 46.0842C30.8729 45.318 31.8222 45.0632 32.644 45.1374C32.7823 45.1499 32.7745 44.9338 32.6374 44.9217C31.7777 44.8439 30.8645 45.1117 30.3426 45.8375C30.1316 46.1296 30.0258 46.4963 30.1514 46.8463C30.2729 47.1856 30.5542 47.439 30.8591 47.6174C31.521 48.0057 32.3548 48.1365 33.1075 48.0043C33.82 47.8794 34.7831 47.386 34.7819 46.5497C34.7807 45.5355 33.505 45.0196 32.6663 44.9248C32.5292 44.9092 32.4769 45.1189 32.6152 45.1347Z" fill="#FF5C5C"/>
<path d="M18.1462 11.9053C16.1645 12.3835 14.1541 14.5878 13.8325 16.7495C13.7681 17.1815 13.7713 17.6123 13.8557 18.027C13.9832 18.4505 14.1522 18.9047 14.5707 19.0845C17.2415 20.4248 19.8612 17.0072 20.6464 14.8472C21.0512 13.7334 20.8792 12.1821 19.4964 11.9401C19.0683 11.8149 18.5961 11.7969 18.1462 11.9053Z" fill="white"/>
<path d="M12.1582 20.7761C11.3206 21.0601 10.6658 21.7389 10.367 22.5856C10.0186 23.6808 10.0891 25.4411 11.4126 25.6389C12.9298 25.8426 14.1392 24.3357 14.4873 22.9169C14.649 22.2698 14.5296 21.567 14.0701 21.0547C13.5788 20.5418 12.8346 20.5322 12.1582 20.7761Z" fill="white"/>
<path d="M23.4939 45.6157C22.7706 44.8471 21.7759 45.4233 21.3292 46.167C21.937 46.6798 22.7091 46.9921 23.5148 46.9072C24.3401 46.82 25.0717 46.3774 25.5861 45.75C24.9533 45.1861 24.1248 44.8357 23.4939 45.6157Z" fill="#FF5C5C"/>
<path d="M26.2863 43.7988C26.2006 43.534 25.9656 43.3596 25.6282 43.3728C25.1674 43.3902 24.7692 43.6826 24.3368 43.806C23.587 44.0193 22.7878 44.0618 22.0202 43.9222C21.6031 43.8461 21.088 43.6352 20.6727 43.8203C20.1119 44.0702 20.2953 44.8419 20.5487 45.2573C20.7551 45.5953 21.0211 45.9067 21.3293 46.1673C21.776 45.4236 22.7707 44.8473 23.494 45.6159C24.1249 44.8359 24.9534 45.1863 25.5861 45.7503C25.95 45.3063 26.2053 44.7706 26.3071 44.2032C26.3335 44.0558 26.3252 43.918 26.2863 43.7988Z" fill="#300000"/>
</svg>
