<svg width="391" height="395" viewBox="0 0 391 395" fill="none" xmlns="http://www.w3.org/2000/svg">
<path d="M377 197.5C377 298.979 295.606 381 195.5 381C95.3943 381 14 298.979 14 197.5C14 96.0211 95.3943 14 195.5 14C295.606 14 377 96.0211 377 197.5Z" fill="#F0CD4F" stroke="black" stroke-width="28"/>
<path d="M215.928 59.5262C209.428 60.7262 204.428 63.1262 200.028 67.0262C197.928 68.9262 195.828 70.1262 195.428 69.7262C194.928 69.3262 194.928 69.5262 195.228 70.1262C195.628 70.7262 195.128 72.8262 194.128 74.6262C192.828 77.2262 192.428 80.6262 192.428 89.0262C192.428 97.4262 192.028 100.726 190.728 103.126C185.728 112.326 186.428 123.326 192.528 130.326C196.628 135.126 206.328 140.226 213.028 141.126C215.728 141.526 217.928 142.326 217.928 142.926C217.928 143.626 216.228 145.826 214.128 147.826C211.128 150.826 209.628 151.526 206.528 151.526C203.428 151.526 201.928 152.226 198.828 155.426C194.928 159.326 194.028 162.526 195.828 165.426C196.528 166.426 196.028 168.226 194.328 171.026C191.128 176.526 191.328 180.326 194.928 187.526C198.128 193.726 208.428 205.626 214.328 209.626C217.028 211.426 217.728 212.626 217.628 215.026C217.528 216.626 217.828 219.426 218.228 221.026C218.928 223.826 218.628 224.226 213.328 227.426C210.228 229.226 205.328 232.726 202.328 235.126C199.328 237.526 196.528 239.526 196.028 239.526C195.528 239.526 193.728 240.726 192.028 242.126C188.028 245.526 187.928 249.326 191.828 253.726C195.028 257.426 198.028 267.626 196.128 268.326C195.428 268.526 193.928 269.526 192.728 270.526C190.428 272.426 190.428 272.526 192.228 275.526C193.128 277.326 193.728 279.026 193.428 279.426C193.228 279.826 190.228 279.626 186.728 278.926C183.228 278.226 178.628 277.926 176.428 278.226C171.628 279.026 166.228 283.926 165.328 288.426C164.728 291.026 164.228 291.526 161.728 291.526C159.428 291.526 158.928 291.926 159.328 293.226C159.628 294.226 160.128 296.826 160.528 299.026C161.528 305.026 162.228 305.926 168.828 309.426C179.428 315.026 192.228 317.826 208.428 317.926C217.228 317.926 224.128 317.526 226.928 316.626C234.728 314.426 242.828 310.326 243.428 308.426C244.028 306.826 245.128 306.526 251.728 306.526C265.728 306.526 279.928 301.726 279.928 297.126C279.928 295.826 280.228 293.326 280.528 291.626C281.128 288.926 280.928 288.526 279.128 288.526C277.628 288.526 276.528 287.326 275.128 284.226C274.128 281.926 272.528 279.426 271.728 278.726C270.828 278.026 270.428 276.526 270.628 275.226C270.928 273.926 270.428 272.326 269.628 271.726C268.428 270.726 268.328 269.926 269.328 267.426C270.328 264.626 270.228 264.126 267.928 262.326C266.328 261.026 264.528 260.526 262.628 260.826C260.228 261.126 259.228 260.526 256.328 256.926C253.728 253.726 252.928 252.026 253.428 250.526C253.828 249.326 253.628 247.826 253.028 247.126C252.228 246.126 252.428 245.426 253.828 244.126C255.728 242.426 255.828 242.426 257.328 245.326C261.228 252.926 269.428 255.826 273.728 251.226C276.928 247.826 276.528 245.326 272.428 243.126C268.928 241.226 266.728 237.426 268.728 236.726C271.528 235.826 278.328 230.026 279.728 227.326C280.728 225.626 282.628 222.826 284.128 221.026C286.828 217.826 289.928 210.526 289.928 207.126C289.928 206.026 288.928 204.126 287.828 202.926C286.028 201.026 285.828 200.226 286.728 197.626C287.528 195.326 287.428 194.426 286.328 193.426C285.528 192.826 284.928 191.226 284.928 189.926C284.928 188.726 284.128 184.326 283.228 180.326C282.328 176.326 281.728 170.826 281.828 168.226C281.928 164.226 281.628 163.226 280.128 162.826C279.128 162.626 277.028 159.826 275.528 156.726C271.628 148.726 265.528 141.126 260.228 137.526C257.728 135.926 255.028 133.626 254.228 132.526C253.428 131.326 251.628 130.026 250.328 129.526L247.928 128.626L250.128 124.826C251.828 122.026 252.428 119.426 252.428 114.826C252.428 110.826 252.828 108.526 253.528 108.526C254.128 108.526 255.828 107.626 257.328 106.426C263.528 101.526 257.728 88.1262 250.528 90.8262C249.528 91.2262 249.028 89.7262 248.628 84.4262C247.628 72.9262 242.528 64.3262 234.428 60.9262C230.028 59.1262 221.528 58.4262 215.928 59.5262ZM233.528 62.9262C242.728 67.2262 247.028 75.6262 246.628 89.0262C246.428 95.9262 246.528 96.4262 247.928 94.7262C250.428 91.5262 252.828 91.3262 255.528 94.0262C260.428 98.9262 257.728 107.326 251.628 106.126C249.128 105.626 248.828 105.826 249.528 107.326C252.128 113.226 250.228 123.126 245.628 127.226C242.928 129.626 236.628 131.526 231.328 131.526C227.128 131.526 221.328 134.526 219.028 137.726C217.928 139.426 217.028 139.626 213.128 139.026C202.428 137.426 192.028 129.426 189.828 121.026C188.428 115.926 189.328 108.226 191.828 104.026C193.428 101.226 193.728 98.9262 193.628 90.3262C193.528 79.3262 194.928 74.3262 199.228 69.7262C207.028 61.4262 223.328 58.2262 233.528 62.9262ZM215.628 165.126C217.928 166.426 220.128 167.926 220.428 168.526C220.728 169.026 219.428 171.926 217.428 174.926C215.528 177.926 213.928 181.026 213.928 181.726C213.928 182.726 214.128 182.726 214.828 181.726C215.428 180.726 216.228 181.226 217.828 183.826C218.928 185.726 221.028 188.426 222.428 189.826C223.928 191.326 224.628 192.626 224.028 193.026C223.428 193.326 223.028 195.126 223.128 197.026C223.228 200.226 219.228 209.526 217.728 209.526C215.728 209.526 200.928 193.926 197.728 188.426C191.928 178.626 192.928 172.926 202.128 164.526C205.928 161.026 208.728 161.226 215.628 165.126ZM283.528 208.026C282.628 211.326 276.028 212.826 264.228 212.326C257.028 212.026 253.228 211.326 249.928 209.826L245.428 207.726L253.428 207.626C260.928 207.526 277.528 204.026 281.828 201.626C283.128 200.826 283.528 201.126 283.728 203.226C283.928 204.626 283.828 206.826 283.528 208.026ZM226.228 206.326C227.528 207.726 227.728 209.326 227.328 213.126C226.828 217.126 227.128 218.526 228.728 220.526L230.728 223.026L220.028 230.026C200.028 243.126 199.028 244.326 201.228 250.826C202.028 253.126 203.128 257.426 203.628 260.226L204.628 265.526H201.828C199.328 265.526 198.928 264.926 196.928 258.726C195.728 255.026 194.128 250.326 193.228 248.326C191.928 245.226 191.828 244.326 192.928 243.026C193.828 241.926 194.428 241.726 194.928 242.526C195.428 243.326 197.928 241.626 202.028 238.026C205.528 234.826 212.128 230.026 216.728 227.226C221.228 224.526 224.928 221.826 224.928 221.326C224.928 220.826 224.528 220.626 224.028 220.926C222.728 221.726 219.928 217.026 219.928 214.126C219.928 211.426 222.828 204.526 223.928 204.526C224.328 204.526 225.328 205.326 226.228 206.326ZM231.328 212.626C231.028 213.126 231.128 213.426 231.628 213.326C232.728 213.026 244.128 220.626 245.828 222.826C246.728 224.126 247.928 224.526 249.828 224.126C252.128 223.626 252.228 223.626 250.528 224.626C249.028 225.526 247.728 225.326 243.828 223.526C238.428 220.926 236.528 221.526 235.428 226.326C234.928 228.426 232.828 230.226 226.228 234.026C221.528 236.726 215.128 241.426 212.028 244.226C206.128 249.826 206.028 249.926 203.528 248.926C201.128 248.026 201.628 245.726 204.728 242.826C207.228 240.426 230.028 225.026 232.028 224.326C232.628 224.126 232.028 222.226 230.828 219.926C229.228 217.126 228.828 215.126 229.328 213.226C229.628 211.726 230.428 210.726 230.928 211.026C231.528 211.426 231.728 212.126 231.328 212.626ZM234.628 235.726C236.128 236.426 237.628 237.026 237.828 237.226C238.028 237.326 236.728 238.626 235.028 240.126C230.728 243.726 228.628 248.026 229.428 251.526C229.828 253.126 231.828 257.126 233.928 260.426L237.828 266.426L234.928 267.326C233.028 268.026 231.828 268.026 231.028 267.226C230.428 266.626 228.028 265.926 225.728 265.626C222.028 265.126 221.228 264.526 218.928 260.526C217.528 258.026 216.228 254.426 216.128 252.526C216.028 250.626 215.628 248.226 215.328 247.326C214.928 246.026 216.928 244.226 223.128 240.126C227.728 237.026 231.528 234.526 231.628 234.526C231.728 234.526 233.128 235.026 234.628 235.726ZM243.428 244.526C243.728 245.026 244.628 245.226 245.428 244.926C246.128 244.626 247.628 244.826 248.628 245.426C249.728 246.026 249.928 246.526 249.128 246.526C248.428 246.526 248.128 246.926 248.428 247.526C248.828 248.126 247.428 248.526 245.028 248.526C242.728 248.526 240.928 248.926 240.928 249.526C240.928 250.026 241.828 250.526 242.828 250.526C243.928 250.526 245.128 251.026 245.428 251.526C245.828 252.226 247.328 251.926 249.528 250.526C251.528 249.426 252.728 249.026 252.428 249.526C251.528 250.926 246.028 253.726 245.128 253.126C244.728 252.926 244.428 254.026 244.428 255.526C244.328 257.126 244.628 258.226 245.028 257.926C245.428 257.726 246.028 257.926 246.328 258.426C247.028 259.526 243.628 260.526 239.228 260.526C236.428 260.526 235.828 260.026 233.428 255.226C230.928 250.026 230.828 247.826 233.228 244.726C234.328 243.326 242.528 243.126 243.428 244.526Z" fill="black"/>
<path d="M199.628 78.2262C198.428 79.4262 198.928 80.7262 200.328 80.2262C202.128 79.5262 201.828 81.3262 199.428 85.0262C198.028 87.0262 197.528 89.3262 197.628 92.5262C198.028 100.926 198.028 103.026 197.328 106.726C196.828 110.126 197.128 110.926 200.228 114.026C204.328 118.126 208.628 118.626 211.528 115.426C212.628 114.126 214.128 113.626 215.328 113.926C217.728 114.526 220.928 112.026 220.928 109.526C220.928 105.826 214.128 102.826 212.328 105.726C211.828 106.526 212.128 106.626 213.328 106.226C215.928 105.226 219.128 107.326 218.728 109.826C218.428 111.726 217.828 112.026 214.828 111.726C211.828 111.526 211.028 111.826 210.628 113.526C209.228 118.826 198.928 113.126 198.928 107.026C198.928 102.926 202.128 100.026 205.028 101.526C207.228 102.726 209.228 102.826 208.528 101.626C208.228 101.226 208.628 99.9262 209.428 98.9262C210.228 97.9262 210.928 95.9262 210.928 94.5262C210.928 92.4262 211.328 92.7262 213.328 96.5262C215.928 101.626 219.728 103.726 222.928 101.726C224.328 100.926 224.928 100.826 224.928 101.626C224.928 102.226 226.128 101.726 227.528 100.626C229.028 99.4262 231.128 98.4262 232.328 98.4262C233.928 98.3262 234.028 98.2262 232.728 97.8262C231.828 97.6262 230.028 97.9262 228.928 98.5262C226.928 99.6262 226.828 99.5262 227.928 97.4262C228.728 96.0262 228.928 93.7262 228.428 91.1262C228.028 88.8262 227.728 85.9262 227.728 84.5262C227.728 83.1262 227.428 82.6262 227.228 83.3262C226.928 83.9262 226.328 84.3262 225.828 83.9262C223.928 82.8262 225.028 81.7262 227.928 81.9262C231.428 82.1262 231.628 81.7262 229.228 79.9262C226.428 77.8262 223.728 78.2262 218.628 81.5262C213.128 85.0262 212.528 85.1262 213.328 82.7262C213.828 81.3262 213.628 81.4262 212.228 83.0262C210.628 85.0262 210.528 84.9262 206.928 81.2262C203.328 77.7262 201.028 76.7262 199.628 78.2262ZM225.528 87.0262C228.528 94.3262 226.628 99.8262 221.028 99.8262C216.828 99.8262 213.928 96.8262 213.228 91.7262C212.728 87.8262 212.828 87.6262 216.528 85.6262C222.128 82.7262 223.828 82.9262 225.528 87.0262Z" fill="black"/>
<path d="M229.728 103.826C226.828 105.126 225.128 106.526 225.428 107.326C226.328 109.826 221.228 116.226 216.528 118.426C210.228 121.526 201.728 122.326 198.428 120.126C195.528 118.226 195.128 116.526 197.628 116.526C198.928 116.526 199.028 116.226 198.128 115.326C196.328 113.526 194.528 115.826 195.228 118.826C195.928 121.526 199.628 123.526 203.928 123.526C205.628 123.526 206.928 123.926 206.928 124.526C206.928 125.026 206.028 125.526 205.028 125.526C203.928 125.526 202.728 126.026 202.328 126.626C201.328 128.226 203.828 132.126 206.528 133.426C209.628 134.826 209.628 133.826 206.428 131.326C203.428 129.026 203.128 126.526 205.928 126.526C207.028 126.526 207.928 127.026 207.928 127.626C207.928 128.126 207.528 128.326 206.928 128.026C206.428 127.726 205.928 127.826 205.928 128.426C205.928 128.926 207.928 130.126 210.428 131.126C226.828 137.326 248.128 117.626 237.028 106.426L234.128 103.526H236.528C237.928 103.526 238.728 103.126 238.428 102.526C237.528 101.026 234.928 101.426 229.728 103.826Z" fill="black"/>
<path d="M149.228 178.426C136.528 183.026 122.828 195.326 116.228 208.026C108.828 222.326 95.9278 262.426 95.9278 271.026C95.9278 274.126 94.6278 274.826 91.5278 273.426C86.5278 271.126 83.9278 277.226 87.6278 282.526L89.3278 284.926L86.9278 283.226C83.6278 280.926 79.9278 281.026 79.9278 283.326C79.9278 284.326 80.5278 285.726 81.2278 286.426C82.2278 287.526 82.1278 287.626 80.9278 287.226C71.5278 283.726 68.9278 283.226 66.3278 284.426C64.3278 285.326 63.8278 286.026 64.3278 287.826C64.8278 289.826 64.3278 290.326 61.3278 291.426C57.6278 292.726 55.2278 296.326 56.2278 298.926C57.3278 301.626 62.5278 303.426 75.1278 305.526C95.0278 308.726 115.428 308.026 117.728 303.926C118.228 302.926 121.228 302.026 126.028 301.426C134.428 300.226 139.328 297.926 139.728 294.826C140.128 292.026 136.828 289.926 130.728 289.026C127.628 288.526 125.928 287.826 125.928 286.926C125.928 286.126 124.928 285.526 123.528 285.526C121.528 285.526 121.228 285.126 121.628 283.426C122.428 280.526 120.028 279.226 117.228 281.126C114.928 282.526 114.928 282.526 115.628 277.926L116.228 273.226L112.628 273.826L108.928 274.426L109.528 270.226C112.928 244.226 116.728 230.726 124.928 214.426C130.228 204.026 133.528 199.226 139.628 193.326C154.228 179.326 169.228 180.726 190.528 198.326C194.028 201.226 196.928 203.326 196.928 203.026C196.928 201.026 189.928 192.826 184.128 187.926C171.328 177.026 161.028 174.226 149.228 178.426ZM170.828 180.626C174.728 182.326 178.028 184.726 186.328 191.826C188.928 194.126 186.828 193.026 181.128 189.226C170.028 181.726 157.428 180.226 147.828 185.026C130.728 193.726 115.928 221.626 109.928 256.326C108.828 262.626 107.928 269.526 107.928 271.726C107.928 274.226 106.928 277.326 105.328 280.126C103.828 282.626 102.928 284.826 103.228 285.126C103.428 285.426 104.528 283.926 105.628 281.926C108.028 277.226 112.528 273.726 114.028 275.226C114.828 276.026 114.528 277.626 113.028 281.026C111.828 283.726 111.128 286.026 111.328 286.326C111.628 286.526 113.428 285.526 115.428 284.026C119.928 280.526 121.028 281.526 118.128 286.626C115.528 291.126 115.828 291.426 119.928 288.326C122.228 286.726 123.228 286.426 124.128 287.326C124.928 288.126 124.328 288.926 121.528 290.626C119.528 291.826 118.028 293.026 118.328 293.226C118.628 293.526 120.528 292.826 122.528 291.626C126.628 289.226 132.328 289.426 136.628 292.126C141.528 295.226 135.228 298.926 123.228 300.026C117.728 300.626 116.028 301.126 115.628 302.526C115.028 304.826 110.828 305.526 97.4278 305.526C85.9278 305.526 65.6278 302.726 60.5278 300.426C54.2278 297.526 60.5278 290.026 67.3278 292.326C72.4278 294.026 79.9278 294.826 79.9278 293.626C79.9278 293.026 78.3278 292.526 76.4278 292.526C71.1278 292.526 65.9278 290.026 65.9278 287.626C65.9278 284.626 71.3278 284.826 79.1278 288.026C82.5278 289.426 85.5278 290.326 85.7278 290.026C86.0278 289.726 85.3278 288.526 84.1278 287.226C82.1278 285.026 81.2278 282.526 82.5278 282.526C82.8278 282.526 84.8278 283.526 86.9278 284.726C89.0278 286.026 91.1278 286.726 91.4278 286.326C91.8278 286.026 90.8278 283.926 89.4278 281.626C86.4278 277.226 86.6278 274.526 89.9278 274.526C92.3278 274.526 95.2278 277.226 97.4278 281.426C98.2278 283.126 99.2278 284.526 99.4278 284.526C100.028 284.526 98.0278 279.426 96.9278 278.026C94.6278 275.226 108.528 227.526 116.628 210.526C122.628 197.926 139.228 183.326 151.828 179.526C156.928 177.926 166.228 178.526 170.828 180.626Z" fill="black"/>
</svg>
