<svg width="189" height="180" viewBox="0 0 189 263" fill="none" xmlns="http://www.w3.org/2000/svg">
<path d="M188.055 49.9532C188.051 49.6405 188.05 49.5014 188.05 49.4704C188.05 49.5279 188.055 49.9532 188.055 49.9532Z" fill="#D9FFFF"/>
<path d="M188.055 49.9532C188.051 49.6405 188.05 49.5014 188.05 49.4704C188.05 49.5279 188.055 49.9532 188.055 49.9532Z" fill="#D9FFFF"/>
<path d="M0.00576473 52.0238C0.00576473 52.0238 0.00116491 51.5984 1.52588e-05 51.5398C0.00116491 51.572 0.00231578 51.7099 0.00576473 52.0238Z" fill="#D9FFFF"/>
<path d="M0.00576473 52.0238C0.00576473 52.0238 0.00116491 51.5984 1.52588e-05 51.5398C0.00116491 51.572 0.00231578 51.7099 0.00576473 52.0238Z" fill="#D9FFFF"/>
<path d="M93.3077 -6.10352e-05C115.376 23.2228 150.473 42.1437 187.944 50.0567C187.972 52.5446 188.125 66.3266 188.831 129.85C189.772 214.591 109.026 256.535 96.4888 262.973C84.2646 257.469 1.94752 216.659 1.00481 131.919C0.298926 68.3948 0.144873 54.6128 0.118431 52.125C37.4073 43.3888 71.7587 23.7034 93.3077 -6.10352e-05Z" fill="white"/>
<path d="M93.6331 15.3144C115.222 34.7699 145.056 49.9763 177.803 58.1572L178.601 129.955C178.966 162.807 166.052 192.614 140.212 218.551C123.235 235.593 105.338 246.211 96.252 250.991C95.8588 250.796 95.4265 250.576 95.0023 250.358L93.448 15.4834C93.5078 15.4259 93.5733 15.3719 93.6331 15.3144Z" fill="#002046"/>
<path d="M93.448 15.4833L95.0035 250.358C85.4913 245.512 68.1914 235.475 51.5813 219.526C25.175 194.165 11.6 164.65 11.2355 131.797L10.4377 59.9977C42.9026 51.1259 72.3106 35.3286 93.448 15.4833Z" fill="#002F66"/>
<path d="M146.613 151.797C146.688 151.513 146.738 151.259 146.737 150.979C146.767 150.715 146.79 150.451 146.806 150.185C146.858 148.224 146.739 146.276 146.164 144.378C146.11 144.206 146.053 144.034 145.991 143.864C145.605 142.791 145.064 141.785 144.53 140.78C144.235 140.222 143.95 139.659 143.656 139.101C143.505 138.814 143.353 138.527 143.203 138.239C143.047 137.939 142.986 137.617 142.868 137.303C142.526 136.381 141.918 135.52 141.141 134.916C140.415 134.352 139.503 134.058 138.587 134.232C138.367 134.274 138.153 134.344 137.947 134.432C137.688 134.542 137.497 134.738 137.318 134.952C137.038 135.288 136.826 135.686 136.721 136.111C136.514 136.941 136.729 137.783 137.323 138.4C137.837 138.934 138.613 139.244 139.004 139.892C139.255 140.307 139.197 140.823 139.152 141.286C139.092 141.911 138.953 142.532 138.868 143.155C138.722 144.229 138.936 145.309 139.243 146.336C139.3 146.524 139.353 146.72 139.412 146.915C139.366 146.871 139.319 146.827 139.267 146.787C138.97 146.554 138.63 146.385 138.278 146.253C137.531 145.975 136.691 145.812 135.895 145.809C134.064 145.801 132.272 146.407 130.925 147.669C130.692 147.863 130.488 148.086 130.263 148.287C130.072 148.457 129.89 148.623 129.735 148.829C129.404 149.266 129.225 149.773 129.124 150.307C128.933 151.322 129.128 152.543 129.806 153.357C130.111 153.723 130.518 154.038 130.895 154.327C131.292 154.631 131.713 154.904 132.151 155.146C133.014 155.622 133.945 155.977 134.902 156.21C135.68 156.4 136.476 156.513 137.276 156.55C137.676 156.569 138.077 156.569 138.478 156.551C138.704 156.555 138.928 156.546 139.151 156.526C139.374 156.506 139.595 156.476 139.815 156.438C141.538 156.12 143.282 155.697 144.871 154.831C145.052 154.719 145.225 154.592 145.385 154.444C145.545 154.297 145.693 154.13 145.824 153.937C145.95 153.774 146.064 153.6 146.161 153.416C146.355 153.048 146.486 152.642 146.534 152.206C146.562 152.064 146.587 151.927 146.613 151.797Z" fill="#F2D633"/>
<path d="M144.317 152.272C143.828 152.719 143.267 153.06 142.664 153.322C142.462 153.409 142.257 153.488 142.048 153.558C141.838 153.629 141.626 153.692 141.411 153.749C140.515 153.983 139.578 154.1 138.683 154.172C138.504 154.186 138.327 154.199 138.152 154.21C136.643 154.053 134.987 153.49 134.403 152.031C133.522 149.933 135.432 147.723 137.322 146.926C137.541 146.854 137.765 146.804 137.991 146.782C138.445 146.736 138.911 146.797 139.373 146.993C137.953 145.765 135.887 145.676 134.136 145.997C133.938 146.042 133.742 146.094 133.549 146.155C132.582 146.457 131.683 146.959 130.925 147.669C130.692 147.863 130.488 148.086 130.263 148.287C130.072 148.457 129.89 148.623 129.735 148.829C129.404 149.266 129.225 149.773 129.124 150.307C128.933 151.322 129.128 152.543 129.806 153.357C130.111 153.723 130.519 154.038 130.895 154.327C131.292 154.631 131.713 154.904 132.151 155.146C133.014 155.622 133.945 155.977 134.902 156.21C135.68 156.4 136.476 156.513 137.277 156.55C137.677 156.569 138.078 156.569 138.478 156.551C138.704 156.556 138.929 156.547 139.152 156.529C139.375 156.51 139.597 156.482 139.818 156.446C141.594 156.105 143.369 155.794 144.892 154.841C145.071 154.726 145.239 154.597 145.392 154.45C145.544 154.302 145.682 154.136 145.8 153.948C145.923 153.78 146.034 153.601 146.134 153.413C146.332 153.037 146.479 152.626 146.568 152.192C146.613 151.988 146.647 151.783 146.675 151.58C146.702 151.377 146.722 151.176 146.737 150.979C146.767 150.715 146.79 150.451 146.807 150.187C147.01 148.122 146.733 146.037 146.037 144.133C145.959 143.922 145.876 143.712 145.788 143.505C145.688 143.259 145.583 143.015 145.476 142.773C145.369 142.532 145.259 142.292 145.148 142.056C145.034 141.815 144.917 141.575 144.799 141.337C144.562 140.861 144.32 140.391 144.082 139.926C144.152 140.201 144.22 140.476 144.285 140.751C144.35 141.026 144.412 141.301 144.472 141.576C144.542 141.85 144.609 142.123 144.673 142.397C144.737 142.671 144.797 142.945 144.853 143.22C144.893 143.447 144.932 143.676 144.971 143.907C145.07 144.361 145.158 144.822 145.23 145.286C145.266 145.518 145.298 145.75 145.325 145.984C145.416 146.702 145.419 147.362 145.429 148.091C145.423 148.325 145.41 148.559 145.39 148.792C145.331 149.491 145.207 150.185 145.003 150.865C144.927 151.117 144.84 151.367 144.741 151.615C144.625 151.85 144.485 152.07 144.317 152.272Z" fill="#EAC926"/>
<path d="M43.3022 154.939C43.2101 154.66 43.1449 154.41 43.1281 154.13C43.0822 153.868 43.043 153.606 43.0113 153.342C42.8399 151.387 42.8402 149.435 43.299 147.506C43.3424 147.331 43.3894 147.156 43.4403 146.983C43.7607 145.888 44.2397 144.851 44.7113 143.815C44.9727 143.241 45.2227 142.662 45.4819 142.086C45.6154 141.791 45.7494 141.495 45.8817 141.198C46.0195 140.889 46.0612 140.564 46.1588 140.243C46.4451 139.303 46.9987 138.406 47.7385 137.756C48.4289 137.149 49.3207 136.8 50.2453 136.918C50.4674 136.947 50.6856 137.004 50.8964 137.079C51.1617 137.173 51.3642 137.357 51.556 137.56C51.8558 137.878 52.0913 138.263 52.2228 138.681C52.4795 139.497 52.3159 140.35 51.7607 141.002C51.28 141.566 50.5239 141.923 50.173 142.593C49.9479 143.023 50.0375 143.534 50.1101 143.993C50.2082 144.614 50.385 145.225 50.5073 145.842C50.7182 146.905 50.5705 147.996 50.326 149.04C50.2812 149.231 50.2399 149.43 50.1927 149.628C50.2358 149.581 50.2805 149.535 50.3299 149.491C50.6116 149.24 50.9412 149.051 51.2846 148.899C52.0129 148.575 52.8414 148.362 53.6361 148.31C55.4629 148.191 57.2888 148.687 58.71 149.865C58.9545 150.045 59.1713 150.255 59.4083 150.441C59.6097 150.6 59.801 150.754 59.9686 150.95C60.3251 151.367 60.5346 151.861 60.6677 152.389C60.9205 153.39 60.7997 154.621 60.1727 155.474C59.8903 155.859 59.5027 156.197 59.1442 156.509C58.7665 156.837 58.3631 157.135 57.9406 157.402C57.1078 157.93 56.2002 158.341 55.2588 158.632C54.4941 158.868 53.7061 159.03 52.9098 159.116C52.5116 159.159 52.1113 159.183 51.7103 159.189C51.4849 159.208 51.2605 159.212 51.037 159.206C50.8137 159.199 50.5913 159.182 50.369 159.158C48.6297 158.945 46.8629 158.629 45.2248 157.861C45.037 157.76 44.8568 157.644 44.688 157.507C44.5192 157.369 44.3618 157.211 44.2191 157.027C44.0831 156.872 43.9596 156.705 43.8513 156.527C43.6347 156.171 43.4796 155.774 43.405 155.342C43.3688 155.203 43.3354 155.067 43.3022 154.939Z" fill="#F2D633"/>
<path d="M45.6219 155.273C46.1374 155.69 46.7186 155.996 47.3367 156.221C47.5426 156.296 47.7528 156.362 47.9659 156.42C48.179 156.478 48.3951 156.528 48.6132 156.571C49.5216 156.75 50.4637 156.81 51.3612 156.827C51.5407 156.831 51.7185 156.832 51.8938 156.833C53.39 156.584 55.0095 155.923 55.5036 154.43C56.2551 152.283 54.2142 150.193 52.2793 149.512C52.0567 149.453 51.8305 149.418 51.6029 149.409C51.1476 149.391 50.6863 149.48 50.2364 149.704C51.5797 148.392 53.6364 148.178 55.4029 148.392C55.6035 148.424 55.8025 148.465 55.9992 148.513C56.9829 148.756 57.9104 149.203 58.7097 149.865C58.9542 150.045 59.171 150.255 59.408 150.442C59.6094 150.6 59.8006 150.755 59.9684 150.951C60.3249 151.367 60.5343 151.862 60.6674 152.389C60.9203 153.39 60.7994 154.622 60.1724 155.475C59.8901 155.859 59.5024 156.198 59.1439 156.509C58.7662 156.837 58.3629 157.135 57.9403 157.403C57.1076 157.93 56.1999 158.341 55.2586 158.632C54.4939 158.869 53.7059 159.03 52.9095 159.116C52.5114 159.159 52.111 159.183 51.7099 159.19C51.4846 159.208 51.2601 159.213 51.0363 159.209C50.8126 159.204 50.5896 159.189 50.3667 159.167C48.5728 158.934 46.7821 158.731 45.204 157.873C45.0189 157.769 44.8433 157.65 44.6819 157.512C44.5207 157.375 44.3734 157.217 44.2443 157.037C44.1113 156.877 43.9888 156.705 43.8784 156.523C43.6575 156.159 43.4854 155.758 43.3709 155.331C43.3138 155.129 43.2669 154.927 43.2268 154.726C43.1874 154.526 43.1549 154.326 43.1277 154.13C43.0819 153.868 43.0426 153.606 43.01 153.343C42.6818 151.295 42.8314 149.197 43.4111 147.254C43.476 147.038 43.5462 146.824 43.6212 146.612C43.7065 146.36 43.7959 146.11 43.8881 145.863C43.9804 145.615 44.0753 145.37 44.1717 145.127C44.2714 144.879 44.3735 144.632 44.477 144.388C44.6841 143.898 44.8968 143.414 45.1067 142.936C45.0535 143.215 45.0026 143.493 44.9544 143.772C44.9063 144.05 44.8606 144.329 44.8179 144.607C44.7644 144.884 44.7139 145.161 44.6669 145.438C44.6199 145.715 44.5765 145.993 44.537 146.27C44.5114 146.499 44.486 146.73 44.4613 146.963C44.39 147.423 44.33 147.888 44.2863 148.355C44.2644 148.589 44.2466 148.823 44.2337 149.058C44.1864 149.78 44.2241 150.439 44.2585 151.167C44.2787 151.401 44.3055 151.633 44.3394 151.865C44.4412 152.559 44.6068 153.244 44.8524 153.911C44.9433 154.158 45.0453 154.402 45.1591 154.643C45.2893 154.871 45.4422 155.082 45.6219 155.273Z" fill="#EAC926"/>
<path d="M98.4174 71.9386C98.2447 71.5146 97.6964 71.4009 97.3723 71.7242C95.2499 73.8414 88.5119 79.2384 87.7508 79.9366C84.0531 83.3283 80.5421 86.9234 77.2368 90.6986C72.1288 96.5327 67.205 102.928 63.2316 109.83C61.2449 113.282 59.4958 116.859 58.078 120.556C54.0499 130.81 52.6719 142.473 56.8373 152.995C59.8113 160.469 65.065 166.479 72.2054 170.614C84.552 177.803 99.038 177.531 111.592 172.079C121.184 167.899 129.233 160.217 132.649 150.312C133.917 146.77 134.639 143.029 134.779 139.194C134.919 135.359 134.477 131.432 133.416 127.517C131.182 119.269 125.978 111.697 120.669 105.121C113.556 96.3361 106.265 88.6133 101.566 78.7457C100.428 76.554 99.3767 74.2948 98.4174 71.9386Z" fill="#F2D633"/>
<path d="M133.436 127.339C132.707 124.385 131.626 121.627 130.187 118.964C129.37 117.446 128.493 115.983 127.566 114.558C126.64 113.134 125.665 111.749 124.654 110.389C122.817 107.99 120.899 105.638 118.964 103.296C117.029 100.953 115.075 98.6206 113.164 96.2606C107.416 89.269 102.107 81.8546 98.856 73.2812C99.1615 80.0502 101.054 86.5717 103.794 92.6191C105.161 95.6762 106.735 98.6481 108.433 101.531C110.054 104.37 111.748 107.176 113.395 110.009C115.042 112.842 116.643 115.703 118.079 118.65C118.716 119.926 119.449 121.1 119.889 122.337C120.624 123.976 121.288 125.636 121.857 127.321C125.945 138.048 124.051 151.164 115.587 159.332C114.228 160.706 112.738 161.95 111.149 163.058C106.38 166.38 100.708 168.471 94.94 169.144C93.3808 169.342 91.8083 169.451 90.2344 169.476C87.0864 169.528 83.9322 169.247 80.8649 168.665C79.1292 168.341 77.4147 167.912 75.7364 167.378C72.3797 166.308 69.1673 164.815 66.2176 162.903C64.6677 161.897 63.1994 160.773 61.8258 159.52C60.4526 158.267 59.1741 156.884 58.0082 155.369C59.6983 158.835 61.9526 161.923 64.6196 164.59C65.953 165.923 67.3898 167.151 68.9125 168.273C74.2579 172.268 80.5912 174.788 87.1591 175.758C88.801 176 90.4577 176.146 92.1172 176.193C96.6814 176.302 101.266 175.67 105.655 174.373C107.118 173.94 108.56 173.433 109.971 172.855C111.37 172.299 112.74 171.666 114.075 170.959C115.409 170.253 116.707 169.475 117.959 168.628C129.539 161.164 136.687 147.091 134.619 133.256C134.376 131.285 133.982 129.307 133.436 127.339Z" fill="#EAC926"/>
<path d="M73.4306 142.694C73.3044 140.624 74.6983 138.664 76.6709 138.124C78.1886 137.718 79.6959 138.232 80.7641 139.398C81.7953 140.605 82.189 142.232 81.7384 143.764C81.2544 145.457 79.8794 146.777 78.1646 146.989C76.3351 147.204 74.5433 146.14 73.8178 144.423C73.5868 143.896 73.4501 143.312 73.4306 142.694Z" fill="#300000"/>
<path d="M75.5313 142.07C75.5086 141.412 75.951 140.864 76.5172 140.617C77.5003 140.243 78.5588 141.09 78.4373 142.127C78.3771 142.664 78.0472 143.133 77.5562 143.339C77.0281 143.585 76.3749 143.49 75.9748 143.086C75.7078 142.832 75.5388 142.473 75.5313 142.07Z" fill="white"/>
<path d="M103.985 141.778C103.88 139.814 105.122 137.898 106.939 137.283C109.136 136.577 111.51 137.904 112.229 140.159C112.778 141.861 112.376 143.751 111.113 144.988C109.923 146.103 108.251 146.474 106.78 145.879C105.54 145.357 104.552 144.309 104.174 142.972C104.063 142.594 103.998 142.193 103.985 141.778Z" fill="#300000"/>
<path d="M106.007 141.189C105.969 140.601 106.373 140.053 106.863 139.809C107.542 139.482 108.355 139.802 108.717 140.403C109.081 141.042 108.915 141.888 108.278 142.328C107.716 142.69 106.913 142.714 106.459 142.197C106.19 141.945 106.019 141.589 106.007 141.189Z" fill="white"/>
<path d="M77.4281 147.924C76.2527 148.117 75.1072 148.708 74.4985 149.617C74.1096 150.197 74.0609 150.948 74.5232 151.529C75.4187 152.654 77.0219 152.948 78.3907 152.738C79.4829 152.571 81.0395 151.95 81.5145 150.862C82.073 149.582 80.707 148.465 79.6298 148.076C78.9772 147.84 78.1962 147.797 77.4281 147.924Z" fill="#FF5C5C"/>
<path d="M77.3748 147.751C76.0824 147.978 74.399 148.752 74.0615 150.164C73.7161 151.609 75.2217 152.587 76.4384 152.86C77.7106 153.145 79.0852 152.921 80.2358 152.322C81.2909 151.772 82.2519 150.659 81.6057 149.435C80.8293 147.965 78.9414 147.512 77.4226 147.743C77.1955 147.778 77.2036 148.139 77.4336 148.105C78.6852 147.914 79.9802 148.157 80.8957 149.085C81.2978 149.492 81.5783 150.044 81.4097 150.624C81.2496 151.174 80.7757 151.583 80.3033 151.869C79.3862 152.426 78.2664 152.683 77.1988 152.608C76.1332 152.532 74.4595 151.95 74.3759 150.672C74.327 149.924 74.8967 149.298 75.468 148.895C76.067 148.471 76.7629 148.223 77.4815 148.097C77.7098 148.056 77.6016 147.711 77.3748 147.751Z" fill="#FF5C5C"/>
<path d="M108.8 146.97C109.985 147.091 111.164 147.612 111.827 148.481C112.25 149.037 112.345 149.783 111.918 150.391C111.093 151.569 109.511 151.959 108.132 151.833C107.031 151.733 105.44 151.208 104.9 150.151C104.264 148.907 105.56 147.709 106.612 147.255C107.249 146.981 108.025 146.89 108.8 146.97Z" fill="#FF5C5C"/>
<path d="M108.757 147.145C109.909 147.276 111.466 147.81 111.917 149.007C112.419 150.343 110.867 151.283 109.779 151.544C108.709 151.802 107.541 151.677 106.529 151.252C105.532 150.832 104.471 149.898 105.125 148.736C105.848 147.453 107.433 147.026 108.805 147.15C109.037 147.171 109.024 146.81 108.794 146.789C107.359 146.659 105.835 147.107 104.963 148.323C104.612 148.813 104.434 149.427 104.644 150.013C104.848 150.581 105.317 151.005 105.825 151.305C106.93 151.955 108.323 152.174 109.579 151.953C110.769 151.744 112.377 150.917 112.375 149.516C112.373 147.817 110.243 146.953 108.843 146.794C108.614 146.768 108.526 147.119 108.757 147.145Z" fill="#FF5C5C"/>
<path d="M84.6021 91.4809C81.2938 92.2819 77.9375 95.9745 77.4005 99.5958C77.2931 100.32 77.2985 101.041 77.4394 101.736C77.6523 102.446 77.9344 103.206 78.633 103.508C83.0917 105.753 87.4653 100.028 88.7761 96.409C89.4518 94.5435 89.1646 91.9449 86.8562 91.5398C86.1414 91.3294 85.3531 91.299 84.6021 91.4809Z" fill="white"/>
<path d="M74.6053 106.341C73.2069 106.817 72.1138 107.954 71.615 109.372C71.0334 111.206 71.151 114.155 73.3607 114.487C75.8934 114.828 77.9125 112.304 78.4937 109.927C78.7635 108.843 78.5642 107.666 77.7971 106.808C76.9768 105.948 75.7345 105.933 74.6053 106.341Z" fill="white"/>
<path d="M93.5299 147.952C92.3224 146.664 90.6618 147.629 89.9162 148.875C90.9306 149.734 92.2198 150.257 93.5648 150.115C94.9426 149.969 96.1641 149.227 97.0227 148.176C95.9664 147.232 94.5833 146.645 93.5299 147.952Z" fill="#FF5C5C"/>
<path d="M98.1917 144.907C98.0484 144.464 97.6562 144.172 97.093 144.193C96.3235 144.223 95.6589 144.713 94.937 144.919C93.6852 145.277 92.3508 145.348 91.0696 145.114C90.3733 144.987 89.5133 144.634 88.8201 144.943C87.8837 145.362 88.19 146.655 88.613 147.351C88.9574 147.917 89.4015 148.439 89.9161 148.874C90.6618 147.629 92.3224 146.664 93.5299 147.952C94.5832 146.644 95.9662 147.232 97.0226 148.176C97.63 147.433 98.0562 146.535 98.2262 145.585C98.2704 145.338 98.2564 145.107 98.1917 144.907Z" fill="#300000"/>
</svg>

