<svg width="345" height="201" viewBox="0 0 345 242" fill="none" xmlns="http://www.w3.org/2000/svg">
<path d="M308.074 0H34.1216C26.8732 0 20.948 6.15387 20.948 13.6733V183.559C20.948 191.079 26.8785 197.238 34.1216 197.238H308.079C315.327 197.238 321.258 191.079 321.258 183.559V13.6733C321.253 6.15918 315.327 0 308.074 0Z" fill="#EBEBEB"/>
<path d="M42.5817 11.8502H299.619C305.454 11.8502 310.226 16.6807 310.226 22.59V179.26C310.226 182.751 308.552 185.855 305.985 187.816L37.326 13.2798C38.8778 12.3764 40.6686 11.8502 42.5817 11.8502Z" fill="#002046"/>
<path d="M37.3208 13.2802L305.98 187.816C304.205 189.176 302 189.99 299.619 189.99H42.5818C36.7469 189.99 31.9749 185.164 31.9749 179.255V22.585C31.9749 18.6154 34.1377 15.1401 37.3208 13.2802Z" fill="#002F66"/>
<path d="M344.077 232.773L343.912 228.415L0 231.311V233.023C0 237.63 4.86238 241.366 10.8567 241.366H333.22C339.347 241.366 344.257 237.481 344.077 232.773Z" fill="#EBEBEB"/>
<path d="M312.553 196.6H31.8733C25.4007 196.6 18.7794 198.747 17.132 201.425L0.514859 228.41C-1.55232 231.769 2.82649 234.58 10.2928 234.58H334.133C341.6 234.58 345.978 231.769 343.911 228.41L327.294 201.425C325.641 198.752 319.02 196.6 312.553 196.6Z" fill="white"/>
<path d="M300.336 206.968H44.0856C38.1763 206.968 32.8091 207.957 32.1501 209.168L25.9539 220.647C25.2312 221.986 29.7747 223.086 36.056 223.086H308.361C314.642 223.086 319.18 221.986 318.457 220.647L312.266 209.168C311.613 207.951 306.251 206.968 300.336 206.968Z" fill="#EBEBEB"/>
<path d="M296.489 199.236H47.9329C42.199 199.236 37.3685 199.507 37.1932 199.831L35.5883 202.807C35.4076 203.141 40.0256 203.418 45.8551 203.418H298.572C304.402 203.418 309.019 203.141 308.839 202.807L307.229 199.831C307.053 199.501 302.223 199.236 296.489 199.236Z" fill="#EBEBEB"/>
<path d="M235.329 224.398H109.093C106.181 224.398 103.688 224.834 103.556 225.371L102.333 230.297C102.195 230.85 104.523 231.312 107.509 231.312H236.918C239.904 231.312 242.232 230.85 242.089 230.297L240.866 225.371C240.728 224.834 238.241 224.398 235.329 224.398Z" fill="#EBEBEB"/>
<path d="M135.768 122.503C134.704 122.286 133.673 122.017 132.661 121.662L132.704 121.671C131.32 121.144 129.955 120.53 128.786 119.641L128.82 119.694C126.782 118.208 125.178 116.181 124.205 113.838C124.076 113.543 123.955 113.244 123.841 112.942C123.781 112.782 123.723 112.621 123.667 112.459C123.641 112.382 123.616 112.306 123.59 112.229C123.563 112.152 123.597 112.252 123.6 112.261C123.581 112.204 123.563 112.146 123.545 112.088C123.434 111.733 123.121 111.422 122.714 111.516C122.375 111.594 122.023 111.965 122.142 112.347C122.515 113.543 122.995 114.698 123.577 115.796C125.791 120.263 130.545 122.837 135.308 123.688C135.708 123.729 136.189 123.607 136.249 123.12C136.271 122.808 136.058 122.534 135.768 122.503Z" fill="#300000"/>
<path d="M122.989 111.463C122.804 111.511 122.621 111.535 122.44 111.537C122.259 111.54 122.081 111.521 121.906 111.483C120.938 111.218 120.016 110.578 119.735 109.511C119.694 109.347 119.666 109.181 119.653 109.016C119.497 107.965 120.23 106.943 121.223 106.786C122.788 106.556 123.722 108.321 123.555 109.789C123.539 110.034 123.497 110.274 123.429 110.502C123.366 110.717 123.278 110.926 123.166 111.126C123.113 111.225 123.054 111.336 122.989 111.463Z" fill="#300000"/>
<path d="M122.873 110.833C122.737 110.866 122.6 110.894 122.46 110.902C122.579 110.895 122.359 110.897 122.36 110.897C122.293 110.894 122.226 110.888 122.16 110.879C122.142 110.877 121.936 110.827 122.08 110.869C122.031 110.855 121.982 110.84 121.933 110.823C121.835 110.791 121.739 110.755 121.644 110.715C121.596 110.695 121.549 110.674 121.502 110.652C121.48 110.642 121.327 110.56 121.465 110.636C121.375 110.586 121.286 110.534 121.2 110.476C121.129 110.428 121.06 110.378 120.993 110.324C120.952 110.292 120.913 110.258 120.875 110.224C120.993 110.328 120.831 110.177 120.811 110.155C120.741 110.08 120.675 110 120.614 109.916C120.594 109.888 120.574 109.86 120.555 109.831C120.639 109.957 120.545 109.81 120.534 109.79C120.483 109.696 120.438 109.599 120.399 109.499C120.391 109.479 120.344 109.309 120.38 109.449C120.359 109.369 120.339 109.29 120.324 109.21C120.305 109.107 120.294 109.004 120.283 108.901C120.277 108.848 120.27 108.796 120.266 108.743C120.278 108.907 120.271 108.736 120.272 108.707C120.276 108.604 120.29 108.503 120.309 108.402C120.279 108.565 120.311 108.403 120.321 108.372C120.336 108.324 120.352 108.276 120.371 108.229C120.389 108.182 120.41 108.137 120.431 108.091C120.496 107.941 120.356 108.195 120.448 108.061C120.505 107.979 120.561 107.898 120.621 107.817C120.716 107.688 120.525 107.9 120.643 107.791C120.673 107.763 120.702 107.734 120.733 107.707C120.764 107.68 120.796 107.654 120.828 107.629C120.854 107.609 120.881 107.589 120.908 107.571C120.838 107.614 120.834 107.617 120.895 107.58C120.983 107.534 121.07 107.493 121.161 107.454C121.308 107.391 121.035 107.474 121.193 107.446C121.233 107.438 121.274 107.427 121.315 107.42C121.356 107.413 121.397 107.41 121.439 107.404C121.599 107.381 121.302 107.393 121.46 107.403C121.53 107.408 121.726 107.387 121.78 107.437C121.753 107.431 121.726 107.425 121.7 107.419C121.728 107.427 121.757 107.435 121.785 107.444C121.827 107.457 121.868 107.472 121.909 107.488C121.936 107.499 121.963 107.512 121.99 107.523C122.128 107.579 121.873 107.446 121.998 107.527C122.071 107.576 122.145 107.622 122.214 107.677C122.247 107.703 122.363 107.766 122.227 107.683C122.274 107.711 122.316 107.771 122.352 107.811C122.403 107.868 122.451 107.927 122.496 107.988C122.523 108.025 122.549 108.063 122.575 108.101C122.481 107.963 122.568 108.094 122.583 108.122C122.677 108.288 122.75 108.462 122.815 108.641C122.759 108.486 122.813 108.637 122.822 108.667C122.839 108.729 122.854 108.792 122.868 108.855C122.892 108.965 122.91 109.077 122.923 109.189C122.927 109.221 122.93 109.253 122.933 109.285C122.936 109.317 122.938 109.349 122.939 109.381C122.935 109.29 122.934 109.28 122.936 109.354C122.934 109.465 122.932 109.575 122.922 109.687C122.91 109.835 122.893 109.982 122.868 110.129C122.865 110.146 122.838 110.251 122.864 110.154C122.841 110.239 122.817 110.324 122.788 110.408C122.674 110.741 122.561 110.906 122.389 111.24C122.235 111.539 122.464 111.966 122.766 112.064C123.129 112.18 123.424 112.006 123.589 111.686C123.605 111.656 123.621 111.625 123.636 111.594C123.688 111.495 123.6 111.663 123.648 111.573C123.685 111.502 123.723 111.433 123.76 111.363C123.848 111.197 123.928 111.031 123.989 110.854C124.1 110.528 124.162 110.187 124.193 109.844C124.235 109.366 124.207 108.875 124.074 108.412C123.804 107.469 123.183 106.516 122.189 106.231C121.109 105.922 119.943 106.388 119.378 107.365C118.771 108.413 118.927 109.748 119.619 110.719C120.365 111.767 121.844 112.401 123.105 112.093C123.429 112.014 123.699 111.698 123.618 111.347C123.544 111.025 123.221 110.748 122.873 110.833Z" fill="#300000"/>
<path d="M124.221 109.648C124.246 109.548 124.266 109.445 124.299 109.346C124.308 109.318 124.318 109.29 124.33 109.262C124.322 109.279 124.314 109.295 124.306 109.311C124.274 109.327 124.118 109.446 124.095 109.421C124.115 109.415 124.135 109.411 124.155 109.409C124.19 109.404 124.182 109.403 124.132 109.407C124.081 109.407 124.074 109.408 124.109 109.408C124.131 109.409 124.152 109.41 124.174 109.413C124.282 109.414 124.129 109.415 124.132 109.4C124.146 109.404 124.159 109.409 124.173 109.413C124.224 109.435 124.225 109.433 124.175 109.408C124.133 109.383 124.127 109.38 124.156 109.398C124.173 109.409 124.189 109.42 124.204 109.433C124.178 109.446 124.101 109.316 124.092 109.299C124.145 109.398 124.045 109.197 124.079 109.267C124.097 109.305 124.087 109.195 124.076 109.264C124.068 109.312 124.068 109.363 124.065 109.411C124.061 109.469 124.056 109.481 124.07 109.416C124.049 109.511 124.012 109.601 123.977 109.692C123.958 109.738 123.947 109.762 123.977 109.703C123.955 109.746 123.928 109.788 123.901 109.83C123.853 109.905 123.801 109.977 123.745 110.046C123.72 110.078 123.694 110.107 123.669 110.138C123.739 110.054 123.652 110.153 123.637 110.169C123.574 110.232 123.506 110.289 123.441 110.348C123.141 110.619 122.829 110.872 122.49 111.093C122.765 111.42 123.039 111.747 123.314 112.074C123.761 111.78 124.074 111.264 124.171 110.741C124.215 110.5 124.262 110.255 124.286 110.011C124.297 109.91 124.307 109.809 124.31 109.707C124.316 109.507 124.269 109.338 124.199 109.151C124.081 108.837 123.635 108.694 123.347 108.847C123.019 109.02 122.916 109.363 123.042 109.699C123.097 109.847 123.03 109.595 123.035 109.596C123.039 109.597 123.028 109.705 123.027 109.715C123.021 109.807 123.012 109.9 123.001 109.992C122.979 110.181 122.945 110.375 122.905 110.561C122.919 110.495 122.909 110.545 122.895 110.581C122.881 110.619 122.866 110.658 122.851 110.696C122.834 110.741 122.818 110.773 122.85 110.711C122.833 110.745 122.812 110.777 122.792 110.808C122.771 110.84 122.748 110.87 122.726 110.901C122.634 111.027 122.771 110.876 122.702 110.929C122.63 110.984 122.567 111.043 122.491 111.093C122.209 111.278 122.197 111.76 122.412 111.995C122.669 112.276 123.013 112.27 123.314 112.074C123.754 111.786 124.181 111.446 124.543 111.064C124.962 110.621 125.294 110.085 125.347 109.464C125.374 109.144 125.337 108.823 125.13 108.567C124.938 108.329 124.662 108.209 124.369 108.151C124.084 108.095 123.725 108.142 123.492 108.327C123.206 108.554 123.106 108.864 123.021 109.202C122.938 109.525 123.045 109.912 123.398 110.025C123.699 110.122 124.133 109.995 124.221 109.648Z" fill="#300000"/>
<path d="M180.595 47.5437C180.454 47.1121 179.92 46.9614 179.576 47.2587C177.329 49.2056 170.285 54.076 169.484 54.7137C165.588 57.8119 161.864 61.1243 158.33 64.6292C152.869 70.0456 147.551 76.0304 143.139 82.5829C140.932 85.8591 138.952 89.2773 137.291 92.8359C132.591 102.701 130.414 114.145 133.802 124.847C136.224 132.449 141.003 138.762 147.78 143.351C159.495 151.325 173.847 152.066 186.649 147.547C196.431 144.08 204.931 137.04 209.002 127.478C210.503 124.061 211.478 120.41 211.884 116.625C212.29 112.841 212.126 108.924 211.35 104.977C209.715 96.6591 205.093 88.8047 200.299 81.9273C193.874 72.7394 187.197 64.5899 183.236 54.4986C182.263 52.2507 181.38 49.9419 180.595 47.5437Z" fill="#F2D633"/>
<path d="M210.879 104.725C210.78 104.01 210.658 103.301 210.514 102.597C210.37 101.893 210.204 101.194 210.017 100.502C209.863 99.8097 209.662 99.1265 209.428 98.4505C209.194 97.7745 208.927 97.1059 208.641 96.4431C207.597 94.0178 206.321 91.726 204.936 89.4997C204.474 88.7576 204 88.0229 203.518 87.2927C202.66 85.7927 201.526 84.4616 200.569 82.9494C200.074 82.2283 199.581 81.5069 199.093 80.7828C198.604 80.0586 198.122 79.3316 197.65 78.5992C197.072 77.7866 196.496 76.9775 195.923 76.1702C190.766 68.9038 185.86 61.7736 182.533 53.4412C181.953 51.969 181.422 50.4734 180.946 48.9519C180.911 50.7273 180.979 52.4759 181.137 54.2014C181.602 60.8175 183.727 67.0347 186.35 73.173C186.5 73.5121 186.65 73.8502 186.802 74.1873C186.954 74.5243 187.109 74.8614 187.27 75.2046C188.247 77.6115 190.24 79.7523 190.959 82.2193C191.102 82.7127 191.195 83.219 191.218 83.7417C191.324 84.8451 191.158 86.52 190.06 86.7729C183.969 88.2108 184.779 95.1667 184.19 99.7757C184.133 100.387 184.087 100.999 184.05 101.611C184.008 102.311 183.978 103.011 183.96 103.711C182.938 108.19 185.446 111.876 189.129 113.3C189.655 113.503 190.206 113.663 190.778 113.787C194.5 114.249 201.247 113.727 200.614 119.38C200.576 119.742 200.514 120.107 200.434 120.471C200.195 121.561 199.796 122.635 199.433 123.637C199.242 124.162 199.036 124.682 198.814 125.196C197.927 127.251 196.794 129.203 195.418 131.005C194.251 132.544 192.93 133.947 191.49 135.212C185.728 140.273 178.049 143.13 170.377 143.482C168.821 143.569 167.257 143.567 165.698 143.483C162.58 143.314 159.478 142.816 156.484 142.027C154.789 141.585 153.123 141.041 151.499 140.395C148.253 139.103 145.178 137.401 142.393 135.304C140.929 134.201 139.555 132.987 138.283 131.65C137.012 130.315 135.843 128.858 134.795 127.277C136.226 130.825 138.241 134.037 140.694 136.861C141.92 138.274 143.256 139.589 144.685 140.805C149.695 145.131 155.786 148.066 162.217 149.483C163.825 149.838 165.454 150.097 167.093 150.26C171.601 150.686 176.181 150.38 180.615 149.402C182.093 149.076 183.554 148.676 184.991 148.202C190.68 146.391 196.022 143.322 200.419 139.269C201.885 137.917 203.242 136.454 204.46 134.885C209.245 128.735 211.709 120.931 211.725 113.179C211.727 112.318 211.699 111.457 211.64 110.599C211.592 109.624 211.506 108.644 211.38 107.663C211.254 106.682 211.086 105.703 210.879 104.725Z" fill="#EAC926"/>
<path d="M165.563 65.9169C162.234 66.4788 158.655 69.8983 157.872 73.4439C157.715 74.1531 157.67 74.8672 157.761 75.5645C157.922 76.2815 158.148 77.0537 158.818 77.4006C163.074 79.9331 167.8 74.5734 169.35 71.084C170.148 69.2853 170.045 66.6941 167.789 66.1323C167.097 65.8744 166.319 65.7894 165.563 65.9169Z" fill="white"/>
<path d="M154.636 79.9235C153.219 80.2966 152.058 81.3454 151.466 82.7135C150.762 84.4884 150.673 87.4145 152.836 87.8963C155.319 88.4106 157.492 86.0539 158.233 83.7429C158.576 82.689 158.461 81.5102 157.761 80.6077C157.01 79.7003 155.782 79.5979 154.636 79.9235Z" fill="white"/>
<path d="M150.581 119.416C150.6 117.359 152.116 115.517 154.105 115.12C155.635 114.825 157.091 115.438 158.067 116.666C159.003 117.933 159.279 119.569 158.726 121.054C158.129 122.695 156.677 123.906 154.965 123.996C153.14 124.082 151.441 122.904 150.843 121.154C150.651 120.617 150.557 120.029 150.581 119.416Z" fill="#300000"/>
<path d="M152.703 118.945C152.726 118.293 153.202 117.781 153.779 117.576C154.778 117.275 155.766 118.187 155.574 119.204C155.477 119.732 155.118 120.173 154.618 120.342C154.078 120.549 153.438 120.409 153.07 119.982C152.824 119.711 152.682 119.344 152.703 118.945Z" fill="white"/>
<path d="M180.876 120.64C180.909 118.689 182.272 116.88 184.113 116.399C186.336 115.853 188.592 117.331 189.146 119.613C189.571 121.335 189.042 123.177 187.706 124.313C186.451 125.334 184.771 125.584 183.356 124.893C182.166 124.29 181.261 123.183 180.98 121.835C180.897 121.453 180.86 121.052 180.876 120.64Z" fill="#300000"/>
<path d="M182.919 120.199C182.922 119.614 183.36 119.1 183.862 118.892C184.556 118.617 185.338 118.99 185.655 119.609C185.97 120.267 185.747 121.093 185.086 121.484C184.504 121.803 183.709 121.771 183.295 121.228C183.047 120.959 182.902 120.595 182.919 120.199Z" fill="white"/>
<path d="M154.171 124.869C152.995 124.979 151.82 125.484 151.154 126.34C150.729 126.887 150.629 127.627 151.046 128.234C151.853 129.41 153.419 129.812 154.788 129.7C155.88 129.611 157.464 129.105 158.009 128.062C158.651 126.835 157.378 125.634 156.339 125.174C155.71 124.895 154.94 124.798 154.171 124.869Z" fill="#FF5C5C"/>
<path d="M154.131 124.695C152.836 124.83 151.116 125.478 150.684 126.851C150.241 128.257 151.663 129.33 152.848 129.684C154.087 130.056 155.462 129.929 156.643 129.417C157.725 128.947 158.754 127.913 158.199 126.657C157.534 125.147 155.697 124.567 154.178 124.69C153.951 124.709 153.934 125.067 154.164 125.049C155.416 124.947 156.68 125.279 157.521 126.26C157.891 126.691 158.13 127.257 157.923 127.819C157.726 128.352 157.228 128.724 156.741 128.974C155.795 129.46 154.669 129.637 153.618 129.488C152.569 129.339 150.953 128.646 150.96 127.376C150.963 126.633 151.571 126.053 152.164 125.693C152.786 125.316 153.492 125.119 154.212 125.044C154.441 125.02 154.358 124.671 154.131 124.695Z" fill="#FF5C5C"/>
<path d="M185.279 126.113C186.443 126.316 187.573 126.913 188.168 127.82C188.549 128.399 188.59 129.144 188.126 129.716C187.227 130.824 185.634 131.1 184.278 130.879C183.197 130.703 181.659 130.072 181.198 128.988C180.656 127.714 182.021 126.619 183.094 126.243C183.743 126.016 184.518 125.98 185.279 126.113Z" fill="#FF5C5C"/>
<path d="M185.224 126.284C186.354 126.494 187.858 127.13 188.22 128.346C188.625 129.703 187.023 130.524 185.929 130.707C184.851 130.888 183.705 130.683 182.733 130.192C181.775 129.707 180.791 128.708 181.519 127.605C182.324 126.386 183.922 126.073 185.271 126.292C185.499 126.329 185.511 125.97 185.286 125.934C183.874 125.705 182.335 126.043 181.388 127.184C181.006 127.645 180.788 128.24 180.954 128.835C181.116 129.411 181.551 129.863 182.033 130.195C183.081 130.916 184.443 131.229 185.702 131.098C186.893 130.974 188.542 130.268 188.638 128.882C188.755 127.201 186.707 126.197 185.333 125.942C185.109 125.9 184.998 126.242 185.224 126.284Z" fill="#FF5C5C"/>
<path d="M210.71 123.702C210.627 123.819 210.543 123.936 210.457 124.052C210.425 124.095 210.393 124.137 210.362 124.179C210.349 124.195 210.301 124.258 210.284 124.28C210.113 124.499 209.937 124.715 209.756 124.926C209.027 125.778 208.22 126.563 207.345 127.264C207.313 127.29 207.281 127.315 207.249 127.34C207.199 127.379 207.149 127.417 207.099 127.455C206.992 127.536 206.884 127.615 206.775 127.693C206.549 127.856 206.32 128.012 206.086 128.163C205.61 128.471 205.119 128.753 204.614 129.011C204.274 129.185 204.208 129.636 204.373 129.947C204.552 130.286 204.991 130.351 205.308 130.189C206.506 129.576 207.621 128.816 208.651 127.95C209.913 126.887 211.03 125.642 211.969 124.28L211.053 123.195C210.941 123.366 210.827 123.535 210.71 123.702Z" fill="#300000"/>
<path d="M216.996 110.565C216.298 109.738 215.12 109.495 214.154 109.968C213.35 110.362 212.926 111.219 212.78 112.069C212.654 112.077 212.53 112.104 212.421 112.146C212.154 112.249 211.914 112.409 211.773 112.666C211.621 112.943 211.641 113.251 211.72 113.548C211.874 114.125 212.277 114.575 212.747 114.922C213.097 115.181 213.488 115.401 213.887 115.584C213.875 115.628 213.866 115.674 213.86 115.72C213.854 115.765 213.848 115.81 213.842 115.855C213.842 115.857 213.842 115.858 213.842 115.86C213.83 115.937 213.819 116.013 213.807 116.09C213.782 116.252 213.754 116.414 213.724 116.575C213.668 116.879 213.604 117.181 213.532 117.481C213.384 118.1 213.204 118.711 212.992 119.311C212.899 119.575 212.8 119.836 212.696 120.095C212.68 120.133 212.665 120.171 212.649 120.209C212.647 120.215 212.644 120.221 212.641 120.228C212.619 120.281 212.596 120.334 212.573 120.387C212.519 120.51 212.464 120.633 212.408 120.756C212.17 121.272 211.909 121.776 211.625 122.268C211.444 122.583 211.252 122.892 211.053 123.195L211.969 124.28C212.36 123.712 212.722 123.125 213.049 122.521C214.194 120.409 214.925 118.109 215.227 115.727C215.235 115.663 215.229 115.601 215.214 115.542C216.12 115.283 216.938 114.6 217.332 113.768C217.821 112.736 217.744 111.451 216.996 110.565Z" fill="#300000"/>
<path d="M238.221 86.1498C237.968 85.9724 237.673 85.8233 237.326 85.708C236.417 85.4059 235.444 85.3725 234.486 85.3416C219.899 84.8723 205.309 83.6955 190.706 83.7961C190.101 83.8003 189.465 83.8136 188.95 84.08C188.137 84.5015 187.72 85.412 187.529 86.5126C186.393 93.0499 186.926 99.7516 187.127 106.343C187.15 107.103 187.176 107.878 187.439 108.591C188.024 110.178 189.762 110.588 191.271 110.751C205.284 112.263 219.405 112.744 233.472 113.558C235.689 113.685 236.982 113.126 237.73 112.171C238.103 111.693 238.341 111.116 238.496 110.473C239.381 106.791 239.467 102.633 239.663 98.8612C239.795 96.3238 239.969 93.7778 239.818 91.237C239.705 89.341 239.755 87.2257 238.221 86.1498Z" fill="#FFE2CF"/>
<path d="M257.47 134.733C257.48 134.729 257.482 134.728 257.47 134.733V134.733Z" fill="#300000"/>
<path d="M213.28 111.71C212.762 111.414 212.103 111.438 211.735 111.954C211.226 112.668 211.624 113.515 212.082 114.142C212.095 114.172 212.115 114.198 212.142 114.217C212.192 114.261 212.25 114.267 212.304 114.249C212.461 114.25 212.643 114.258 212.792 114.215C213.017 114.149 213.227 114.043 213.458 113.985C213.789 113.903 214.089 113.698 214.158 113.34C214.28 112.714 213.803 112.008 213.28 111.71Z" fill="#300000"/>
<path d="M173.665 120.657C173.6 120.507 173.487 120.375 173.33 120.303C172.992 120.148 172.566 120.32 172.325 120.586C172.085 120.852 171.972 121.191 171.814 121.503C171.549 122.026 171.135 122.496 170.595 122.798C170.054 123.101 169.384 123.226 168.767 123.088C168.123 122.943 167.577 122.521 167.25 121.998C167.083 121.732 166.969 121.441 166.811 121.17C166.653 120.899 166.44 120.64 166.14 120.5C165.839 120.36 165.436 120.367 165.194 120.582C164.896 120.847 164.948 121.294 165.081 121.653C165.284 122.199 165.622 122.697 166.024 123.144C166.728 123.925 167.681 124.573 168.781 124.727C171.017 125.04 173.177 123.358 173.667 121.45C173.72 121.242 173.756 121.025 173.714 120.815C173.704 120.761 173.687 120.708 173.665 120.657Z" fill="#300000"/>
<path d="M195.633 103.953C194.127 103.887 193.06 103.522 192.431 102.859C191.802 102.196 191.515 101.265 191.567 100.065L191.765 95.5811C191.818 94.3809 192.187 93.4783 192.871 92.8731C193.556 92.268 194.651 91.9986 196.157 92.065L200.131 92.2401L200.049 94.1082L196.075 93.9332C195.452 93.9057 194.981 94.0325 194.663 94.3134C194.355 94.5948 194.188 95.0525 194.16 95.6866L194.102 96.9943L199.163 97.2173L199.081 99.0855L194.02 98.8625L193.962 100.17C193.935 100.793 194.061 101.264 194.342 101.582C194.635 101.89 195.093 102.058 195.716 102.085L199.724 102.262L199.641 104.13L195.633 103.953ZM208.548 101.749L203.894 101.544L202.974 104.277L200.58 104.171L203.901 94.8225C204.135 94.1521 204.373 93.6351 204.616 93.2714C204.859 92.9078 205.137 92.6534 205.45 92.5084C205.774 92.3638 206.168 92.3018 206.632 92.3222C207.096 92.3427 207.478 92.4389 207.776 92.6109C208.075 92.7829 208.329 93.0607 208.539 93.4443C208.761 93.8284 208.958 94.3646 209.132 95.0529L211.619 104.658L209.224 104.552L208.548 101.749ZM208.1 99.9422L206.889 94.9881C206.823 94.6903 206.704 94.5376 206.535 94.5301C206.365 94.5226 206.234 94.6643 206.142 94.9552L204.499 99.7836L208.1 99.9422ZM216.457 105.075C215.642 105.039 214.961 104.918 214.414 104.713C213.878 104.508 213.431 104.238 213.071 103.905C212.711 103.571 212.345 103.13 211.972 102.58L213.645 101.31C214.081 101.975 214.508 102.454 214.926 102.744C215.356 103.024 215.894 103.178 216.539 103.207C217.434 103.246 218.09 103.145 218.509 102.902C218.928 102.66 219.151 102.25 219.176 101.672C219.189 101.378 219.103 101.136 218.919 100.946C218.735 100.745 218.409 100.555 217.94 100.376C217.483 100.197 216.794 99.9906 215.874 99.7572C214.797 99.4829 214.005 99.0453 213.499 98.4444C213.004 97.8327 212.778 97.04 212.821 96.0662C212.852 95.3643 213.054 94.7606 213.428 94.2552C213.813 93.7504 214.341 93.3709 215.01 93.1167C215.679 92.8626 216.449 92.7547 217.321 92.7931C218.453 92.843 219.346 93.0525 219.999 93.4216C220.653 93.7794 221.175 94.2902 221.565 94.954L219.929 96.1752C219.593 95.8087 219.311 95.5297 219.081 95.3381C218.863 95.1356 218.609 94.9769 218.319 94.8621C218.029 94.7472 217.669 94.6803 217.239 94.6613C216.593 94.6329 216.1 94.753 215.76 95.0216C215.419 95.2902 215.237 95.6905 215.213 96.2227C215.191 96.7209 215.384 97.0981 215.793 97.3543C216.202 97.5992 216.731 97.8097 217.382 97.9858C218.346 98.2325 219.113 98.4762 219.681 98.7167C220.249 98.9573 220.715 99.3238 221.079 99.8163C221.443 100.309 221.607 100.968 221.57 101.795C221.518 102.972 221.066 103.832 220.214 104.373C219.374 104.914 218.121 105.148 216.457 105.075ZM225.849 100.18L222.242 93.2141L224.908 93.3316L227.202 98.0441L229.85 93.5493L232.534 93.6675L228.243 100.285L228.019 105.38L225.624 105.275L225.849 100.18ZM191.503 113.881L193.677 113.977L193.011 122.15L191.448 122.081L191.503 113.881ZM192.058 126.021C191.684 126.005 191.372 125.866 191.123 125.606C190.874 125.334 190.757 125.017 190.773 124.655C190.789 124.292 190.933 123.987 191.205 123.738C191.478 123.477 191.801 123.356 192.174 123.372C192.525 123.387 192.825 123.537 193.073 123.82C193.322 124.092 193.439 124.409 193.423 124.771C193.407 125.134 193.263 125.439 192.991 125.688C192.731 125.926 192.42 126.037 192.058 126.021Z" fill="#300000"/>
</svg>
